<svg xmlns="http://www.w3.org/2000/svg" viewBox="0 0 177.98 107.69"><defs><style>.cls-1{fill:#db9703;}.cls-2{fill:#db9806;}.cls-3{fill:#db9805;}.cls-4{fill:#db9704;}.cls-5{fill:#3e3d3e;}.cls-6{fill:#474647;}.cls-7{fill:#be8625;}.cls-8{fill:#ebe3d3;}.cls-9{fill:#fdfbf7;}.cls-10{fill:#cececf;}.cls-11{fill:#600601;}.cls-12{fill:#fbf8f3;}.cls-13{fill:#faf2e1;}.cls-14{fill:#fefefe;}</style></defs><title>Asset 2</title><g id="Layer_2" data-name="Layer 2"><g id="Layer_1-2" data-name="Layer 1"><path class="cls-1" d="M170.78,55.64a2,2,0,0,1-2.15,1.11c-1.31,0-2.63,0-3.94,0-.48,0-.57-.15-.47-.59a2.32,2.32,0,0,1,.69-1.18,4.73,4.73,0,0,0,1.35-3.35,21.24,21.24,0,0,0-.63-6.88c-.62-2.08-1.71-3.75-4-4.29a5.33,5.33,0,0,0-6.49,3.24,15.46,15.46,0,0,0-1,6.13q0,4.35.07,8.72a12.27,12.27,0,0,0,.92,4.51,5.19,5.19,0,0,0,5.11,3.42,15.2,15.2,0,0,1,10.37,4.13c.4.36.58.43,1,0a5.43,5.43,0,0,1,6.35-.76,11.17,11.17,0,0,0-1.09.94,5.31,5.31,0,0,0-1.53,3.76c0,4.56,0,9.12,0,13.67a14.78,14.78,0,0,1-8.11,13.6c-9.1,5-20.85-1.14-22-11.41-.13-1.15-.17-2.31-.29-3.46a4,4,0,0,0-1.11-2.41c-.14-.15-.28-.3-.41-.46-.3-.4-.61-.89-.4-1.34s.7-.13,1.07-.14c1.21,0,2.42,0,3.63,0a1.79,1.79,0,0,1,1.84,1.14c.57-1.24,1.62-1.16,2.66-1.14s2.27,0,3.4,0c.62,0,.7.25.57.74a1.82,1.82,0,0,1-.5.86A5,5,0,0,0,154.15,88a20.82,20.82,0,0,0,.69,6.72c.65,2,1.78,3.59,4,4.1a5.35,5.35,0,0,0,6.4-3.17,15.46,15.46,0,0,0,1-6.35c0-3.24,0-6.49,0-9.73a13.06,13.06,0,0,0-1-5.26,5,5,0,0,0-4.89-3.24,15.14,15.14,0,0,1-15.24-15.42,60.06,60.06,0,0,1,.12-6.71A15.13,15.13,0,0,1,175,47.68a14.83,14.83,0,0,1,.37,3.52,5,5,0,0,0,1.43,3.86,2.83,2.83,0,0,1,.34.42,1.26,1.26,0,0,1,.28,1.15c-.13.28-.61.1-.93.11-1.21,0-2.43,0-3.64,0a2,2,0,0,1-2.06-1.11m-2,40.66a12.76,12.76,0,0,0,2.14-5.21,30.1,30.1,0,0,0,0-11.39,5.75,5.75,0,0,0-.77-2.09c.06,1,0,2,0,3,0,1.93,0,3.85-.09,5.78a51.92,51.92,0,0,1-.76,7.57,8.47,8.47,0,0,0-.49,2.39c-.1,0-.14,0-.1.08l.08-.1m-15.5-30.71c0,.06.1.13.15.06s0-.1-.09-.12A15.49,15.49,0,0,1,150.55,59a38,38,0,0,1-.62-6.21c-.07-3.38.1-6.73,1.58-9.87.05-.07.11-.15,0-.22s-.09.07-.13.11a6.82,6.82,0,0,0-1.65,2.83,23.12,23.12,0,0,0-1,10,17.81,17.81,0,0,0,2,6.92,7.25,7.25,0,0,0,2.57,3"/><path class="cls-1" d="M6.49,102.59a1.68,1.68,0,0,1-1.7,1c-1.24,0-2.48,0-3.71,0-.67,0-.68-.3-.51-.74a2.57,2.57,0,0,1,.54-.84,4.31,4.31,0,0,0,1.25-3.22q0-12.24,0-24.49A4.58,4.58,0,0,0,.62,70.79L0,70.27a3.8,3.8,0,0,1,1.72-.54c.55,0,.66-.23.66-.74,0-4.09,0-8.19,0-12.28,0-5.2,0-10.41,0-15.61A5,5,0,0,0,1,37.23a1.52,1.52,0,0,1-.31-.44c-.4-.76-.26-1,.6-1,1.13,0,2.26,0,3.4,0a1.73,1.73,0,0,1,1.82,1.1c.38-1.06,1.19-1.11,2.08-1.1H30.69c.92,0,1,.2.6,1a1.61,1.61,0,0,1-.35.5A4.66,4.66,0,0,0,29.61,41c0,3.68,0,7.36,0,11,0,.74-.23.81-.89.77-5.27-.34-7.24-4.51-7.29-8.12,0-.74,0-1.49,0-2.24a2.36,2.36,0,0,0-2.53-2.5H13.05a2.36,2.36,0,0,0-2.51,2.52V65.39A2.44,2.44,0,0,0,13,68.09a2.43,2.43,0,0,0,2.71-2.49,4.79,4.79,0,0,1,4.84-4.55c.47,0,.56.13.56.56q0,8.44,0,16.91c0,.46-.08.64-.6.59a4.74,4.74,0,0,1-4.8-4.74A2.42,2.42,0,0,0,13,72.17a2.36,2.36,0,0,0-2.4,2.32c0,2.29,0,4.58,0,6.87,0,5.62,0,11.23,0,16.84a5.07,5.07,0,0,0,1.38,4,2.24,2.24,0,0,1,.32.44c.39.75.26,1-.59,1-1.13,0-2.27,0-3.4,0a1.64,1.64,0,0,1-1.75-1m0-8.92a457.65,457.65,0,0,0,0-48,454.94,454.94,0,0,0,0,48"/><path class="cls-2" d="M119.23,53.75c-1.43.91-1.45,2.28-1.44,3.72,0,3.57,0,7.15,0,10.73a3.13,3.13,0,0,0,.82,2.48.72.72,0,0,1,.26.69c-.1.26-.42.16-.63.13-.92-.12-1.92.37-2.74-.38a.2.2,0,0,0-.2,0c-.94.77-2,.24-3,.39-.49.07-.43-.36-.48-.63q-.75-4-1.48-8-1.71-9.29-3.43-18.57a1.31,1.31,0,0,0-.26-.58V53c0,.3.11.4.39.44a1.72,1.72,0,0,1,1,.38c-1.32.86-1.43,2.18-1.41,3.6,0,3.53,0,7.05,0,10.58a3.41,3.41,0,0,0,.89,2.77.63.63,0,0,1,.2.63c-.1.27-.4.15-.62.16a5.73,5.73,0,0,1-2-.05,2.82,2.82,0,0,0-1.77,0,10.24,10.24,0,0,1-2.15,0c-.49,0-.61-.28-.34-.55,1.35-1.37,1-3.07,1-4.68,0-3.14,0-6.28,0-9.42a3.29,3.29,0,0,0-1.39-3.1,1.24,1.24,0,0,1,.21-.15c.34-.24.94,0,1.1-.41a3.65,3.65,0,0,0,.06-1.37c0-4.27,0-8.55,0-12.82a3,3,0,0,0-.78-2.34c-.19-.19-.4-.48-.28-.75s.47-.16.7-.12c.91.12,1.91-.37,2.75.38.06.05.41-.32.63-.34.87-.05,1.75-.05,2.63-.05.37,0,.33.33.37.57l1.83,9.78q1.55,8.26,3.08,16.52a.39.39,0,0,0,.24.38V61c0-1.32,0-2.63,0-3.94a3.34,3.34,0,0,0-1.41-3.34c.19-.11.3-.23.4-.23.94,0,1-.56,1-1.36,0-4.27,0-8.54,0-12.82a3.46,3.46,0,0,0-.86-2.77.64.64,0,0,1-.23-.63c.11-.27.41-.12.63-.16h.15c.92.11,1.91-.3,2.74.41.82-.72,1.82-.31,2.73-.4.24,0,.59-.14.71.13s-.09.54-.29.74a3,3,0,0,0-.77,2.27c0,4.45,0,8.91,0,13.36,0,.71.06,1.2.91,1.21.13,0,.27.12.53.24m-15,11.74a185.61,185.61,0,0,0,0-23.82,205.75,205.75,0,0,0,0,23.82m11-22c-.2,6.91-.22,13.59,0,20.33.64-.93.69-19.12,0-20.33m.3-1.74a1.11,1.11,0,0,0,0,1.44Zm0,23.89V64.17c-.33.7-.33.88,0,1.46"/><path class="cls-3" d="M123,53.75l.25-.14c.34-.24.93,0,1.09-.4a3.28,3.28,0,0,0,.07-1.3c0-4.24,0-8.49,0-12.74a3.18,3.18,0,0,0-.83-2.55.63.63,0,0,1-.23-.69c.11-.26.41-.12.63-.13a7,7,0,0,1,1.77,0,8.15,8.15,0,0,0,2.15,0c4.32-.09,8.65-.05,13,0,.19,0,.45-.11.56.13a.57.57,0,0,1-.19.63,3.31,3.31,0,0,0-.86,2.7c0,2,0,3.91,0,5.87,0,.53-.15.65-.67.59a4.49,4.49,0,0,1-4.16-4.64c0-.51,0-1,0-1.54a1.37,1.37,0,0,0-1.42-1.33q-1.74,0-3.48,0a1.39,1.39,0,0,0-1.46,1.46q0,5.64,0,11.28a1.37,1.37,0,0,0,1.45,1.46A1.42,1.42,0,0,0,132.22,51a2.74,2.74,0,0,1,2.62-2.64c.46-.05.51.11.51.49q0,4.78,0,9.58c0,.42-.15.51-.54.48a2.73,2.73,0,0,1-2.58-2.44c-.13-1-.49-1.47-1.19-1.58a1.48,1.48,0,0,0-1.85,1.59q0,5.49,0,11a1.42,1.42,0,0,0,1.6,1.63q1.62,0,3.24,0a1.39,1.39,0,0,0,1.53-1.54,9.2,9.2,0,0,1,.27-2.91,4.3,4.3,0,0,1,3.85-3.08c.52,0,.72.06.71.64,0,2,0,4,0,6a3.17,3.17,0,0,0,.81,2.48.62.62,0,0,1,.23.69c-.12.26-.41.14-.63.14-4.25,0-8.5,0-12.75,0a1.9,1.9,0,0,1-1.3-.5,1.27,1.27,0,0,1-1.22.5c-.59,0-1.18,0-1.78,0s-.6-.27-.33-.55c1.39-1.42.95-3.18,1-4.84,0-3,0-6.07,0-9.11A3.42,3.42,0,0,0,123,53.75m3.8-12.07a203.67,203.67,0,0,0,0,23.44,185.18,185.18,0,0,0,0-23.44"/><path class="cls-4" d="M36.56,53.75c.12-.07.15-.11.2-.12.38-.13,1-.14,1.1-.4A3.37,3.37,0,0,0,38,51.8c0-4.17,0-8.34,0-12.52a3.35,3.35,0,0,0-.86-2.7.58.58,0,0,1-.22-.62c.1-.29.4-.15.61-.16a7.3,7.3,0,0,1,1.62,0,11.27,11.27,0,0,0,2.53,0c4.22-.08,8.45,0,12.67,0,.22,0,.51-.12.65.12a.58.58,0,0,1-.21.69,3.34,3.34,0,0,0-.86,2.63c0,1.93,0,3.86,0,5.79,0,.67-.21.74-.8.66a4.46,4.46,0,0,1-4-4.56c0-.52,0-1,0-1.55a1.37,1.37,0,0,0-1.46-1.37c-1.15,0-2.31,0-3.47,0a1.37,1.37,0,0,0-1.42,1.42c0,3.78,0,7.57,0,11.35a1.35,1.35,0,0,0,1.32,1.43,1.41,1.41,0,0,0,1.65-1.16c.05-.19,0-.4.08-.6a2.64,2.64,0,0,1,1.45-2c1.32-.65,1.65-.46,1.65,1,0,2.86,0,5.72,0,8.58,0,.7-.25.76-.81.65a2.7,2.7,0,0,1-2.32-2.44c-.16-1.16-.67-1.63-1.69-1.56s-1.36.65-1.36,1.79V67.32c0,1.28.48,1.75,1.78,1.76h2.94c1.13,0,1.64-.52,1.66-1.66a9.47,9.47,0,0,1,.24-2.76,4.34,4.34,0,0,1,3.9-3.13c.46,0,.63.07.63.58,0,1.9,0,3.81,0,5.71a3.67,3.67,0,0,0,.92,2.92.55.55,0,0,1,.17.63c-.11.23-.37.14-.56.14H41.5a1.47,1.47,0,0,1-1.16-.5,1.36,1.36,0,0,1-1.14.5c-.62,0-1.24,0-1.86,0s-.68-.26-.36-.58c1.26-1.27,1-2.86,1-4.38,0-3.27,0-6.54,0-9.81a3.32,3.32,0,0,0-1.41-3m3.8-11a167.62,167.62,0,0,0,0,21.73,171.26,171.26,0,0,0,0-21.73"/><path class="cls-1" d="M80.08,53.75c.2-.11.29-.21.38-.21,1,0,1.08-.61,1.07-1.45,0-2.8,0-5.61,0-8.41a8,8,0,0,1,15.93,0c0,2.88,0,5.76,0,8.64,0,.65,0,1.16.85,1.15a2,2,0,0,1,.6.23c-1.38.93-1.49,2.27-1.46,3.72.06,2,0,4,0,6a8,8,0,0,1-15.86,1.36,20.6,20.6,0,0,1-.07-3.24c0-1.52,0-3,0-4.56a3.51,3.51,0,0,0-1.44-3.28m15.31,1.31c0-.83,0-1.67,0-2.5A23.27,23.27,0,0,0,95.29,49a21.3,21.3,0,0,0-.24-4.72A41.08,41.08,0,0,0,94.73,50l0,2.46a21.8,21.8,0,0,0,0,2.8c0,.87,0,1.74,0,2.61a47.36,47.36,0,0,0,.32,5.83c.08-.76.16-1.52.19-2.28,0-.92,0-1.85,0-2.77l.09-3.54M84.18,57.84s0,0,0-.05a.53.53,0,0,0,0-.12l0-2.45a11.49,11.49,0,0,0,0-2.81l0-2.3a62.18,62.18,0,0,0-.28-6.68,44.22,44.22,0,0,0-.3,5.75c0,1.14,0,2.27,0,3.4a7.52,7.52,0,0,0,0,2.46c0,1.18,0,2.37,0,3.55a37,37,0,0,0,.32,5.16c.09-1.93.3-3.85.23-5.78a.15.15,0,0,0,0-.13M86.29,49c-.18,1.07,0,2.15-.09,3.21-.08.81.06,1.35,1,1.34.11,0,.22.1.39.19A3.31,3.31,0,0,0,86.26,56a11.5,11.5,0,0,0,0,2.75c0,1.57,0,3.14,0,4.71a9.76,9.76,0,0,0,.53,3.79,2.79,2.79,0,0,0,2.7,1.82,2.83,2.83,0,0,0,2.66-1.9,6.25,6.25,0,0,0,.37-1.49,64.25,64.25,0,0,0,.11-6.94c0-.58,0-1.18,0-1.76a3.23,3.23,0,0,0-1.36-3.22,1,1,0,0,1,.72-.3c.51,0,.67-.27.65-.78-.05-1.23,0-2.46,0-3.69,0-2.19,0-4.37,0-6.56a6.53,6.53,0,0,0-.45-2.34,2.73,2.73,0,0,0-2.55-1.9c-1.71,0-2.84.94-3.13,2.86a50,50,0,0,0-.2,7.93"/><path class="cls-4" d="M58.69,53.71l.19-.12c.35-.21.95,0,1.1-.38A3.65,3.65,0,0,0,60,51.84V39.49a3.65,3.65,0,0,0-.9-2.93.53.53,0,0,1-.16-.63c.12-.23.37-.13.56-.13a7.13,7.13,0,0,1,2.07,0,2.75,2.75,0,0,0,1.63,0,9.26,9.26,0,0,1,2.3-.06c.49,0,.47.34.26.55-1.36,1.35-1,3.06-1,4.67,0,3.81,0,7.62,0,11.43,0,.62.06,1,.8,1a.79.79,0,0,1,.58.29,3.57,3.57,0,0,0-1.38,3.38c0,3.68,0,7.36,0,11a3.13,3.13,0,0,0,.82,2.48c.19.18.37.44.25.69s-.47.17-.69.14c-.91-.12-1.92.38-2.73-.41,0,0-.11,0-.14,0-.87.78-1.92.28-2.89.4-.58.08-.66-.34-.35-.64,1.12-1.13,1-2.54,1-3.92V57.37c0-2.1,0-2.2-1.35-3.66M62.4,41.83a194.23,194.23,0,0,0,0,23.64,204.88,204.88,0,0,0,0-23.64"/><path class="cls-2" d="M69.62,70a3.11,3.11,0,0,0,3.55-2.42,9.22,9.22,0,0,0,.19-2.22c0-4.07,0-8.14,0-12.21a2.4,2.4,0,0,0-1-2.19c0-.05,0-.13.07-.13.9-.09,1-.65,1-1.43,0-3.55,0-7.11,0-10.66a3,3,0,0,0-.68-2.37c-.35-.36-.16-.62.33-.57.75.08,1.5.05,2.27.16a19.31,19.31,0,0,0,2.15-.16c.26,0,.64-.16.78.14s-.19.5-.38.7a1.74,1.74,0,0,0-.47,1.26c0,4.07,0,8.14,0,12.21,0,.36.14.49.47.55a.74.74,0,0,1,.6.27,2.74,2.74,0,0,0-1.07,2.66c0,3.81-.09,7.63,0,11.43a6.27,6.27,0,0,1-6.11,6.37,6.13,6.13,0,0,1-4-.88,2.48,2.48,0,0,1-1.2-2.5,2.27,2.27,0,0,1,1.52-1.88,2.69,2.69,0,0,1,2.17,0,2,2,0,0,1,.45,3.46c-.15.12-.32.22-.58.41m5.74-9.11a141.26,141.26,0,0,0,0-17.7,143.19,143.19,0,0,0,0,17.7m.1-20.33a2.07,2.07,0,0,0-.13,1.67,3.64,3.64,0,0,0,.13-1.67m0,23a4.62,4.62,0,0,0-.16-2,2.78,2.78,0,0,0,.16,2"/><path class="cls-5" d="M89.13,31.57a9.8,9.8,0,0,1-6.34-2.25,3.38,3.38,0,0,1-1.22-3.73,3.1,3.1,0,0,1,2.7-2.32,3.48,3.48,0,0,1,2.43.58,3.42,3.42,0,0,0,4.1-.07,3.57,3.57,0,0,1,4.31,5.67,9.15,9.15,0,0,1-6,2.12m-.3-5.26a4.44,4.44,0,0,0,2.57-.76c.29-.21.47-.43.24-.76s-.5-.17-.74,0a3.36,3.36,0,0,1-2.94.49c-.67-.16-1.34-.35-2-.52-.31-.08-.65-.19-.77.23s.21.48.46.59a8.93,8.93,0,0,0,3.19.73"/><path class="cls-6" d="M42.84,17.11C57.39,3.73,81.66-3.81,105.78,2a68,68,0,0,1,29.42,14.9c.16.14.15.15.29.7C121.87,6.78,106.54.91,89.18.87S56.51,6.59,42.84,17.11"/><path class="cls-6" d="M135.25,90.84a70,70,0,0,1-42,16.71c-23,1.41-41.67-8.44-50.79-17.15.46,0,.73.3,1,.53a79.52,79.52,0,0,0,19.3,11,71.48,71.48,0,0,0,29.39,4.82,72.72,72.72,0,0,0,40.36-14.41l2.52-1.83a3.54,3.54,0,0,0,.19.33"/><path class="cls-6" d="M92.82,84.69c.39.39.83.1,1.24.09s.71-.18.75.25-.4.29-.66.35l-.41.08c.06.39.4.53.59.77s.32.41.11.6-.38,0-.52-.15-.43-.5-.65-.77c-.34.48-.07,1.28-.56,1.21s-.1-.77-.19-1.18c-.06-.26.17-.57-.16-.77-.06-.13-.16-.32-.29-.25s0,.18.11.26c0,.57-.5.23-.75.32-.08.33.39.74-.06.91s-.41-.41-.63-.63c-.24.15-.35.47-.68.46a.57.57,0,0,1,0-.64c.61-.75.11-1.34-.28-2.15v2.81c0,.54.57.61.85.92s.56.36.34.66-.49,0-.71-.17-.22-.23-.43-.17c-.15.32,0,.69-.07,1a.35.35,0,0,1-.27.34c-.21,0-.33-.15-.34-.33,0-.35,0-.71,0-1.07-.4,0-.54.31-.78.42a.34.34,0,0,1-.43,0,.29.29,0,0,1,.06-.41q.47-.4,1-.78a.44.44,0,0,0,.16-.55c-.17-.35-.15.15-.33.1a.87.87,0,0,1-.53-.46c-.31.2-.26.82-.7.64s0-.58,0-.88c-.27-.11-.59.14-.83-.26-.12-.21-.35,0-.34.26s.09.71.12,1.07,0,.53-.24.57-.34-.25-.37-.5,0-.34-.07-.6c-.41.14-.6.47-.86.68s-.32.21-.48.07-.08-.34,0-.48.48-.52.74-.78a1.34,1.34,0,0,0-.77-.21c-.2,0-.39-.1-.39-.3s.24-.31.45-.3.66.09,1,.12.44.07.56-.15-.23-.13-.28-.32a1,1,0,0,1,0-.58c-.34-.17-.81.36-1-.16-.1-.36.41-.38.63-.58-.07-.25-.57-.35-.34-.68s.53,0,.74.1c.7.51,1.17-.16,1.75-.4-.88,0-1.76,0-2.64,0-.43,0-.5.47-.77.69s-.38.82-.79.48.19-.58.33-.88a1.94,1.94,0,0,0,.15-.3H82.71a.33.33,0,0,1-.35-.24c0-.2.13-.33.33-.34.36,0,.72,0,1.11,0,0-.35-.27-.5-.4-.72s-.18-.36,0-.49a.3.3,0,0,1,.47.09c.82,1.71,2.37.94,3.65,1.06-.49-.27-.92-.79-1.59-.37-.24.14-.55.47-.81.13s.26-.43.34-.68c-.21-.24-.79-.22-.59-.66s.55,0,.84,0c.12-.27-.11-.66.32-.78.09.05.21.21.27.05s-.13-.23-.26-.29c-.38-.32-.77,0-1.16,0s-.71.21-.76-.23.36-.34.64-.37.32,0,.44-.15c-.1-.32-.42-.47-.62-.72s-.27-.37-.1-.55.37,0,.53.11.4.53.74.63c.2-.2.11-.45.15-.66s.13-.44.35-.44.28.26.26.47-.09.61-.11.92-.09.79.47.35c.21-.17.45,0,.69-.14a3.38,3.38,0,0,1-.11-.34c-.05-.19-.13-.43.13-.52s.36.09.42.26c.13.38.28.45.51.07,0,0,.11,0,.13-.08.15-.32.39.45.5,0s-.28-.5-.48-.72-1-.46-.65-.92.64.28,1,.39c0,0,.05,0,.15,0,0-.34,0-.69,0-1,0-.2.13-.38.32-.37s.3.18.3.38v1c.36.08.47-.17.65-.29s.38-.27.55-.06,0,.4-.18.58c-.33.33-.88.45-1,1V80.1c.4-.79.89-1.39.27-2.13-.17-.22-.06-.44,0-.65a1,1,0,0,1,.6.46c.32-.12.24-.8.71-.6s0,.54,0,.83c.23.18.67-.13.79.4,0,.18.32-.1.32-.26A7.33,7.33,0,0,0,92.44,77c0-.25,0-.52.22-.57s.33.23.37.47a1.71,1.71,0,0,0,.32.79c.21-.28.41-.58.64-.85s.32-.23.47-.08a.38.38,0,0,1,0,.5c-.21.28-.56.44-.68.8.22.2.5.12.74.17s.36.15.34.35-.21.28-.41.25l-1.06-.13c-.18,0-.37,0-.49.14s.16.22.23.33a.79.79,0,0,1,.07.52v.18l.17-.05c.26,0,.63-.28.75.05s-.42.41-.6.66c.1.25.57.36.34.67s-.54,0-.75-.11c-.7-.5-1.16.11-1.7.39.83,0,1.66,0,2.5,0a.68.68,0,0,0,.56-.34c.2-.26.42-.52.63-.78a.34.34,0,0,1,.47-.11c.14.11.1.33,0,.49l-.54.74h1.18c.19,0,.37.09.37.31s-.19.28-.38.28c-.35,0-.7,0-1.08,0,0,.34.28.48.42.69s.21.4,0,.54-.34,0-.47-.13c-.29-.35-.58-.71-.89-1.05,0,0-.14,0-.22,0-.85,0-1.71,0-2.57.06.57.25,1.08.84,1.78.3.2-.16.49-.35.68-.08s-.21.43-.38.69c.22.22.82.23.65.64s-.57,0-.89,0c-.16.22.23.74-.37.73l-.15-.07A1.59,1.59,0,0,0,91,82.86l1.58,1.62.22.21m-6,.32A.15.15,0,0,0,87,84.9c1,0,1.25-.6,1.39-1.51a7.88,7.88,0,0,0-1.44,1.45c-.1,0-.17.07-.13.18l-.16.09,0,.06a1.4,1.4,0,0,1,.1-.16m5.7-5.73a8.15,8.15,0,0,0-1.42,1.4c1.25-.24,1.31-.29,1.5-1.32,0-.06.07-.16.05-.17s-.1,0-.13.09m-5,3.68a1.21,1.21,0,0,0-1.17,1.4l1.33-1.25.16-.22c-.13-.08-.23,0-.32.07M90.75,80A8.73,8.73,0,0,0,92,78.69a1.23,1.23,0,0,0-1.42,1.2.21.21,0,0,0-.08.3l.21-.15m-2.86.64a.38.38,0,0,0,0,.1H88l-.09-.08a13.16,13.16,0,0,0-1.53-1.57c.12,1.23.34,1.43,1.55,1.56m.36-.53c.07,0,.1.2.19.12s0-.18-.06-.23c-.19-.76-.45-1.45-1.51-1.34a9.56,9.56,0,0,0,1.38,1.45m.7,1.17a.43.43,0,0,1,0-.11l-.06,0,.09.07c0,.07,0,.17,0,.22-.39.58.08.83.46.93s.59-.17.71-.55-.26-.41-.12-.66a1.24,1.24,0,0,0-1,.07m1.57,2c.28,1.33.45,1.52,1.47,1.51a9.12,9.12,0,0,0-1.47-1.51m-1.42.37c-.71,1.18-.71,1.27,0,2.06Zm0-6c-.69,1-.68,1.32,0,2.1Zm-2.34.73-.06-.06s0,.07,0,.11,0,0,0,0l.06-.1"/><path class="cls-6" d="M53.78,79.55q35.22,24.95,70.31.06c-1.51,3.06-13.91,9.62-22.36,11.66a53.85,53.85,0,0,1-25.46,0c-8.74-2.09-19.5-7.78-22.49-11.73"/><path class="cls-6" d="M124.35,31.07Q89,5.93,53.76,31a3.1,3.1,0,0,1,.3-.38,4.44,4.44,0,0,1,.44-.43A51.26,51.26,0,0,1,75.74,19.35a52,52,0,0,1,12.9-1.62A53.19,53.19,0,0,1,122.14,29a12.81,12.81,0,0,1,2.21,2.05"/><path class="cls-7" d="M87.89,12.87c.32.14.6.27.88.38s.35,0,.3.24a.53.53,0,0,1-.25.26.9.9,0,0,1-.88-.1,4.72,4.72,0,0,1-2.35-4.72A4.76,4.76,0,0,1,86,7a1.26,1.26,0,0,1,2.17-.21,6.32,6.32,0,0,1,.32,5.39,5.18,5.18,0,0,1-.62.69m0-2.79a8.63,8.63,0,0,0-.24-2.82c-.08-.22-.16-.46-.45-.47s-.41.21-.43.45A13.52,13.52,0,0,0,87,11.9c.06.25.2.52.52.47s.38-.33.39-.6c0-.56,0-1.13,0-1.69"/><path class="cls-7" d="M69.36,13.12c.45.92.39,1.85,1,2.51.19.19.07.32-.13.39s-.54.18-.81.25-.34,0-.39-.36a16.89,16.89,0,0,0-1.67-5.27c-.15-.29-.15-.42.14-.51a11.84,11.84,0,0,1,1.26-.35,1.36,1.36,0,0,1,1.56.57,1.65,1.65,0,0,1,.08,2c-.19.26-.34.44.09.61a1.45,1.45,0,0,1,.6.69l.77,1.24c.12.18.58.31.22.55s-.72.51-1-.07-.63-1.06-1-1.58a1,1,0,0,0-.78-.62m.45-1.3a2.24,2.24,0,0,0-.43-1.28.52.52,0,0,0-.68-.19c-.27.15,0,.37,0,.54A8.24,8.24,0,0,0,69,12c.09.2,0,.61.38.56s.4-.4.39-.73"/><path class="cls-7" d="M95.66,99c.24,1.26,0,2.59.64,3.76.07.12.11.28,0,.33a3.88,3.88,0,0,1-.83.13c-.17,0-.2-.16-.17-.28.28-1.45-.26-2.83-.38-4.25a2.09,2.09,0,0,0-.38-1.46c-.13-.13-.09-.33.1-.35.37,0,.81-.35,1.09.17s.66,1.22,1,1.82c.12.22.17.49.52.68A7.5,7.5,0,0,0,96.7,97c-.07-.1-.19-.22,0-.33a1.44,1.44,0,0,1,.82-.16c.15,0,.28.11.24.24-.36,1.16.16,2.27.23,3.41,0,.74.2,1.48.29,2.22,0,.19.12.45-.15.53s-.33-.18-.42-.35c-.61-1.1-1.21-2.21-1.81-3.31a1,1,0,0,0-.19-.22"/><path class="cls-7" d="M114.66,12.47a6.22,6.22,0,0,1-1.51,3.42,2.39,2.39,0,0,1-3,0,.21.21,0,0,1,0-.33c1-1.14,1.18-2.64,1.77-3.95.2-.44.55-.88.36-1.44,0-.16.08-.27.28-.26a2.44,2.44,0,0,1,2.16,2.53m-.83-.77c0-.36-.08-.72-.42-.8s-.33.32-.41.53c-.5,1.23-1,2.48-1.46,3.73-.08.22-.41.52,0,.73s.61-.05.79-.31a10.15,10.15,0,0,0,1.53-3.88"/><path class="cls-7" d="M59.44,16.66c1.14.2,1.68.65,1.81,1.5a2.5,2.5,0,0,1-2.19,2.29c-.16,0-.24-.1-.24-.25,0-1.18-.79-2.08-1.23-3.1A4.43,4.43,0,0,0,56.4,15c-.21-.15-.08-.33.11-.41A8.38,8.38,0,0,1,58,14,1.58,1.58,0,0,1,59.73,16a5.75,5.75,0,0,1-.29.62m.92,1.95a1.86,1.86,0,0,0-.87-1.37.51.51,0,0,0-.58,0c-.21.15,0,.32.05.47A11.71,11.71,0,0,0,59.55,19c.1.2.06.61.43.5s.41-.37.38-.84m-1.31-2.53a2.23,2.23,0,0,0-.73-1.39.5.5,0,0,0-.64,0c-.2.15,0,.32.06.47.17.4.36.79.56,1.17.09.18.07.53.4.43s.32-.37.35-.63"/><path class="cls-7" d="M122.08,93.54a2.58,2.58,0,0,1-1.93,2.28c-.21,0-.23-.11-.28-.27a16.33,16.33,0,0,0-2.74-5c-.15-.18-.17-.26,0-.42a2.33,2.33,0,0,1,3.38.12,5.79,5.79,0,0,1,1.56,3.26m-.77.5a7.25,7.25,0,0,0-1-2.3,5,5,0,0,0-1.15-1.52c-.24-.19-.52-.33-.77-.1s0,.42.15.6c.65,1.21,1.32,2.42,2,3.63.1.18.16.52.41.46s.4-.37.37-.77"/><path class="cls-7" d="M125.14,17.63a5.56,5.56,0,0,1-2.61,3.73,2.91,2.91,0,0,1-2.57-.8c-.08-.17,0-.23.12-.32a17,17,0,0,0,3-4.84c.09-.21.16-.27.38-.2a2.47,2.47,0,0,1,1.69,2.43m-.77-.63c0-.41,0-.63-.27-.75s-.27.1-.34.22q-1.22,2-2.42,3.92c-.24.38,0,.5.32.5a1,1,0,0,0,.76-.46,10.29,10.29,0,0,0,1.8-2.93,3.59,3.59,0,0,0,.15-.5"/><path class="cls-7" d="M66.28,16.05c0,.86-.13,1.5-.87,1.76a1.43,1.43,0,0,1-1.69-.59,6.94,6.94,0,0,1-1.54-3.94,1.42,1.42,0,0,1,.81-1.6,1.46,1.46,0,0,1,1.75.61,7.74,7.74,0,0,1,1.54,3.76m-.78.79a15.28,15.28,0,0,0-1.76-4.5.46.46,0,0,0-.53-.22c-.27.1-.27.35-.24.59A11.51,11.51,0,0,0,63.66,15a8,8,0,0,0,1,2.09.52.52,0,0,0,.59.28c.23-.07.26-.29.28-.52"/><path class="cls-7" d="M92.8,100.89a3.85,3.85,0,0,1-.41,2.09,1.23,1.23,0,0,1-2.2.1,5.89,5.89,0,0,1-.35-5.19A1.18,1.18,0,0,1,91,97.1a1.35,1.35,0,0,1,1.22.81,6.11,6.11,0,0,1,.6,3m-1.06,0a8.94,8.94,0,0,0-.27-2.63c-.08-.28-.14-.67-.54-.6s-.41.42-.42.73c0,.67,0,1.33,0,2a20.54,20.54,0,0,0,.21,2.06c0,.33.12.81.57.78s.44-.49.45-.85,0-.87,0-1.49"/><path class="cls-7" d="M75.35,100a6.94,6.94,0,0,1,1.07-3.65,1.4,1.4,0,0,1,1.5-.72,1.32,1.32,0,0,1,1,1.27,6.81,6.81,0,0,1-1,4.36,1.36,1.36,0,0,1-1.53.78c-.78-.18-1-.78-1.1-1.5a4.86,4.86,0,0,1,0-.54m2.81-3c-.06-.36.14-.79-.34-.94-.27-.08-.44.13-.52.36A15.56,15.56,0,0,0,76.18,101c0,.27,0,.61.39.65s.44-.22.54-.46a18.25,18.25,0,0,0,1-4.06"/><path class="cls-7" d="M126.87,91.53A1.23,1.23,0,0,1,125,92.72a5.8,5.8,0,0,1-2.84-4.34A1.23,1.23,0,0,1,124,87.14a6.36,6.36,0,0,1,2.91,4.39m-3.66-4c-.36,0-.54.33-.33.76a15.78,15.78,0,0,0,2.41,3.75c.18.2.42.43.73.24s.19-.5.07-.75A16.11,16.11,0,0,0,123.82,88a1.37,1.37,0,0,0-.61-.43"/><path class="cls-7" d="M77.75,14c-.19.06-.3,0-.28-.28.17-1.62-.48-3.12-.68-4.68,0-.28,0-.59-.23-.8-.42-.41-.18-.54.23-.61l1.45-.26a.8.8,0,0,1,1,1.07.22.22,0,0,1-.12.16c-.11.06-.18,0-.24-.12s-.14-.27-.23-.39c-.22-.28-.51-.21-.78-.12s-.19.33-.16.52c.08.46.18.91.27,1.36,0,.14,0,.34.2.36s.3-.14.33-.33,0-.34.24-.34.21.25.26.4a1.38,1.38,0,0,1,.08.45c0,.28.3.61,0,.8s-.36-.26-.56-.37-.42-.08-.36.23c.11.66.25,1.31.37,2,0,.23.16.31.38.25s.58-.12.68-.51-.1-.78.31-.75.24.55.34.84.07.72-.49.78-1.32.24-2,.37"/><path class="cls-7" d="M93.05,6.44a29,29,0,0,0-.37,5.1c0,.34.1.69.54.71s.58-.33.6-.67c.07-1.15.12-2.31.14-3.46,0-.45.22-.93-.13-1.35a.2.2,0,0,1,.06-.32,1.24,1.24,0,0,1,.83,0,.22.22,0,0,1,.11.32c-.48,1.21-.21,2.49-.33,3.73,0,.41,0,.83-.1,1.23a1.34,1.34,0,0,1-2.66-.2c0-1.13.06-2.26.09-3.39,0-.26,0-.51,0-.77,0-1.16,0-1.16,1.19-.93"/><path class="cls-7" d="M126.63,24.22l.43-.24c.19-.1.37-.41.59-.15s-.13.4-.24.57c-.54.81-.55.8-1.35.22-.47-.35-1.18-.62-1.36-1.08s.66-.75,1-1.22c.62-1,1.37-1.92,2.07-2.88.06-.08.1-.2.18-.24.35-.17-.06-.87.49-.78.32,0,.6.37.89.58l.5.36c.78.57.79.61.15,1.32-.1.11-.17.29-.36.21s-.09-.26,0-.4a1.63,1.63,0,0,0,.08-.37c0-.3-.24-.44-.45-.58s-.36.08-.47.24c-.28.37-.56.74-.82,1.12-.09.13-.31.26-.12.45s.28.08.43,0,.32-.26.47-.05-.08.32-.17.46a3,3,0,0,1-.36.5c-.15.15-.2.5-.49.41s-.11-.35-.08-.54a.27.27,0,0,0-.15-.31c-.16-.08-.23.05-.31.15-.33.45-.67.9-1,1.37-.1.15-.35.29-.16.52a1,1,0,0,0,.71.36"/><path class="cls-7" d="M106,100.59c-.11-.4-.22-1-.41-1.48-.45-1.22-.44-2.58-1.25-3.68-.16-.22.05-.31.24-.36.66-.19,1.33-.37,2-.58.28-.09.4.06.42.28s.39.69.13,1c-.14.17-.31-.09-.39-.24a.62.62,0,0,0-.91-.27c-.38.18-.13.49-.08.74a7.66,7.66,0,0,0,.23.82c.07.23,0,.61.29.66s.3-.31.35-.55a.2.2,0,0,1,.21-.18.24.24,0,0,1,.22.18c.07.27.15.54.23.82s.23.49,0,.64-.33-.14-.46-.28a.3.3,0,0,0-.35-.09c-.19.1-.09.27,0,.41.14.52.28,1,.43,1.56.07.23.06.54.46.46a.71.71,0,0,0,.65-.55c.07-.27-.17-.77.25-.78s.26.54.4.82c.26.52,0,.72-.47.82s-1.09.3-1.64.45-.54.13-.51-.63"/><path class="cls-7" d="M101.53,95.85c.17.07.46-.27.58,0a6.67,6.67,0,0,1,.27,1.27s-.08.13-.14.14-.22-.08-.29-.19c-.23-.38-.39-1-1-.74s-.32.81-.26,1.25a12.43,12.43,0,0,0,.89,3.65c.14.29.28.68.71.52s.22-.52.15-.8a8.13,8.13,0,0,0-.25-.88c-.08-.19-.57-.22-.34-.47a1.71,1.71,0,0,1,.94-.26c.35,0,.28.3.33.5a4.51,4.51,0,0,0,.29,1.19c.33.57,0,.78-.4,1a1.61,1.61,0,0,1-2.29-.53A5.78,5.78,0,0,1,100,97c.18-.74.59-1.33,1.56-1.18"/><path class="cls-7" d="M61.87,90.64c.1-.43-.19-.6-.5-.75s-.4.21-.51.38a9.53,9.53,0,0,0-.6,1.08c-.07.14-.29.29-.09.47s.33.06.48-.06.25-.22.4-.08,0,.28-.06.4a4.47,4.47,0,0,1-.33.61c-.12.18-.13.52-.43.47s-.13-.33-.14-.52,0-.27-.18-.31-.25.12-.32.25c-.26.47-.53.94-.77,1.42-.09.18-.36.39-.08.59s.58.39.92.12c.14-.11.25-.25.39-.36a.26.26,0,0,1,.35,0c.15.11.06.23,0,.33a5.28,5.28,0,0,0-.33.62c-.17.47-.42.48-.81.24-.55-.33-1.13-.62-1.69-.93-.16-.1-.47-.23-.18-.44.78-.56,1-1.48,1.45-2.23a7.54,7.54,0,0,0,1.21-2.31c.22-1.15.66-.63,1.17-.36a4.51,4.51,0,0,0,.81.43c.74.23.65.64.29,1.12-.11.15-.13.47-.4.39s-.08-.34-.06-.52"/><path class="cls-7" d="M119.52,13.26c-.21.77-.47,1.56-.63,2.36-.24,1.17-.87,2.25-.76,3.5,0,.22-.18.28-.39.18l-.76-.38c-.36-.17-.43-.28,0-.56s.55-1,.14-1.22c-.63-.38-1.08-.11-1.12.69,0,.18,0,.43-.18.42a1.08,1.08,0,0,1-.81-.4c-.17-.24.11-.32.28-.44a2.71,2.71,0,0,0,.53-.54c.91-1.24,2-2.37,2.77-3.69.21-.34.48-.23.75-.24s.28.1.22.32M118,15.12,117.9,15c-.28.35-.56.7-.83,1.06-.08.11-.25.24-.07.38a1,1,0,0,0,.46.23c.18,0,.21-.2.24-.34.12-.41.22-.82.33-1.24"/><path class="cls-7" d="M98.05,11.45c-.47,0-.74.45-.56,1,0,.16.22.35,0,.45a1,1,0,0,1-.89-.09c-.26-.15,0-.32.09-.5a31.62,31.62,0,0,0,1.69-4.94.7.7,0,0,1,.73-.61c.4,0,.24.38.26.59.13,1.54.24,3.08.35,4.62,0,.12,0,.25,0,.38.14,1,.14.95-.83.8-.44-.07-.62-.09-.26-.58a.7.7,0,0,0-.6-1.16m.49-2.3h-.11c-.16.45-.31.91-.47,1.35s0,.41.31.46.44,0,.41-.35c-.05-.48-.1-1-.14-1.45"/><path class="cls-7" d="M55,22.59c-.15.28-.47.34-.74.47a.21.21,0,0,1-.31-.21,6,6,0,0,0-.56-2.37,17.57,17.57,0,0,0-1-3c-.19-.4.11-.6.3-.78s.39.14.51.28c1,1.18,2,2.37,3,3.55.1.12.19.25.3.36.69.7.68.69-.27,1.15-.36.17-.54.2-.49-.28a.84.84,0,0,0-.61-.88.71.71,0,0,0-.8.45.79.79,0,0,0,.44,1,.36.36,0,0,1,.25.3M53.5,19c.16.57.29,1,.42,1.44.07.22.15.38.41.2s.49-.18.24-.49A5.11,5.11,0,0,0,53.5,19"/><path class="cls-7" d="M115,97.61l-.84-3.82a5.7,5.7,0,0,0-.34-1.26c-.24-.46.11-.64.33-.81s.37.16.49.31c.91,1.28,1.8,2.56,2.7,3.84a2,2,0,0,1,.26.38c.12.26.69.25.53.55s-.72.44-1.13.58-.27-.12-.26-.37c0-.68-.42-1.08-.91-.87a.69.69,0,0,0-.21,1.24c.13.13.46.19.3.43a1,1,0,0,1-.81.37c-.36,0-.16-.35-.11-.57M114.89,94l-.12.07c.1.47.23.93.3,1.4s.21.33.46.22.45-.16.22-.47-.57-.81-.86-1.22"/><path class="cls-7" d="M70.28,99.63c.09.21.21.43,0,.5a1,1,0,0,1-.85-.25c-.23-.2,0-.34.18-.47a3.42,3.42,0,0,0,.71-1.09,36.62,36.62,0,0,0,2-3.64c.15-.37.48-.27.73-.25s.19.36.17.55c-.16,1.45-.35,2.9-.53,4.35a3.85,3.85,0,0,1-.09.76c-.1.28.4.7,0,.79a2.21,2.21,0,0,1-1.22-.36c-.28-.16,0-.3.15-.45.37-.38.33-1-.06-1.2-.22-.09-.5-.3-.71-.07a1,1,0,0,0-.38.83m1.66-3a6.85,6.85,0,0,0-.76,1.21c-.17.24-.16.39.17.49s.46.1.5-.28a5.35,5.35,0,0,0,.09-1.44l0,0,0,.06"/><path class="cls-7" d="M57.84,88.65c0-.09,0-.21,0-.34,0-.34-.21-.51-.47-.63s-.38.17-.49.34c-.26.38-.5.77-.74,1.17-.08.14-.28.28-.07.47a.35.35,0,0,0,.43,0c.14-.08.3-.24.47,0s-.06.32-.13.47a5.69,5.69,0,0,1-.33.52c-.09.14-.15.38-.36.35s-.19-.27-.18-.45a.32.32,0,0,0-.26-.4c-.2,0-.27.15-.32.28-.31.66-1,1.14-1,2,0,.23-.19.31-.39.19s-.52-.33-.78-.5-.17-.24,0-.41a15.24,15.24,0,0,0,3-4.87c.1-.26.25-.23.42-.12.61.38,1.21.77,1.84,1.13.28.16.18.35,0,.5s-.25.72-.67.78c-.17,0-.2-.19-.1-.39"/><path class="cls-7" d="M51.74,23.84c0,.74-1,1.71-1.64,1.65A3.44,3.44,0,0,1,49.21,24c.08-.2.21-.2.35-.06s.24.27.37.39c.31.27.67.48,1,.15s.21-.71,0-1.06a2.32,2.32,0,0,0-1.57-.88,2.82,2.82,0,0,1-1.8-.95c-.88-1.3-.53-2.05.9-2.53.32-.11.37.21.47.39s.47.5.4.87c0,.1-.17.12-.26.06l-.25-.19c-.33-.23-.71-.76-1.07-.17s.16.89.58,1.08,1.17.37,1.75.59a2.38,2.38,0,0,1,1.64,2.12"/><path class="cls-7" d="M85.36,101c0,.44,0,.88.07,1.31,0,.27.12.58.46.64s.52-.24.67-.52,0-.64.44-.44.08.45,0,.68a1.17,1.17,0,0,1-1.06.87,1.31,1.31,0,0,1-1.18-.74,6.13,6.13,0,0,1,.51-5.37,1.7,1.7,0,0,1,2.09-.2,2.38,2.38,0,0,1-.1,1.47c-.26.14-.3-.08-.36-.24-.14-.39-.07-1-.66-1s-.5.71-.59,1.13a12.56,12.56,0,0,0-.27,2.37"/><path class="cls-7" d="M104.85,13.06a5.44,5.44,0,0,0-.13.63c0,.46-.24.6-.72.46s-1.15-.26-1.72-.4c-.2,0-.47-.11-.29-.39.84-1.24.75-2.73,1.15-4.09a2.09,2.09,0,0,0,.14-1.5c-.1-.23.08-.34.3-.3s.6.13.9.21.28.17.16.39c-.85,1.56-.85,3.35-1.32,5,0,.14-.12.32.1.39a.63.63,0,0,0,.66-.07,2.62,2.62,0,0,0,.35-.5c.07-.11.15-.22.29-.19s.13.24.13.35"/><path class="cls-7" d="M110.93,99.74c-.25,0-.37-.12-.3-.27.27-.55-.1-1-.25-1.46-.31-1.05-.69-2.09-1-3.14-.07-.19-.1-.44-.24-.56-.72-.61-.13-.66.31-.82s.68-.29.74.47a12.41,12.41,0,0,0,.84,2.79c.18.57.36,1.13.58,1.68.06.18,0,.54.38.44a.65.65,0,0,0,.54-.58c0-.25-.2-.68.16-.72s.3.45.44.7c.3.52.11.77-.44.91s-1.17.38-1.72.56"/><path class="cls-7" d="M65.92,98.2c.49-.12.55-.45.66-.72.51-1.21,1-2.42,1.5-3.63,0-.11.08-.24.14-.35s-.2-.65.17-.74.71.23,1.07.37c.19.07.19.22.06.36-.88.92-1,2.19-1.59,3.27a11.4,11.4,0,0,1-.65,1.31,1.26,1.26,0,0,1-1.69.45.77.77,0,0,1-.44-1,.41.41,0,0,1,.54-.3c.53.14.25.56.23.94"/><path class="cls-7" d="M109.79,9.24a1.13,1.13,0,0,1-.07.22c-1,1.39-1,3.08-1.62,4.6-.06.16-.09.34-.14.51s.32.66-.15.68a3,3,0,0,1-1.16-.35c-.08,0-.05-.18,0-.27.86-1.23,1-2.73,1.45-4.09.16-.44.45-.89.22-1.41a.21.21,0,0,1,0-.2c.25-.21.49,0,.72.06s.46.17.68.25"/><path class="cls-7" d="M65.79,91.53a2.05,2.05,0,0,1-.15.26c-1.19,1.35-1.61,3.11-2.46,4.65a1,1,0,0,0,0,.45c0,.27-.1.4-.37.28s-.56-.26-.84-.4-.2-.24-.06-.41a15.19,15.19,0,0,0,2.47-5.1c.08-.26.15-.36.4-.24l1,.51"/><path class="cls-7" d="M72.62,93.65c-.16,0-.31.38-.47,0-.05-.08.08-.28.17-.4a.44.44,0,0,1,.54-.16c.4.16.59.85,1.22.44.08,0,.1.19,0,.3s-.28.47-.58.39a1.48,1.48,0,0,1-.49-.35c-.14-.11-.22-.29-.44-.26"/><path class="cls-8" d="M90.08,77.32c-.09.21-.2.43,0,.65.62.74.13,1.34-.27,2.13V77.28l.3,0"/><path class="cls-8" d="M89.78,86.26V83.45c.39.81.89,1.4.28,2.15a.57.57,0,0,0,0,.64l-.28,0"/><path class="cls-8" d="M92.18,85.18c-.08-.08-.25-.18-.11-.26s.23.12.29.25h-.18"/><path class="cls-8" d="M86,78.83c.13.06.31.16.26.29s-.18,0-.27-.05v-.24"/><path class="cls-8" d="M92.82,84.69l-.22-.21.08-.09.15.07a1.77,1.77,0,0,1,0,.23"/><path class="cls-9" d="M168.74,96.3l-.08.1c0-.1,0-.12.1-.08Z"/><path class="cls-9" d="M153.3,65.53c.06,0,.16,0,.09.12s-.12,0-.15-.06Z"/><path class="cls-9" d="M151.39,42.8s.11-.11.13-.11,0,.15,0,.22l-.12-.11"/><path class="cls-7" d="M115.51,41.74v1.44a1.11,1.11,0,0,1,0-1.44"/><path class="cls-7" d="M115.49,65.63c-.33-.58-.33-.76,0-1.46Z"/><path class="cls-10" d="M86.28,58.77a11.5,11.5,0,0,1,0-2.75,3.29,3.29,0,0,1,1.35-2.29c-.18-.09-.29-.19-.4-.19-.95,0-1.08-.53-1-1.34.09-1.06-.08-2.14.09-3.21a2.7,2.7,0,0,1,.5.18c.65.46,1,.32,1.26-.46.41-1.32.91-2.6,1.43-4,.43,1.22.82,2.3,1.19,3.38.51,1.5.5,1.5,2,1,0,1.23,0,2.46,0,3.69,0,.51-.14.74-.64.78a1,1,0,0,0-.73.3A3.24,3.24,0,0,1,92.67,57c0,.59,0,1.18,0,1.76-.18-.09-.36-.19-.55-.27-.88-.36-.87-.36-1.2.58-.44,1.25-.9,2.5-1.39,3.86a4.09,4.09,0,0,1-.24-.48c-.34-.94-.69-1.87-1-2.82-.53-1.52-.52-1.53-2-.85"/><path class="cls-11" d="M92.64,49c-1.47.55-1.46.55-2-1-.36-1.08-.75-2.16-1.18-3.38-.52,1.44-1,2.72-1.44,4-.24.78-.6.92-1.25.46a2.7,2.7,0,0,0-.5-.18,50,50,0,0,1,.2-7.93c.29-1.92,1.42-2.9,3.13-2.86a2.73,2.73,0,0,1,2.55,1.9,6.53,6.53,0,0,1,.45,2.34c0,2.19,0,4.37,0,6.56"/><path class="cls-11" d="M86.28,58.77c1.44-.68,1.43-.67,2,.85.33,1,.68,1.88,1,2.82a4.09,4.09,0,0,0,.24.48c.49-1.36,1-2.61,1.39-3.86.33-.94.32-.94,1.2-.58.19.08.37.18.55.27a64.25,64.25,0,0,1-.11,6.94,6.25,6.25,0,0,1-.37,1.49,2.86,2.86,0,0,1-5.36.08,9.76,9.76,0,0,1-.53-3.79c0-1.57,0-3.14,0-4.7"/><path class="cls-11" d="M83.59,49.18a44.22,44.22,0,0,1,.3-5.75,62.18,62.18,0,0,1,.28,6.68c-.12-.35-.15-.77-.58-.93"/><path class="cls-11" d="M94.73,50a41.08,41.08,0,0,1,.32-5.65A21.3,21.3,0,0,1,95.29,49l-.56.93"/><path class="cls-11" d="M84.16,58c.06,1.93-.15,3.85-.24,5.78a37,37,0,0,1-.32-5.16c.36-.05.22-.54.56-.62"/><path class="cls-10" d="M83.55,55a7.52,7.52,0,0,1,0-2.46l.67-.17a11.49,11.49,0,0,1,0,2.81L83.55,55"/><path class="cls-11" d="M95.3,58.6c0,.92,0,1.85,0,2.77,0,.76-.1,1.52-.19,2.28a47.36,47.36,0,0,1-.32-5.83l.56.78"/><path class="cls-11" d="M94.73,50l.56-.93a23.27,23.27,0,0,1,.11,3.54l-.7-.15,0-2.46"/><path class="cls-11" d="M83.55,55l.66.18,0,2.45v.17a.16.16,0,0,1,0,.13c-.33.07-.19.57-.55.62"/><path class="cls-11" d="M95.3,58.6l-.56-.78c0-.87,0-1.74,0-2.6l.66-.16L95.3,58.6"/><path class="cls-8" d="M95.39,55.06l-.66.15a21.8,21.8,0,0,1,0-2.8l.7.15c0,.83,0,1.67,0,2.5"/><path class="cls-11" d="M84.21,52.41l-.67.17c0-1.13,0-2.26,0-3.4.43.16.46.58.58.93,0,.77,0,1.53,0,2.3"/><path d="M84.18,57.84v-.17a.53.53,0,0,1,0,.12s0,0,0,.05"/><path class="cls-7" d="M75.47,40.56a3.78,3.78,0,0,1-.14,1.67,2,2,0,0,1,.14-1.67"/><path class="cls-7" d="M75.48,63.56a2.78,2.78,0,0,1-.16-2,4.62,4.62,0,0,1,.16,2"/><path class="cls-12" d="M88.83,26.31a8.93,8.93,0,0,1-3.19-.73c-.25-.11-.57-.22-.46-.59s.46-.31.77-.23c.67.17,1.34.36,2,.52a3.36,3.36,0,0,0,2.94-.49c.24-.17.5-.33.74,0s0,.55-.24.76a4.44,4.44,0,0,1-2.57.76"/><path class="cls-13" d="M89,81.32a1.24,1.24,0,0,1,1-.07c-.14.25.2.4.12.66s-.43.62-.71.55-.85-.35-.46-.93c0,0,0-.15,0-.22Z"/><path class="cls-8" d="M92.6,84.48,91,82.86a1.59,1.59,0,0,1,1.66,1.53l-.08.09"/><path class="cls-8" d="M88.25,80.15a9.56,9.56,0,0,1-1.38-1.45c1.06-.11,1.32.57,1.51,1.34l-.13.11"/><path class="cls-8" d="M90.52,83.32A9.12,9.12,0,0,1,92,84.83c-1,0-1.19-.18-1.47-1.51"/><path class="cls-8" d="M87.89,80.68c-1.21-.13-1.43-.33-1.55-1.56a13.16,13.16,0,0,1,1.53,1.57Z"/><path class="cls-12" d="M90.62,79.89A1.24,1.24,0,0,1,92,78.68,8.8,8.8,0,0,1,90.75,80l-.13-.15"/><path class="cls-12" d="M87.68,83.11l-1.33,1.25A1.21,1.21,0,0,1,87.52,83l.16.15"/><path class="cls-12" d="M86.93,84.84a7.88,7.88,0,0,1,1.44-1.45c-.14.91-.44,1.52-1.39,1.51l0-.06"/><path class="cls-12" d="M92.57,79.36c-.19,1-.25,1.08-1.5,1.32a8.15,8.15,0,0,1,1.42-1.4l.08.08"/><path class="cls-14" d="M89.1,83.69v2.06c-.71-.79-.71-.88,0-2.06"/><path class="cls-14" d="M89.11,77.7v2.1c-.68-.78-.69-1.08,0-2.1"/><path class="cls-12" d="M87.52,83c.09-.09.19-.15.32-.07l-.16.22L87.52,83"/><path class="cls-12" d="M90.75,80l-.21.15a.21.21,0,0,1,.08-.3l.13.15"/><path class="cls-8" d="M88.38,80c.09,0,.14.17.06.23s-.12-.07-.19-.12Z"/><path class="cls-12" d="M92.49,79.28c0-.06,0-.15.13-.09s0,.11-.05.17Z"/><path class="cls-12" d="M87,84.9a.15.15,0,0,1-.19.11h0c0-.11,0-.16.13-.18l0,.06"/><path class="cls-14" d="M93.34,79.82l-.17.05v-.18l.17.13"/><path class="cls-8" d="M86.77,78.43l-.06.1s0,0,0,0,0-.07,0-.11l.06.06"/><path class="cls-8" d="M87.87,80.69l.09.07-.08,0a.38.38,0,0,1,0-.1Z"/><path class="cls-13" d="M89,81.31l-.1-.07.07,0v.11Z"/><path class="cls-14" d="M86.79,85l-.1.16,0-.06L86.8,85h0"/><path class="cls-11" d="M87.86,10.08c0,.56,0,1.13,0,1.69,0,.27-.1.55-.39.6S87,12.15,87,11.9a13.52,13.52,0,0,1-.21-4.66c0-.24.14-.46.43-.45s.37.25.45.47a8.63,8.63,0,0,1,.24,2.82"/><path d="M69.76,11.78c0,.32,0,.68-.39.72s-.28-.35-.37-.56a6.88,6.88,0,0,1-.34-1.09c0-.18-.27-.4,0-.54a.51.51,0,0,1,.68.18,2.29,2.29,0,0,1,.43,1.29"/><path class="cls-11" d="M113.83,11.7a10.15,10.15,0,0,1-1.53,3.88c-.18.26-.47.49-.79.31s-.05-.51,0-.73c.47-1.25,1-2.5,1.46-3.73.08-.21.06-.62.41-.53s.39.44.42.8"/><path class="cls-11" d="M60.36,18.61c0,.47-.09.76-.38.84s-.33-.3-.43-.5A11.71,11.71,0,0,1,59,17.71c-.06-.15-.26-.32-.05-.47a.51.51,0,0,1,.58,0,1.84,1.84,0,0,1,.87,1.37"/><path class="cls-11" d="M59.05,16.08c0,.26-.08.55-.35.63s-.31-.25-.4-.43c-.2-.38-.39-.77-.56-1.17-.06-.15-.26-.32-.06-.47a.5.5,0,0,1,.64,0,2.23,2.23,0,0,1,.73,1.39"/><path class="cls-11" d="M121.31,94c0,.4-.08.7-.37.77s-.31-.28-.41-.46c-.67-1.21-1.34-2.42-2-3.63-.1-.18-.38-.39-.15-.6s.53-.09.77.1a5,5,0,0,1,1.15,1.52,7.25,7.25,0,0,1,1,2.3"/><path class="cls-11" d="M124.37,17a3.59,3.59,0,0,1-.15.5,10.29,10.29,0,0,1-1.8,2.93,1,1,0,0,1-.76.46c-.36,0-.56-.12-.32-.5q1.2-2,2.42-3.92c.07-.12.14-.31.34-.22s.29.34.27.75"/><path class="cls-11" d="M65.5,16.84c0,.23,0,.45-.28.52a.52.52,0,0,1-.59-.28,8,8,0,0,1-1-2.09A11.51,11.51,0,0,1,63,12.71c0-.24,0-.49.24-.59a.46.46,0,0,1,.53.22,15.28,15.28,0,0,1,1.76,4.5"/><path class="cls-11" d="M91.74,100.85c0,.62,0,1.06,0,1.49s0,.82-.45.85-.52-.45-.57-.78a20.54,20.54,0,0,1-.21-2.06c0-.67,0-1.33,0-2,0-.31,0-.68.42-.73s.46.32.54.6a8.94,8.94,0,0,1,.27,2.63"/><path class="cls-11" d="M78.16,97.09a18.25,18.25,0,0,1-1,4.06c-.1.24-.24.5-.54.46s-.42-.38-.39-.65a15.56,15.56,0,0,1,1.12-4.45c.08-.23.25-.44.52-.36.48.15.28.58.34.94"/><path class="cls-11" d="M123.21,87.54a1.37,1.37,0,0,1,.61.43,16.11,16.11,0,0,1,2.27,3.57c.12.25.27.55-.07.75s-.55,0-.73-.24a15.78,15.78,0,0,1-2.41-3.75c-.21-.43,0-.77.33-.76"/><path class="cls-11" d="M118,15.12c-.11.42-.21.83-.33,1.24,0,.14-.06.35-.24.34a1,1,0,0,1-.46-.23c-.18-.14,0-.27.07-.38.27-.36.55-.71.83-1.06l.13.09"/><path d="M98.54,9.15c0,.48.09,1,.14,1.45,0,.31-.11.41-.41.35s-.42-.15-.31-.46.31-.9.47-1.35h.11"/><path class="cls-11" d="M53.5,19a5.11,5.11,0,0,1,1.07,1.15c.25.31-.06.37-.24.49s-.34,0-.41-.2c-.13-.43-.26-.87-.42-1.44"/><path class="cls-11" d="M114.89,94c.29.41.56.82.86,1.22s0,.38-.22.47-.41.13-.46-.22-.2-.93-.3-1.4l.12-.07"/><path class="cls-11" d="M71.94,96.6A5.3,5.3,0,0,1,71.85,98c0,.38-.21.37-.5.28s-.33-.25-.17-.49a6.85,6.85,0,0,1,.76-1.21Z"/><path class="cls-13" d="M71.94,96.61l0-.06,0,0v0"/></g></g></svg>