<svg xmlns="http://www.w3.org/2000/svg" xmlns:xlink="http://www.w3.org/1999/xlink" viewBox="0 0 177.98 107.69"><defs><style>.cls-1{fill:none;}.cls-2{clip-path:url(#clip-path);}.cls-3{fill:#db9703;}.cls-4{fill:#db9806;}.cls-5{fill:#db9805;}.cls-6{fill:#db9704;}.cls-7{fill:#3e3d3e;}.cls-8{fill:#474647;}.cls-9{fill:#be8625;}.cls-10{fill:#fdfbf7;}.cls-11{fill:#cececf;}.cls-12{fill:#ebe3d3;}.cls-13{fill:#faf2e1;}</style><clipPath id="clip-path" transform="translate(0 -10.57)"><rect class="cls-1" width="240.95" height="155.91"/></clipPath></defs><title>Asset 1</title><g id="Layer_2" data-name="Layer 2"><g id="Layer_1-2" data-name="Layer 1"><g class="cls-2"><path class="cls-3" d="M170.78,66.21a2,2,0,0,1-2.15,1.12c-1.31,0-2.63,0-3.94,0-.48,0-.57-.15-.47-.59a2.36,2.36,0,0,1,.69-1.18,4.71,4.71,0,0,0,1.35-3.35,21.26,21.26,0,0,0-.63-6.88c-.62-2.08-1.71-3.74-4-4.29a5.33,5.33,0,0,0-6.49,3.24,15.46,15.46,0,0,0-1,6.13q0,4.37.07,8.72a12.27,12.27,0,0,0,.92,4.51,5.19,5.19,0,0,0,5.11,3.42,15.2,15.2,0,0,1,10.37,4.13c.4.36.58.43,1,0a5.43,5.43,0,0,1,6.35-.76,11.17,11.17,0,0,0-1.09.94,5.31,5.31,0,0,0-1.53,3.76c0,4.56,0,9.12,0,13.67a14.77,14.77,0,0,1-8.11,13.6c-9.1,5-20.85-1.14-22-11.41-.13-1.15-.17-2.31-.29-3.46a4,4,0,0,0-1.11-2.4c-.14-.15-.28-.31-.41-.47-.3-.4-.61-.89-.4-1.34s.7-.13,1.07-.14c1.21,0,2.42,0,3.63,0a1.8,1.8,0,0,1,1.84,1.14c.57-1.24,1.62-1.16,2.66-1.14s2.27,0,3.4,0c.62,0,.7.25.57.74a1.82,1.82,0,0,1-.5.86,5,5,0,0,0-1.54,3.82,20.91,20.91,0,0,0,.69,6.73c.65,2,1.78,3.58,4,4.09a5.35,5.35,0,0,0,6.4-3.17,15.46,15.46,0,0,0,1-6.35c0-3.24,0-6.48,0-9.73a13.06,13.06,0,0,0-1-5.26,5,5,0,0,0-4.89-3.24,15.13,15.13,0,0,1-15.24-15.42,60.06,60.06,0,0,1,.12-6.71A15.13,15.13,0,0,1,175,58.25a14.88,14.88,0,0,1,.37,3.52,5,5,0,0,0,1.43,3.86,2.83,2.83,0,0,1,.34.42,1.26,1.26,0,0,1,.28,1.15c-.13.28-.61.11-.93.11-1.21,0-2.43,0-3.64,0a2,2,0,0,1-2.06-1.12m-2,40.66a12.72,12.72,0,0,0,2.14-5.2,30.15,30.15,0,0,0,0-11.4,5.64,5.64,0,0,0-.77-2.08c.06,1,0,2,0,3,0,1.93,0,3.85-.09,5.78a51.92,51.92,0,0,1-.76,7.57,8.55,8.55,0,0,0-.49,2.39c-.1,0-.14,0-.1.08a.39.39,0,0,0,.08-.1m-15.5-30.71c0,.07.1.13.15.06s0-.1-.09-.12a15.49,15.49,0,0,1-2.75-6.54,38,38,0,0,1-.62-6.2c-.07-3.38.1-6.74,1.58-9.87.05-.08.11-.16,0-.22s-.09.07-.13.11a6.7,6.7,0,0,0-1.65,2.83,23.06,23.06,0,0,0-1,10,17.81,17.81,0,0,0,2,6.92,7.25,7.25,0,0,0,2.57,3" transform="translate(0 -10.57)"/><path class="cls-3" d="M6.49,113.16a1.68,1.68,0,0,1-1.7,1c-1.24,0-2.48,0-3.71,0-.67,0-.68-.3-.51-.74a2.43,2.43,0,0,1,.54-.83,4.33,4.33,0,0,0,1.25-3.23q0-12.24,0-24.49A4.6,4.6,0,0,0,.62,81.36L0,80.84a3.8,3.8,0,0,1,1.72-.54c.55,0,.66-.23.66-.74,0-4.09,0-8.19,0-12.28,0-5.2,0-10.4,0-15.6A5,5,0,0,0,1,47.8a1.52,1.52,0,0,1-.31-.44c-.4-.76-.26-1,.6-1,1.13,0,2.26,0,3.4,0A1.74,1.74,0,0,1,6.5,47.47c.38-1.06,1.19-1.11,2.08-1.11H30.69c.92,0,1,.2.6,1a1.78,1.78,0,0,1-.35.51,4.63,4.63,0,0,0-1.33,3.65c0,3.68,0,7.36,0,11.05,0,.73-.23.8-.89.76-5.27-.34-7.24-4.51-7.29-8.12,0-.74,0-1.49,0-2.24a2.37,2.37,0,0,0-2.53-2.5H13.05A2.36,2.36,0,0,0,10.54,53V76A2.44,2.44,0,0,0,13,78.66a2.43,2.43,0,0,0,2.71-2.48,4.78,4.78,0,0,1,4.84-4.55c.47,0,.56.13.56.55q0,8.46,0,16.92c0,.45-.08.63-.6.59a4.75,4.75,0,0,1-4.8-4.75A2.42,2.42,0,0,0,13,82.74a2.36,2.36,0,0,0-2.4,2.32c0,2.29,0,4.59,0,6.88,0,5.61,0,11.22,0,16.84a5.09,5.09,0,0,0,1.38,4,1.92,1.92,0,0,1,.32.43c.39.75.26,1-.59,1-1.13,0-2.27,0-3.4,0a1.64,1.64,0,0,1-1.75-1m0-8.91a457.84,457.84,0,0,0,0-48,455.13,455.13,0,0,0,0,48" transform="translate(0 -10.57)"/><path class="cls-4" d="M119.31,64.32c-1.43.92-1.45,2.29-1.44,3.72,0,3.58,0,7.16,0,10.73a3.13,3.13,0,0,0,.82,2.48.69.69,0,0,1,.25.69c-.09.26-.41.16-.62.14-.92-.13-1.92.36-2.74-.39h-.19c-.94.77-2,.24-3.06.39-.49.07-.43-.35-.48-.63q-.75-4-1.48-8-1.72-9.28-3.43-18.57a1.23,1.23,0,0,0-.26-.57q0,4.59,0,9.18c0,.29.12.39.4.43a1.74,1.74,0,0,1,1,.38c-1.32.86-1.43,2.19-1.41,3.6,0,3.53,0,7,0,10.58a3.42,3.42,0,0,0,.88,2.77.63.63,0,0,1,.21.64c-.1.27-.4.15-.62.15a6.06,6.06,0,0,1-2,0,2.72,2.72,0,0,0-1.76,0,10.32,10.32,0,0,1-2.16,0c-.48,0-.6-.28-.33-.55,1.35-1.36,1-3.07,1-4.68,0-3.14,0-6.28,0-9.42a3.34,3.34,0,0,0-1.39-3.1l.21-.15c.34-.23.94,0,1.09-.41a3.44,3.44,0,0,0,.07-1.37c0-4.27,0-8.54,0-12.82a3,3,0,0,0-.78-2.34c-.19-.19-.4-.48-.28-.75s.47-.15.7-.12c.91.12,1.91-.37,2.75.38.06.05.41-.32.63-.34.87-.05,1.75-.05,2.62,0,.37,0,.34.32.38.56l1.83,9.78q1.55,8.27,3.08,16.52c0,.12,0,.27.23.38v-2c0-1.31,0-2.63,0-3.94a3.34,3.34,0,0,0-1.41-3.34c.19-.11.3-.22.4-.23.94,0,1-.55,1-1.35,0-4.28,0-8.55,0-12.82a3.48,3.48,0,0,0-.86-2.78.64.64,0,0,1-.23-.63c.1-.27.41-.12.63-.15h.15c.92.1,1.91-.31,2.74.4.82-.72,1.81-.3,2.73-.39.24,0,.59-.15.71.12s-.09.54-.29.74a3,3,0,0,0-.77,2.27c0,4.45,0,8.91,0,13.36,0,.71.06,1.2.91,1.21.13,0,.27.12.53.24M104.22,76.06a185.61,185.61,0,0,0,0-23.82,205.75,205.75,0,0,0,0,23.82m11-22c-.2,6.9-.22,13.58,0,20.32.64-.92.69-19.12,0-20.32m-.15-1.75a1.11,1.11,0,0,0,0,1.44Zm0,24.32V74.75a1.2,1.2,0,0,0,0,1.45" transform="translate(0 -10.57)"/><path class="cls-5" d="M123,64.32l.25-.14c.34-.23.93,0,1.09-.4a3.25,3.25,0,0,0,.07-1.29c0-4.25,0-8.5,0-12.75a3.19,3.19,0,0,0-.83-2.55.63.63,0,0,1-.23-.69c.11-.26.41-.12.63-.13a7.47,7.47,0,0,1,1.77,0,8.15,8.15,0,0,0,2.15,0c4.32-.09,8.65,0,13,0,.19,0,.45-.1.56.13a.57.57,0,0,1-.19.63,3.32,3.32,0,0,0-.86,2.7c0,2,0,3.92,0,5.87,0,.53-.15.65-.67.59a4.49,4.49,0,0,1-4.16-4.63c0-.52,0-1,0-1.55a1.37,1.37,0,0,0-1.42-1.33q-1.74,0-3.48,0a1.39,1.39,0,0,0-1.46,1.46q0,5.64,0,11.28A1.38,1.38,0,0,0,130.64,63a1.43,1.43,0,0,0,1.58-1.43,2.72,2.72,0,0,1,2.62-2.63c.46,0,.51.1.51.48q0,4.8,0,9.58c0,.43-.15.52-.54.49A2.74,2.74,0,0,1,132.23,67c-.13-1-.49-1.46-1.19-1.58a1.48,1.48,0,0,0-1.85,1.6c0,3.65,0,7.31,0,11a1.43,1.43,0,0,0,1.6,1.64c1.08,0,2.16,0,3.24,0a1.4,1.4,0,0,0,1.53-1.55,9.2,9.2,0,0,1,.27-2.91,4.3,4.3,0,0,1,3.85-3.08c.52,0,.72.06.71.64,0,2,0,4,0,6a3.18,3.18,0,0,0,.81,2.49.61.61,0,0,1,.23.69c-.12.26-.41.13-.63.13-4.25,0-8.5,0-12.75,0a2,2,0,0,1-1.3-.5,1.26,1.26,0,0,1-1.22.49c-.59,0-1.18,0-1.78,0s-.6-.27-.33-.55c1.39-1.41.95-3.17,1-4.83,0-3,0-6.08,0-9.12A3.43,3.43,0,0,0,123,64.32m3.8-12.07a203.67,203.67,0,0,0,0,23.44,185.18,185.18,0,0,0,0-23.44" transform="translate(0 -10.57)"/><path class="cls-6" d="M36.56,64.33c.12-.07.15-.11.2-.13.38-.12,1-.14,1.1-.39A3.41,3.41,0,0,0,38,62.37c0-4.17,0-8.34,0-12.51a3.33,3.33,0,0,0-.86-2.7.6.6,0,0,1-.22-.63c.1-.29.4-.15.61-.16a6.74,6.74,0,0,1,1.62,0,11.89,11.89,0,0,0,2.53,0c4.22-.09,8.45,0,12.67,0,.22,0,.51-.11.65.12a.57.57,0,0,1-.21.69,3.35,3.35,0,0,0-.86,2.63c0,1.93,0,3.86,0,5.79,0,.67-.21.75-.8.66a4.45,4.45,0,0,1-4-4.56c0-.51,0-1,0-1.54a1.37,1.37,0,0,0-1.46-1.38c-1.15,0-2.31,0-3.47,0a1.38,1.38,0,0,0-1.42,1.42c0,3.79,0,7.57,0,11.36A1.36,1.36,0,0,0,44.08,63a1.41,1.41,0,0,0,1.65-1.16c.05-.2,0-.41.08-.61a2.65,2.65,0,0,1,1.45-2c1.32-.65,1.65-.45,1.65,1,0,2.86,0,5.71,0,8.57,0,.7-.25.76-.81.65A2.7,2.7,0,0,1,45.8,67c-.16-1.15-.67-1.63-1.69-1.56s-1.36.65-1.36,1.79V77.89c0,1.28.48,1.75,1.78,1.76h2.94c1.13,0,1.64-.52,1.66-1.66a9.5,9.5,0,0,1,.24-2.76,4.33,4.33,0,0,1,3.9-3.12c.46,0,.63.07.63.57,0,1.9,0,3.81,0,5.71a3.7,3.7,0,0,0,.92,2.93A.55.55,0,0,1,55,82c-.11.22-.37.13-.56.13H41.5a1.47,1.47,0,0,1-1.16-.5,1.33,1.33,0,0,1-1.14.5c-.62,0-1.24,0-1.86,0s-.68-.25-.36-.58c1.26-1.27,1-2.86,1-4.38,0-3.27,0-6.54,0-9.81a3.3,3.3,0,0,0-1.41-3m3.8-11a167.47,167.47,0,0,0,0,21.72,171.1,171.1,0,0,0,0-21.72" transform="translate(0 -10.57)"/><path class="cls-3" d="M80.08,64.32c.2-.11.29-.21.38-.21,1,0,1.08-.6,1.07-1.45,0-2.8,0-5.6,0-8.41a8,8,0,0,1,15.93,0c0,2.88,0,5.76,0,8.65,0,.65,0,1.16.85,1.14a2,2,0,0,1,.6.23c-1.38.93-1.49,2.27-1.46,3.72.06,2,0,4,0,6A8,8,0,0,1,81.58,75.4a20.6,20.6,0,0,1-.07-3.24c0-1.52,0-3,0-4.55a3.51,3.51,0,0,0-1.44-3.29m15.31,1.31c0-.83,0-1.66,0-2.5a23.27,23.27,0,0,0-.11-3.54,21.33,21.33,0,0,0-.24-4.72,41.08,41.08,0,0,0-.32,5.65l0,2.46a22,22,0,0,0,0,2.81c0,.87,0,1.74,0,2.61a47.2,47.2,0,0,0,.32,5.82c.08-.76.16-1.52.19-2.28,0-.92,0-1.85,0-2.77l.09-3.54M84.06,68.41s0,0,0,0a.28.28,0,0,0,0-.12l0-2.45a12.64,12.64,0,0,0,.06-2.13L84.05,61a59.82,59.82,0,0,0-.27-7,41.08,41.08,0,0,0-.28,6.27l-.08,3a7.25,7.25,0,0,0,0,2.37l.06,3.54a35.79,35.79,0,0,0,.31,5.17c.1-1.93.31-3.85.24-5.78a.14.14,0,0,0,0-.14m2.23-8.85c-.18,1.07,0,2.15-.09,3.22-.08.8.06,1.34,1,1.33.11,0,.22.11.39.2a3.29,3.29,0,0,0-1.34,2.28,11.5,11.5,0,0,0,0,2.75c0,1.57,0,3.14,0,4.71a9.79,9.79,0,0,0,.53,3.79,2.79,2.79,0,0,0,2.7,1.81,2.82,2.82,0,0,0,2.66-1.89,6.33,6.33,0,0,0,.37-1.5,64.06,64.06,0,0,0,.11-6.93c0-.59,0-1.18,0-1.77a3.22,3.22,0,0,0-1.36-3.21A1,1,0,0,1,92,64c.51,0,.67-.26.65-.78-.05-1.23,0-2.46,0-3.69,0-2.18,0-4.37,0-6.56a6.57,6.57,0,0,0-.45-2.34,2.7,2.7,0,0,0-2.55-1.89c-1.71,0-2.84.93-3.13,2.85a50,50,0,0,0-.2,7.93" transform="translate(0 -10.57)"/><path class="cls-6" d="M58.69,64.28l.19-.12c.35-.21.95,0,1.1-.38A3.65,3.65,0,0,0,60,62.41V50.06a3.63,3.63,0,0,0-.9-2.92A.54.54,0,0,1,59,46.5c.12-.23.37-.13.56-.13a6.79,6.79,0,0,1,2.07.05,2.67,2.67,0,0,0,1.63,0,8.81,8.81,0,0,1,2.3-.05c.49,0,.47.33.26.54-1.36,1.35-1,3.06-1,4.68,0,3.8,0,7.61,0,11.42,0,.62.06,1,.8,1a.79.79,0,0,1,.58.29c-1.21.82-1.4,2-1.38,3.39,0,3.68,0,7.36,0,11a3.14,3.14,0,0,0,.82,2.48c.19.17.37.43.25.68s-.47.17-.69.14c-.91-.11-1.92.38-2.73-.41,0,0-.11,0-.14,0-.87.78-1.92.28-2.89.41-.58.07-.66-.35-.35-.65,1.12-1.13,1-2.54,1-3.92V67.94c0-2.1,0-2.2-1.35-3.66M62.4,52.4a194.22,194.22,0,0,0,0,23.64,204.88,204.88,0,0,0,0-23.64" transform="translate(0 -10.57)"/><path class="cls-4" d="M69.62,80.57a3.09,3.09,0,0,0,3.55-2.42,9.17,9.17,0,0,0,.19-2.22c0-4.07,0-8.14,0-12.2a2.38,2.38,0,0,0-1-2.19c0-.06,0-.13.07-.14.9-.09,1-.65,1-1.43,0-3.55,0-7.11,0-10.66a3,3,0,0,0-.68-2.37c-.35-.36-.16-.62.33-.57.75.08,1.5.05,2.27.17.61.09,1.41-.18,2.15-.17.26,0,.64-.15.78.14s-.19.5-.38.7a1.76,1.76,0,0,0-.47,1.27c0,4.07,0,8.13,0,12.2,0,.37.14.49.47.55a.75.75,0,0,1,.6.28,2.73,2.73,0,0,0-1.07,2.66c0,3.81-.09,7.62,0,11.43A6.25,6.25,0,0,1,71.26,82a6.13,6.13,0,0,1-4-.88,2.47,2.47,0,0,1-1.2-2.5,2.27,2.27,0,0,1,1.52-1.88,2.73,2.73,0,0,1,2.17,0,2,2,0,0,1,.45,3.46c-.15.12-.32.23-.58.41m5.74-9.11a141.26,141.26,0,0,0,0-17.7,143.19,143.19,0,0,0,0,17.7m.1-20.33a2.09,2.09,0,0,0-.13,1.68,3.69,3.69,0,0,0,.13-1.68m0,23a4.63,4.63,0,0,0-.16-2,2.77,2.77,0,0,0,.16,2" transform="translate(0 -10.57)"/><path class="cls-7" d="M89.13,42.14a9.69,9.69,0,0,1-6.34-2.25,3.38,3.38,0,0,1-1.22-3.73,3.1,3.1,0,0,1,2.7-2.32,3.48,3.48,0,0,1,2.43.58,3.41,3.41,0,0,0,4.1-.07A3.57,3.57,0,0,1,95.11,40a9.15,9.15,0,0,1-6,2.12m-.3-5.26a4.36,4.36,0,0,0,2.57-.76c.29-.21.47-.43.24-.76s-.5-.17-.74,0a3.35,3.35,0,0,1-2.94.48c-.67-.16-1.34-.35-2-.52-.31-.08-.65-.18-.77.23s.21.48.46.59a8.72,8.72,0,0,0,3.19.73" transform="translate(0 -10.57)"/><path class="cls-8" d="M42.84,27.68C57.39,14.3,81.66,6.76,105.78,12.54A67.88,67.88,0,0,1,135.2,27.43c.16.15.15.15.29.7-13.62-10.78-28.95-16.65-46.31-16.69S56.51,17.17,42.84,27.68" transform="translate(0 -10.57)"/><path class="cls-8" d="M135.25,101.42a70.11,70.11,0,0,1-42,16.71c-23,1.4-41.67-8.44-50.79-17.16.46,0,.73.3,1,.53a79.52,79.52,0,0,0,19.3,11,71.65,71.65,0,0,0,29.39,4.83,72.73,72.73,0,0,0,40.36-14.42l2.52-1.82c.06.11.12.22.19.33" transform="translate(0 -10.57)"/><path class="cls-8" d="M93.11,95.26c.38.39.82.1,1.23.09s.71-.18.75.25-.4.29-.66.35L94,96c.06.38.4.52.6.76s.31.41.11.6-.39,0-.53-.15-.43-.5-.65-.77c-.33.48-.07,1.28-.55,1.21-.65-.09-.11-.77-.2-1.18-.06-.25.17-.57-.16-.77-.06-.13-.16-.32-.29-.24s0,.18.11.25c0,.57-.5.24-.75.33-.08.32.39.73-.06.9s-.41-.4-.63-.63c-.24.15-.35.47-.68.46a.57.57,0,0,1,0-.64c.61-.74.11-1.34-.28-2.15v2.81c0,.54.57.61.85.92s.57.36.34.66-.49,0-.71-.17-.22-.22-.43-.17c-.15.32,0,.69-.07,1a.35.35,0,0,1-.27.34c-.21,0-.33-.15-.34-.33,0-.35,0-.7,0-1.07-.4,0-.54.31-.78.43s-.32.09-.43,0a.3.3,0,0,1,.06-.42q.47-.4,1-.78a.44.44,0,0,0,.16-.55c-.17-.35-.15.15-.32.11a.93.93,0,0,1-.54-.47c-.31.2-.25.83-.7.64s0-.58,0-.88c-.27-.11-.59.14-.82-.26-.13-.21-.36,0-.35.26s.09.72.12,1.07,0,.53-.24.57-.34-.25-.36-.49,0-.35-.08-.61c-.41.14-.6.47-.85.68s-.33.21-.49.07-.08-.34,0-.48.49-.52.74-.78a1.34,1.34,0,0,0-.77-.21c-.2,0-.38-.1-.39-.3s.24-.31.45-.3.66.09,1,.12.44.08.56-.15-.22-.13-.28-.32a1.14,1.14,0,0,1,0-.58c-.34-.17-.81.36-1-.16-.1-.36.41-.37.63-.58-.07-.25-.57-.34-.34-.68s.53,0,.74.1c.7.51,1.17-.16,1.75-.4H85.25c-.44,0-.51.47-.78.69s-.38.82-.78.49.18-.59.33-.88l.14-.31H83a.33.33,0,0,1-.35-.24c0-.2.13-.33.33-.34.36,0,.72,0,1.11,0,0-.36-.27-.5-.4-.73s-.18-.36,0-.49a.3.3,0,0,1,.47.09c.82,1.71,2.36,1,3.64,1.07-.49-.28-.91-.8-1.59-.38-.24.15-.55.47-.81.13s.26-.43.34-.68c-.21-.24-.79-.22-.59-.66s.55,0,.84,0c.12-.26-.11-.66.32-.78.09,0,.21.21.27,0s-.13-.23-.26-.29c-.38-.31-.77,0-1.16,0s-.71.22-.76-.22.36-.34.64-.38.32,0,.44-.14c-.1-.33-.42-.48-.62-.73s-.27-.37-.1-.55.37,0,.53.11.4.53.75.63c.19-.2.1-.44.14-.66s.13-.44.36-.43.27.25.25.46-.09.61-.11.92-.09.79.47.35c.21-.17.45,0,.69-.14a3.38,3.38,0,0,1-.11-.34c0-.19-.13-.43.13-.52s.36.09.42.26c.13.38.28.45.51.08,0,0,.11,0,.13-.08.15-.33.39.44.5,0s-.28-.5-.48-.72-1-.45-.65-.92.64.28,1,.4l.15,0c0-.34,0-.69,0-1s.13-.38.32-.37.3.18.3.38v1c.36.08.47-.16.65-.28s.38-.27.55-.07,0,.41-.18.58c-.33.33-.88.45-1,1v2.82c.4-.8.89-1.4.27-2.14-.17-.21-.06-.43,0-.65a1,1,0,0,1,.6.47c.32-.13.24-.81.71-.61s0,.55,0,.84c.23.17.67-.14.79.39,0,.18.32-.09.33-.26a8.93,8.93,0,0,0-.1-1.15c0-.24,0-.52.22-.57s.33.23.37.47a1.71,1.71,0,0,0,.32.79c.21-.28.42-.58.64-.85s.32-.23.47-.07a.37.37,0,0,1,0,.49c-.21.28-.56.44-.68.8.22.21.5.12.74.17s.36.15.34.35-.21.28-.4.26l-1.07-.14c-.18,0-.37,0-.49.14s.16.22.23.34a.78.78,0,0,1,.07.52.91.91,0,0,0,0,.17l.16,0c.26,0,.63-.28.75,0s-.42.41-.6.66c.1.25.57.36.34.67s-.54,0-.75-.11c-.69-.49-1.16.11-1.7.4.83,0,1.67,0,2.5,0a.68.68,0,0,0,.56-.33c.2-.27.42-.53.63-.79a.34.34,0,0,1,.47-.11.36.36,0,0,1,0,.49c-.14.21-.29.4-.54.74.49,0,.84,0,1.18,0,.19,0,.37.09.37.31s-.19.28-.38.29H95.36c0,.33.29.48.42.68s.21.4,0,.55a.37.37,0,0,1-.48-.13c-.29-.36-.58-.72-.89-1.06,0,0-.14,0-.22,0-.85,0-1.71,0-2.57.07.57.24,1.08.83,1.78.29.2-.16.49-.35.68-.08s-.2.44-.37.69c.21.23.81.23.64.64s-.57,0-.89,0c-.16.22.23.74-.37.74L93,95a1.59,1.59,0,0,0-1.66-1.53l1.58,1.63.23.2m-6.32.32a.14.14,0,0,0,.19-.11c1,0,1.25-.6,1.39-1.51a7.92,7.92,0,0,0-1.44,1.46c-.1,0-.17.06-.13.18l-.16.08,0,.06.1-.16m5.7-5.73a8.15,8.15,0,0,0-1.42,1.4c1.25-.24,1.31-.29,1.5-1.32,0-.06.07-.16.05-.17s-.1,0-.13.09m-5,3.68a1.21,1.21,0,0,0-1.17,1.4l1.33-1.25.16-.22c-.13-.08-.23,0-.32.07m3.23-2.92A8.73,8.73,0,0,0,92,89.26a1.23,1.23,0,0,0-1.42,1.2.22.22,0,0,0-.08.3l.21-.15m-2.86.65a.28.28,0,0,0,0,.09H88l-.09-.07a12.5,12.5,0,0,0-1.53-1.58c.12,1.23.34,1.44,1.55,1.57m.36-.54c.07,0,.1.2.19.12s0-.17-.06-.23c-.19-.76-.45-1.45-1.51-1.34a9.12,9.12,0,0,0,1.38,1.45m.7,1.17a.36.36,0,0,1,0-.1l-.06,0,.09.07a.58.58,0,0,1,0,.23c-.39.57.08.82.46.92s.59-.17.71-.55-.26-.41-.12-.66a1.24,1.24,0,0,0-1,.07m1.57,2c.28,1.34.45,1.52,1.47,1.51a9.12,9.12,0,0,0-1.47-1.51m-1.46.37c-.7,1.18-.7,1.28,0,2.07Zm0-6c-.69,1-.67,1.32,0,2.11ZM86.77,89l-.06,0s0,.06,0,.1,0,0,0,0l.06-.1" transform="translate(0 -10.57)"/><path class="cls-8" d="M53.78,90.12q35.22,24.94,70.31.06c-1.51,3.06-13.91,9.62-22.36,11.66a53.72,53.72,0,0,1-25.46,0c-8.74-2.09-19.5-7.77-22.49-11.73" transform="translate(0 -10.57)"/><path class="cls-8" d="M124.35,41.64Q89,16.5,53.76,41.56c.08-.1.18-.25.3-.38s.29-.29.44-.43A51.12,51.12,0,0,1,75.74,29.93a51.55,51.55,0,0,1,12.9-1.63,53.25,53.25,0,0,1,33.5,11.29,12.81,12.81,0,0,1,2.21,2" transform="translate(0 -10.57)"/><path class="cls-9" d="M87.89,23.44l.88.39c.13.05.35,0,.3.23a.53.53,0,0,1-.25.26.88.88,0,0,1-.88-.1,4.7,4.7,0,0,1-2.35-4.71A4.77,4.77,0,0,1,86,17.57a1.27,1.27,0,0,1,2.17-.21,6.32,6.32,0,0,1,.32,5.39,4.63,4.63,0,0,1-.62.69m0-2.79a8.63,8.63,0,0,0-.24-2.82c-.08-.22-.16-.46-.45-.47s-.41.21-.43.45A13.52,13.52,0,0,0,87,22.47c.06.25.2.53.52.47s.38-.33.39-.59c0-.57,0-1.13,0-1.7" transform="translate(0 -10.57)"/><path class="cls-9" d="M69.36,23.69c.45.92.39,1.85,1,2.51.19.2.07.32-.13.39s-.54.18-.81.25-.34,0-.39-.35a17,17,0,0,0-1.67-5.28c-.15-.28-.15-.42.14-.51s.84-.26,1.26-.35a1.39,1.39,0,0,1,1.56.57,1.65,1.65,0,0,1,.08,1.95c-.19.27-.34.44.09.62a1.43,1.43,0,0,1,.6.68c.25.42.51.83.77,1.24.12.18.58.31.22.56s-.72.5-1-.07-.63-1.06-1-1.58a1.07,1.07,0,0,0-.78-.63m.45-1.29a2.29,2.29,0,0,0-.43-1.29.51.51,0,0,0-.68-.18c-.27.14,0,.36,0,.54A8.1,8.1,0,0,0,69,22.56c.09.21,0,.61.38.56s.4-.4.39-.72" transform="translate(0 -10.57)"/><path class="cls-9" d="M95.66,109.56c.24,1.26,0,2.59.64,3.75.07.12.11.29,0,.33a3.34,3.34,0,0,1-.83.13c-.17,0-.2-.15-.17-.28.28-1.45-.26-2.83-.38-4.25a2.05,2.05,0,0,0-.38-1.45c-.13-.14-.09-.34.1-.36.37-.05.81-.35,1.09.17s.66,1.22,1,1.83a1.31,1.31,0,0,0,.52.68,7.46,7.46,0,0,0-.52-2.58c-.07-.11-.19-.23,0-.33a1.45,1.45,0,0,1,.82-.17c.15,0,.28.11.24.24-.36,1.17.16,2.28.23,3.42,0,.74.2,1.47.29,2.21,0,.19.12.45-.15.54s-.33-.19-.42-.35l-1.81-3.32a.93.93,0,0,0-.19-.21" transform="translate(0 -10.57)"/><path class="cls-9" d="M114.66,23a6.22,6.22,0,0,1-1.51,3.42,2.39,2.39,0,0,1-3,0,.21.21,0,0,1,0-.33c1-1.14,1.18-2.63,1.77-3.95.2-.44.55-.87.36-1.44,0-.16.08-.26.28-.26A2.44,2.44,0,0,1,114.66,23m-.83-.77c0-.36-.08-.72-.42-.8s-.33.32-.41.53c-.5,1.23-1,2.48-1.46,3.73-.08.23-.41.53,0,.73s.61-.05.79-.31a10.15,10.15,0,0,0,1.53-3.88" transform="translate(0 -10.57)"/><path class="cls-9" d="M59.44,27.24c1.14.19,1.68.64,1.81,1.5A2.49,2.49,0,0,1,59.06,31q-.24,0-.24-.24c0-1.18-.79-2.09-1.23-3.1a4.42,4.42,0,0,0-1.19-2.11c-.21-.14-.08-.33.11-.41A7.66,7.66,0,0,1,58,24.55a1.57,1.57,0,0,1,1.73,2.06,5.89,5.89,0,0,1-.29.63m.92,1.94a1.86,1.86,0,0,0-.87-1.37.53.53,0,0,0-.58,0c-.21.15,0,.32.05.47a12.88,12.88,0,0,0,.59,1.25c.1.19.06.6.43.49s.41-.36.38-.84m-1.31-2.53a2.28,2.28,0,0,0-.73-1.39.5.5,0,0,0-.64-.05c-.2.15,0,.32.06.47.17.4.36.79.56,1.17.09.18.07.53.4.43s.32-.37.35-.63" transform="translate(0 -10.57)"/><path class="cls-9" d="M122.08,104.11a2.57,2.57,0,0,1-1.93,2.28c-.21,0-.23-.11-.28-.27a16.33,16.33,0,0,0-2.74-5c-.15-.18-.17-.25,0-.42a2.33,2.33,0,0,1,3.38.12,5.79,5.79,0,0,1,1.56,3.26m-.77.5a7.25,7.25,0,0,0-1-2.3,5.18,5.18,0,0,0-1.15-1.52c-.24-.19-.52-.33-.77-.1s0,.42.15.6c.65,1.22,1.32,2.43,2,3.63.1.18.16.52.41.46s.4-.37.37-.77" transform="translate(0 -10.57)"/><path class="cls-9" d="M125.14,28.2a5.56,5.56,0,0,1-2.61,3.73,2.89,2.89,0,0,1-2.57-.8c-.08-.16,0-.23.12-.32a17,17,0,0,0,3-4.84c.09-.21.16-.27.38-.2a2.49,2.49,0,0,1,1.69,2.43m-.77-.62c0-.42,0-.64-.27-.75s-.27.09-.34.21c-.81,1.31-1.62,2.61-2.42,3.92-.24.39,0,.5.32.51a1,1,0,0,0,.76-.47,10.38,10.38,0,0,0,1.8-2.92,4,4,0,0,0,.15-.5" transform="translate(0 -10.57)"/><path class="cls-9" d="M66.28,26.62c0,.86-.13,1.5-.87,1.76a1.43,1.43,0,0,1-1.69-.59,6.94,6.94,0,0,1-1.54-3.94,1.42,1.42,0,0,1,.81-1.6,1.46,1.46,0,0,1,1.75.61,7.74,7.74,0,0,1,1.54,3.76m-.78.79a15.22,15.22,0,0,0-1.76-4.49.46.46,0,0,0-.53-.23c-.27.1-.27.36-.24.59a11.12,11.12,0,0,0,.69,2.28,8,8,0,0,0,1,2.09.52.52,0,0,0,.59.28c.23-.07.26-.29.28-.52" transform="translate(0 -10.57)"/><path class="cls-9" d="M92.8,111.46a3.85,3.85,0,0,1-.41,2.09,1.23,1.23,0,0,1-2.2.1,5.89,5.89,0,0,1-.35-5.19,1.18,1.18,0,0,1,1.14-.79,1.35,1.35,0,0,1,1.22.81,6.11,6.11,0,0,1,.6,3m-1.06,0a8.85,8.85,0,0,0-.27-2.62c-.08-.29-.14-.68-.54-.61s-.41.42-.42.73c0,.67,0,1.34,0,2a20.24,20.24,0,0,0,.21,2.06c0,.33.12.82.57.79s.44-.5.45-.85,0-.87,0-1.5" transform="translate(0 -10.57)"/><path class="cls-9" d="M75.35,110.61A6.94,6.94,0,0,1,76.42,107a1.4,1.4,0,0,1,1.5-.72,1.32,1.32,0,0,1,1,1.28,6.79,6.79,0,0,1-1,4.35,1.35,1.35,0,0,1-1.53.78c-.78-.18-1-.78-1.1-1.5a4.86,4.86,0,0,1,0-.54m2.81-3c-.06-.35.14-.79-.34-.94-.27-.08-.44.14-.52.36a15.56,15.56,0,0,0-1.12,4.45c0,.27,0,.61.39.66s.44-.22.54-.47a18.11,18.11,0,0,0,1-4.06" transform="translate(0 -10.57)"/><path class="cls-9" d="M126.87,102.1a1.24,1.24,0,0,1-1.89,1.2A5.83,5.83,0,0,1,122.14,99,1.24,1.24,0,0,1,124,97.71a6.38,6.38,0,0,1,2.91,4.39m-3.66-4c-.36,0-.54.33-.33.76a15.58,15.58,0,0,0,2.41,3.75c.18.2.42.43.73.24s.19-.5.07-.75a15.82,15.82,0,0,0-2.27-3.56,1.32,1.32,0,0,0-.61-.44" transform="translate(0 -10.57)"/><path class="cls-9" d="M77.75,24.6c-.19.06-.3-.05-.28-.28.17-1.62-.48-3.11-.68-4.68,0-.27,0-.59-.23-.8-.42-.41-.18-.54.23-.61L78.24,18a.81.81,0,0,1,1,1.07.26.26,0,0,1-.12.17c-.11.05-.18,0-.24-.13s-.14-.27-.23-.39c-.22-.27-.51-.21-.78-.12s-.19.33-.16.52c.08.46.18.91.27,1.37,0,.13,0,.33.2.36s.3-.14.33-.33,0-.34.24-.35.21.25.26.4a1.44,1.44,0,0,1,.08.46c0,.27.3.6,0,.79s-.36-.26-.56-.37-.42-.08-.36.24c.11.65.25,1.31.37,2,0,.23.16.31.38.25s.58-.12.68-.51-.1-.78.31-.75.24.55.34.84c.15.44.07.72-.49.78s-1.32.24-2,.37" transform="translate(0 -10.57)"/><path class="cls-9" d="M93.05,17a29.11,29.11,0,0,0-.37,5.1c0,.35.1.7.54.72s.58-.34.6-.67c.07-1.16.12-2.32.14-3.47,0-.45.22-.92-.13-1.34a.21.21,0,0,1,.06-.33,1.31,1.31,0,0,1,.83,0c.14.05.16.19.11.33-.48,1.21-.21,2.48-.33,3.73,0,.4,0,.82-.1,1.22A1.28,1.28,0,0,1,93,23.43a1.29,1.29,0,0,1-1.24-1.32c0-1.13.06-2.26.09-3.4,0-.25,0-.51,0-.77,0-1.15,0-1.15,1.19-.93" transform="translate(0 -10.57)"/><path class="cls-9" d="M126.63,34.79l.43-.24c.19-.1.37-.41.59-.15s-.13.4-.24.57c-.54.81-.55.8-1.35.22-.47-.35-1.18-.61-1.36-1.08s.66-.75,1-1.22c.62-1,1.37-1.92,2.07-2.88.06-.08.1-.2.18-.24.35-.17-.06-.87.49-.78.32.05.6.38.89.58l.5.36c.78.57.79.61.15,1.32-.1.11-.17.29-.36.21s-.09-.26,0-.4a1.53,1.53,0,0,0,.08-.37c0-.3-.24-.44-.45-.57s-.36.07-.47.23c-.28.37-.56.74-.82,1.12-.09.13-.31.26-.12.45s.28.08.43,0,.32-.26.47-.05-.08.32-.17.47a3.43,3.43,0,0,1-.36.49c-.15.16-.2.5-.49.41s-.11-.34-.08-.53a.28.28,0,0,0-.15-.32c-.16-.08-.23,0-.31.15l-1,1.37c-.1.15-.35.29-.16.52a1,1,0,0,0,.71.36" transform="translate(0 -10.57)"/><path class="cls-9" d="M106,111.16c-.11-.4-.22-1-.41-1.48-.45-1.21-.44-2.58-1.25-3.68-.16-.22.05-.31.24-.36.66-.19,1.33-.37,2-.58.28-.09.4.06.42.28s.39.69.13,1-.31-.09-.39-.24a.62.62,0,0,0-.91-.27c-.38.18-.13.49-.08.75a8.19,8.19,0,0,0,.23.81c.07.24,0,.61.29.66s.3-.31.35-.55a.19.19,0,0,1,.21-.17.22.22,0,0,1,.22.17c.07.28.15.55.23.82s.23.49,0,.64-.33-.13-.46-.28a.3.3,0,0,0-.35-.09c-.19.1-.09.27,0,.41.14.52.28,1,.43,1.56.07.23.06.55.46.47a.73.73,0,0,0,.65-.56c.07-.27-.17-.77.25-.77s.26.53.4.81c.26.52,0,.72-.47.82s-1.09.31-1.64.45-.54.13-.51-.63" transform="translate(0 -10.57)"/><path class="cls-9" d="M101.53,106.42c.17.07.46-.27.58,0a6.67,6.67,0,0,1,.27,1.27s-.08.13-.14.15-.22-.08-.29-.2c-.23-.38-.39-1-1-.73s-.32.81-.26,1.24a12.43,12.43,0,0,0,.89,3.65c.14.3.28.68.71.52s.22-.51.15-.8a8.13,8.13,0,0,0-.25-.88c-.08-.19-.57-.22-.34-.46a1.63,1.63,0,0,1,.94-.27c.35,0,.28.3.33.5a4.42,4.42,0,0,0,.29,1.19c.33.58,0,.78-.4,1a1.61,1.61,0,0,1-2.29-.53,5.77,5.77,0,0,1-.77-4.5c.18-.75.59-1.34,1.56-1.19" transform="translate(0 -10.57)"/><path class="cls-9" d="M61.87,101.21c.1-.43-.19-.6-.5-.75s-.4.21-.51.39a8.74,8.74,0,0,0-.6,1.08c-.07.14-.29.29-.09.46s.33.07.48-.06.25-.22.4-.08,0,.28-.06.41a5.15,5.15,0,0,1-.33.61c-.12.17-.13.52-.43.46s-.13-.33-.14-.52,0-.27-.18-.31-.25.12-.32.25c-.26.47-.53.94-.77,1.42-.09.18-.36.39-.08.6s.58.39.92.11c.14-.11.25-.25.39-.36a.26.26,0,0,1,.35,0c.15.11.06.23,0,.34a4.47,4.47,0,0,0-.33.61c-.17.47-.42.48-.81.24-.55-.33-1.13-.62-1.69-.93-.16-.09-.47-.23-.18-.43.78-.57,1-1.49,1.45-2.24a7.54,7.54,0,0,0,1.21-2.31c.22-1.14.66-.63,1.17-.36a4.56,4.56,0,0,0,.81.44c.74.22.65.63.29,1.11-.11.15-.13.47-.4.39s-.08-.33-.06-.52" transform="translate(0 -10.57)"/><path class="cls-9" d="M119.52,23.83c-.21.77-.47,1.56-.63,2.36-.24,1.17-.87,2.25-.76,3.5,0,.22-.18.28-.39.18l-.76-.38c-.36-.17-.43-.28,0-.55s.55-1,.14-1.23c-.63-.38-1.08-.11-1.12.69,0,.18,0,.43-.18.42a1,1,0,0,1-.81-.4c-.17-.23.11-.31.28-.44a2.71,2.71,0,0,0,.53-.54c.91-1.24,2-2.37,2.77-3.69.21-.34.48-.23.75-.24s.28.1.22.32M118,25.7l-.13-.1c-.28.35-.56.7-.83,1.06-.08.11-.25.24-.07.38a.88.88,0,0,0,.46.23c.18,0,.21-.19.24-.34.12-.41.22-.82.33-1.23" transform="translate(0 -10.57)"/><path class="cls-9" d="M98.05,22c-.47,0-.74.45-.56,1,0,.17.22.35,0,.46a1.07,1.07,0,0,1-.89-.1c-.26-.15,0-.32.09-.49A32.1,32.1,0,0,0,98.37,18a.7.7,0,0,1,.73-.61c.4,0,.24.38.26.59.13,1.54.24,3.08.35,4.62,0,.13,0,.25,0,.38.14,1,.14.95-.83.8-.44-.07-.62-.09-.26-.58a.7.7,0,0,0-.6-1.16m.49-2.3h-.11L98,21.07c-.11.31,0,.4.31.45s.44,0,.41-.35c-.05-.48-.1-1-.14-1.45" transform="translate(0 -10.57)"/><path class="cls-9" d="M55,33.16c-.15.28-.47.35-.74.48a.21.21,0,0,1-.31-.22,6.06,6.06,0,0,0-.56-2.37,17.46,17.46,0,0,0-1-3c-.19-.41.11-.61.3-.78s.39.13.51.28c1,1.17,2,2.36,3,3.55.1.12.19.24.3.35.69.71.68.69-.27,1.15-.36.17-.54.2-.49-.28a.82.82,0,0,0-.61-.87.69.69,0,0,0-.8.44.78.78,0,0,0,.44,1,.37.37,0,0,1,.25.3M53.5,29.53c.16.57.29,1,.42,1.44.07.22.15.38.41.19s.49-.18.24-.49a4.88,4.88,0,0,0-1.07-1.14" transform="translate(0 -10.57)"/><path class="cls-9" d="M115,108.18l-.84-3.82a5.7,5.7,0,0,0-.34-1.26c-.24-.46.11-.64.33-.81s.37.16.49.32c.91,1.27,1.8,2.55,2.7,3.83a2.33,2.33,0,0,1,.26.38c.12.26.69.26.53.55s-.72.44-1.13.58-.27-.12-.26-.37c0-.68-.42-1.07-.91-.87a.69.69,0,0,0-.21,1.24c.13.13.46.19.3.43a1,1,0,0,1-.81.37c-.36,0-.16-.35-.11-.57m-.11-3.6-.12.06c.1.47.23.93.3,1.4s.21.33.46.22.45-.16.22-.47-.57-.81-.86-1.21" transform="translate(0 -10.57)"/><path class="cls-9" d="M70.28,110.2c.09.21.21.43,0,.5a1,1,0,0,1-.85-.25c-.23-.2,0-.34.18-.47a3.42,3.42,0,0,0,.71-1.09,36.62,36.62,0,0,0,2-3.64c.15-.37.48-.27.73-.25s.19.36.17.55c-.16,1.45-.35,2.9-.53,4.35a3.68,3.68,0,0,1-.09.76c-.1.29.4.71,0,.79a2.13,2.13,0,0,1-1.22-.36c-.28-.16,0-.3.15-.44.37-.39.33-1.05-.06-1.2-.22-.09-.5-.3-.71-.08a1,1,0,0,0-.38.83m1.66-3a6.85,6.85,0,0,0-.76,1.21c-.17.24-.16.39.17.49s.46.11.5-.27a5.37,5.37,0,0,0,.09-1.44l0,0,0,.06" transform="translate(0 -10.57)"/><path class="cls-9" d="M57.84,99.23c0-.1,0-.22,0-.35,0-.34-.21-.51-.47-.63s-.38.17-.49.34c-.26.38-.5.78-.74,1.17-.08.14-.28.29-.07.47a.36.36,0,0,0,.43,0c.14-.09.3-.25.47,0s-.06.33-.13.47a4.59,4.59,0,0,1-.33.52c-.09.15-.15.38-.36.35s-.19-.26-.18-.44,0-.37-.26-.4-.27.15-.32.27c-.31.66-1,1.14-1,2,0,.22-.19.3-.39.18l-.78-.49c-.22-.14-.17-.24,0-.42a15.14,15.14,0,0,0,3-4.87c.1-.26.25-.22.42-.12.61.38,1.21.77,1.84,1.13.28.17.18.35,0,.5s-.25.72-.67.79c-.17,0-.2-.2-.1-.39" transform="translate(0 -10.57)"/><path class="cls-9" d="M51.74,34.41a2,2,0,0,1-1.64,1.66,3.53,3.53,0,0,1-.89-1.47c.08-.2.21-.19.35-.06s.24.27.37.39c.31.28.67.48,1,.15s.21-.71,0-1.06a2.36,2.36,0,0,0-1.57-.88,2.81,2.81,0,0,1-1.8-.94c-.88-1.31-.53-2.06.9-2.54.32-.11.37.22.47.39s.47.5.4.87c0,.1-.17.12-.26.06s-.16-.13-.25-.19c-.33-.22-.71-.76-1.07-.16s.16.88.58,1.07,1.17.38,1.75.59a2.39,2.39,0,0,1,1.64,2.12" transform="translate(0 -10.57)"/><path class="cls-9" d="M85.36,111.56c0,.43,0,.87.07,1.3,0,.27.12.59.46.64s.52-.24.67-.52,0-.64.44-.44.08.46,0,.68a1.17,1.17,0,0,1-1.06.87,1.28,1.28,0,0,1-1.18-.73,6.13,6.13,0,0,1,.51-5.37,1.69,1.69,0,0,1,2.09-.21,2.38,2.38,0,0,1-.1,1.47c-.26.14-.3-.08-.36-.24-.14-.38-.07-1-.66-1s-.5.71-.59,1.14a12.47,12.47,0,0,0-.27,2.37" transform="translate(0 -10.57)"/><path class="cls-9" d="M104.85,23.63a5.91,5.91,0,0,0-.13.63c0,.46-.24.61-.72.46s-1.15-.26-1.72-.39c-.2,0-.47-.12-.29-.4.84-1.24.75-2.73,1.15-4.09a2.09,2.09,0,0,0,.14-1.5c-.1-.23.08-.33.3-.29s.6.13.9.2.28.17.16.39c-.85,1.56-.85,3.35-1.32,5,0,.14-.12.32.1.39a.61.61,0,0,0,.66-.07,2.54,2.54,0,0,0,.35-.49c.07-.12.15-.23.29-.2s.13.24.13.35" transform="translate(0 -10.57)"/><path class="cls-9" d="M110.93,110.31c-.25,0-.37-.11-.3-.26.27-.56-.1-1-.25-1.47-.31-1-.69-2.09-1-3.14-.07-.19-.1-.44-.24-.56-.72-.6-.13-.66.31-.82s.68-.29.74.48a12.72,12.72,0,0,0,.84,2.79c.18.56.36,1.12.58,1.67.06.18,0,.54.38.44a.65.65,0,0,0,.54-.58c0-.25-.2-.68.16-.72s.3.45.44.7c.3.52.11.78-.44.92s-1.17.37-1.72.55" transform="translate(0 -10.57)"/><path class="cls-9" d="M65.92,108.78c.49-.13.55-.46.66-.73.51-1.2,1-2.42,1.5-3.62a3.84,3.84,0,0,1,.14-.36c.13-.24-.2-.65.17-.73s.71.23,1.07.36c.19.07.19.22.06.36-.88.92-1,2.19-1.59,3.28a12.12,12.12,0,0,1-.65,1.3,1.26,1.26,0,0,1-1.69.45.77.77,0,0,1-.44-1,.41.41,0,0,1,.54-.29c.53.13.25.55.23.94" transform="translate(0 -10.57)"/><path class="cls-9" d="M109.79,19.81a.92.92,0,0,1-.07.22c-1,1.39-1,3.08-1.62,4.6-.06.16-.09.34-.14.52s.32.65-.15.68a3.06,3.06,0,0,1-1.16-.36c-.08,0-.05-.18,0-.27.86-1.23,1-2.73,1.45-4.09.16-.44.45-.89.22-1.4a.23.23,0,0,1,0-.21c.25-.2.49,0,.72.07s.46.16.68.24" transform="translate(0 -10.57)"/><path class="cls-9" d="M65.79,102.1a2.05,2.05,0,0,1-.15.26c-1.19,1.36-1.61,3.12-2.46,4.65a1,1,0,0,0,0,.45c0,.28-.1.4-.37.29s-.56-.27-.84-.4-.2-.24-.06-.42a15.23,15.23,0,0,0,2.47-5.09c.08-.27.15-.37.4-.24l1,.5" transform="translate(0 -10.57)"/><path class="cls-9" d="M72.62,104.22c-.16,0-.31.38-.47,0-.05-.09.08-.29.17-.4a.42.42,0,0,1,.54-.16c.4.15.59.84,1.22.43.08,0,.1.19,0,.31s-.28.46-.58.38a1.48,1.48,0,0,1-.49-.35c-.14-.11-.22-.29-.44-.26" transform="translate(0 -10.57)"/><path class="cls-10" d="M168.74,106.87a.39.39,0,0,1-.08.1c0-.1,0-.12.1-.08Z" transform="translate(0 -10.57)"/><path class="cls-10" d="M153.3,76.1c.06,0,.16.05.09.12s-.12,0-.15-.06Z" transform="translate(0 -10.57)"/><path class="cls-10" d="M151.39,53.38s.11-.12.13-.11,0,.14,0,.22l-.12-.11" transform="translate(0 -10.57)"/><path class="cls-9" d="M115.06,52.63v1.12a1.11,1.11,0,0,1,0-1.44" transform="translate(0 -10.57)"/><path class="cls-9" d="M115.06,76.2a1.2,1.2,0,0,1,0-1.45Z" transform="translate(0 -10.57)"/><path class="cls-11" d="M86.28,69.34a11.5,11.5,0,0,1,0-2.75,3.27,3.27,0,0,1,1.35-2.28c-.18-.09-.29-.2-.4-.2-.95,0-1.08-.53-1-1.33.09-1.07-.08-2.15.09-3.22a2.15,2.15,0,0,1,.5.19c.65.45,1,.32,1.26-.47.41-1.31.91-2.6,1.43-4,.43,1.22.82,2.3,1.19,3.38.51,1.5.5,1.5,2,1,0,1.23,0,2.46,0,3.69,0,.52-.14.74-.64.78a1,1,0,0,0-.73.31,3.22,3.22,0,0,1,1.36,3.21c0,.59,0,1.18,0,1.77-.18-.09-.36-.2-.55-.28-.88-.36-.87-.36-1.2.58-.44,1.25-.9,2.5-1.39,3.86a4.09,4.09,0,0,1-.24-.48c-.34-.94-.69-1.87-1-2.82-.53-1.52-.52-1.52-2-.85" transform="translate(0 -10.57)"/><path class="cls-11" d="M83.55,65.62a7.52,7.52,0,0,1,0-2.46l.67-.18a11.49,11.49,0,0,1,0,2.81l-.66-.17" transform="translate(0 -10.57)"/><path class="cls-12" d="M95.39,65.63l-.66.16a22,22,0,0,1,0-2.81l.7.15c0,.84,0,1.67,0,2.5" transform="translate(0 -10.57)"/><path class="cls-11" d="M84.06,68.63s0-.33,0-.39a.53.53,0,0,1,0,.12s0,0,0,0" transform="translate(0 -10.57)"/><path class="cls-9" d="M75.47,51.13a3.84,3.84,0,0,1-.14,1.68,2.06,2.06,0,0,1,.14-1.68" transform="translate(0 -10.57)"/><path class="cls-9" d="M75.48,74.13a2.77,2.77,0,0,1-.16-2,4.63,4.63,0,0,1,.16,2" transform="translate(0 -10.57)"/><path class="cls-13" d="M71.94,107.18l0-.06,0,0h0" transform="translate(0 -10.57)"/></g></g></g></svg>