<svg xmlns="http://www.w3.org/2000/svg" xmlns:xlink="http://www.w3.org/1999/xlink" viewBox="0 0 177.98 107.69"><defs><style>.cls-1{fill:none;}.cls-2{clip-path:url(#clip-path);}.cls-3{fill:#db9703;}.cls-4{fill:#db9806;}.cls-5{fill:#db9805;}.cls-6{fill:#db9704;}.cls-7{fill:#3e3d3e;}.cls-8{fill:#474647;}.cls-9{fill:#be8625;}.cls-10{fill:#fdfbf7;}.cls-11{fill:#cececf;}.cls-12{fill:#ebe3d3;}.cls-13{fill:#faf2e1;}</style><clipPath id="clip-path" transform="translate(-33.95 -15.39)"><rect class="cls-1" width="240.95" height="155.91"/></clipPath></defs><title>Asset 1</title><g id="Layer_2" data-name="Layer 2"><g id="Layer_1-2" data-name="Layer 1"><g class="cls-2"><path class="cls-3" d="M204.73,71a2,2,0,0,1-2.15,1.12c-1.32,0-2.63,0-4,0-.47,0-.57-.16-.47-.59a2.41,2.41,0,0,1,.7-1.18A4.79,4.79,0,0,0,200.21,67a21.32,21.32,0,0,0-.63-6.89c-.62-2.08-1.72-3.74-4-4.29a5.34,5.34,0,0,0-6.49,3.24,15.83,15.83,0,0,0-1,6.13q0,4.36.07,8.73a12.58,12.58,0,0,0,.93,4.51,5.19,5.19,0,0,0,5.11,3.41A15.17,15.17,0,0,1,204.56,86c.4.36.58.44,1,0a5.43,5.43,0,0,1,6.34-.76c-.37.32-.77.6-1.09.94A5.3,5.3,0,0,0,209.31,90c0,4.56.05,9.12,0,13.68a14.81,14.81,0,0,1-8.11,13.6c-9.1,5-20.86-1.15-22-11.42-.12-1.15-.17-2.3-.29-3.45a4,4,0,0,0-1.11-2.41,5.85,5.85,0,0,1-.4-.47c-.3-.4-.61-.88-.41-1.33S177.67,98,178,98c1.21,0,2.42,0,3.63,0a1.79,1.79,0,0,1,1.83,1.14c.58-1.24,1.63-1.15,2.66-1.14s2.27,0,3.4,0c.63,0,.71.25.57.75a1.71,1.71,0,0,1-.5.85,5,5,0,0,0-1.54,3.82,21.2,21.2,0,0,0,.7,6.73c.65,2,1.78,3.58,4,4.09a5.34,5.34,0,0,0,6.39-3.17,15.42,15.42,0,0,0,1-6.34c0-3.25,0-6.49,0-9.73a13.28,13.28,0,0,0-1-5.27,5.06,5.06,0,0,0-4.89-3.24A15.13,15.13,0,0,1,179,71.06a57.84,57.84,0,0,1,.12-6.71,15.13,15.13,0,0,1,29.78-1.28,15.48,15.48,0,0,1,.37,3.52,4.94,4.94,0,0,0,1.42,3.86,2.72,2.72,0,0,1,.34.42,1.22,1.22,0,0,1,.28,1.15c-.12.28-.61.11-.93.11-1.21,0-2.42,0-3.63,0A2,2,0,0,1,204.73,71m-2,40.67a12.6,12.6,0,0,0,2.13-5.21,30.15,30.15,0,0,0,0-11.4,5.55,5.55,0,0,0-.78-2.08c.06,1,0,2,0,3,0,1.92,0,3.85-.09,5.77a52.06,52.06,0,0,1-.77,7.58,8.48,8.48,0,0,0-.49,2.38c-.09,0-.13,0-.1.09l.09-.1M187.19,81c0,.07.09.13.15.07s0-.11-.09-.13a15.52,15.52,0,0,1-2.76-6.53,38.2,38.2,0,0,1-.61-6.21c-.07-3.38.09-6.73,1.58-9.87,0-.08.11-.15,0-.22s-.08.07-.13.11A6.81,6.81,0,0,0,183.68,61a22.93,22.93,0,0,0-1,10,18.07,18.07,0,0,0,2,6.92,7.25,7.25,0,0,0,2.58,3" transform="translate(-33.95 -15.39)"/><path class="cls-3" d="M40.43,118a1.66,1.66,0,0,1-1.7,1c-1.23,0-2.47,0-3.7,0-.67,0-.69-.31-.51-.75a2.38,2.38,0,0,1,.54-.83,4.32,4.32,0,0,0,1.24-3.23q0-12.24,0-24.48a4.6,4.6,0,0,0-1.73-3.49c-.19-.17-.39-.33-.62-.52a3.61,3.61,0,0,1,1.71-.54c.56,0,.67-.24.67-.75,0-4.09,0-8.19,0-12.28,0-5.2,0-10.4,0-15.6a5,5,0,0,0-1.38-3.88,1.52,1.52,0,0,1-.31-.44c-.41-.75-.26-1,.59-1,1.14,0,2.27,0,3.4,0a1.73,1.73,0,0,1,1.82,1.11c.39-1.06,1.19-1.11,2.08-1.11,7.37,0,14.74,0,22.11,0,.92,0,1,.2.61,1a2.24,2.24,0,0,1-.35.5,4.6,4.6,0,0,0-1.34,3.65c0,3.68,0,7.37,0,11.05,0,.73-.23.81-.89.76-5.26-.34-7.24-4.51-7.28-8.11,0-.75,0-1.5,0-2.24a2.37,2.37,0,0,0-2.53-2.51H47a2.35,2.35,0,0,0-2.5,2.52q0,11.47,0,23a2.58,2.58,0,1,0,5.15.21,4.77,4.77,0,0,1,4.84-4.55c.46,0,.55.13.55.55q0,8.46,0,16.92c0,.45-.08.63-.59.59a4.75,4.75,0,0,1-4.81-4.75,2.41,2.41,0,0,0-2.74-2.2,2.36,2.36,0,0,0-2.39,2.32c0,2.3,0,4.59,0,6.88,0,5.61,0,11.23,0,16.84a5,5,0,0,0,1.38,4,1.52,1.52,0,0,1,.31.44c.4.75.27,1-.58,1-1.14,0-2.27,0-3.4,0a1.66,1.66,0,0,1-1.76-1m0-8.91a457.84,457.84,0,0,0,0-48,457.84,457.84,0,0,0,0,48" transform="translate(-33.95 -15.39)"/><path class="cls-4" d="M153.18,69.14c-1.43.92-1.46,2.29-1.44,3.72,0,3.58,0,7.16,0,10.74a3.1,3.1,0,0,0,.82,2.48.71.71,0,0,1,.25.69c-.1.25-.42.16-.63.13-.91-.12-1.91.36-2.74-.39a.19.19,0,0,0-.19,0c-.94.76-2,.24-3.06.38-.48.07-.42-.35-.48-.62q-.75-4-1.48-8-1.71-9.3-3.43-18.58a1.12,1.12,0,0,0-.25-.57q0,4.59,0,9.18c0,.3.12.39.4.43a1.74,1.74,0,0,1,1,.38c-1.33.87-1.43,2.19-1.42,3.6,0,3.53,0,7.06,0,10.58a3.5,3.5,0,0,0,.89,2.78.63.63,0,0,1,.21.63c-.11.27-.41.15-.63.15a5.74,5.74,0,0,1-2,0,2.72,2.72,0,0,0-1.76,0,11.1,11.1,0,0,1-2.16,0c-.48,0-.61-.27-.33-.55,1.34-1.36.95-3.06,1-4.68,0-3.14,0-6.28,0-9.42a3.29,3.29,0,0,0-1.39-3.1l.21-.15c.34-.23.95-.05,1.1-.4a3.88,3.88,0,0,0,.07-1.37c0-4.28,0-8.55,0-12.82a3,3,0,0,0-.77-2.34c-.2-.2-.41-.48-.28-.76s.47-.15.7-.12c.91.12,1.91-.37,2.75.38.06.05.4-.32.63-.33.87-.06,1.75,0,2.62,0,.37,0,.33.32.38.57l1.83,9.77q1.53,8.26,3.07,16.53c0,.12,0,.26.24.37v-2c0-1.31,0-2.63,0-3.94a3.29,3.29,0,0,0-1.41-3.33c.2-.12.3-.23.41-.23.94,0,1-.56,1-1.36,0-4.27,0-8.55,0-12.82a3.48,3.48,0,0,0-.87-2.78.62.62,0,0,1-.22-.62c.1-.27.4-.13.62-.16h.16c.91.11,1.91-.31,2.74.4.82-.71,1.81-.3,2.73-.39.23,0,.58-.15.7.12s-.08.54-.28.75a2.93,2.93,0,0,0-.77,2.26c0,4.46,0,8.91,0,13.36,0,.71.06,1.2.9,1.21a2.17,2.17,0,0,1,.54.24m-15,11.74a182.05,182.05,0,0,0,0-23.82,205.75,205.75,0,0,0,0,23.82m11-22c-.2,6.9-.23,13.59,0,20.32.64-.92.7-19.12,0-20.32m.3-1.74a1.1,1.1,0,0,0,0,1.43Zm0,23.88V79.57c-.33.69-.33.87,0,1.45" transform="translate(-33.95 -15.39)"/><path class="cls-5" d="M156.92,69.14l.25-.13c.34-.24.94,0,1.1-.41a3.24,3.24,0,0,0,.06-1.29c0-4.25,0-8.5,0-12.74a3.27,3.27,0,0,0-.83-2.56.63.63,0,0,1-.24-.69c.12-.25.42-.12.63-.13a7,7,0,0,1,1.77,0,8.6,8.6,0,0,0,2.15,0c4.33-.08,8.66,0,13,0,.2,0,.46-.1.56.14a.57.57,0,0,1-.19.63,3.29,3.29,0,0,0-.85,2.7c0,2,0,3.91,0,5.87,0,.52-.16.64-.67.58a4.47,4.47,0,0,1-4.16-4.63c0-.52,0-1,0-1.55a1.37,1.37,0,0,0-1.42-1.33c-1.16,0-2.32,0-3.48,0a1.39,1.39,0,0,0-1.45,1.47q0,5.63,0,11.27a1.39,1.39,0,0,0,1.45,1.47,1.45,1.45,0,0,0,1.59-1.43,2.71,2.71,0,0,1,2.62-2.63c.45,0,.5.1.5.48q0,4.8,0,9.58c0,.43-.15.52-.54.49a2.74,2.74,0,0,1-2.58-2.44c-.14-1-.5-1.47-1.2-1.59a1.49,1.49,0,0,0-1.85,1.6c0,3.66,0,7.31,0,11a1.42,1.42,0,0,0,1.6,1.63c1.08,0,2.16,0,3.25,0a1.39,1.39,0,0,0,1.52-1.55,9.78,9.78,0,0,1,.27-2.9,4.31,4.31,0,0,1,3.85-3.09c.52,0,.73.06.72.64,0,2,0,4,0,6a3.14,3.14,0,0,0,.81,2.49.65.65,0,0,1,.23.69c-.12.26-.42.13-.63.13-4.25,0-8.51,0-12.76,0a1.92,1.92,0,0,1-1.29-.5,1.25,1.25,0,0,1-1.22.49c-.59,0-1.19,0-1.78,0s-.61-.27-.33-.55c1.38-1.41,1-3.17,1-4.83,0-3,0-6.08,0-9.11a3.43,3.43,0,0,0-1.43-3.28m3.81-12.07a203.66,203.66,0,0,0,0,23.44,187.07,187.07,0,0,0,0-23.44" transform="translate(-33.95 -15.39)"/><path class="cls-6" d="M70.51,69.15a1.94,1.94,0,0,1,.2-.13c.38-.12,1-.14,1.1-.39a3.58,3.58,0,0,0,.09-1.44c0-4.17,0-8.34,0-12.51A3.39,3.39,0,0,0,71,52a.63.63,0,0,1-.22-.63c.11-.29.4-.15.61-.15a7.3,7.3,0,0,1,1.62,0,11.89,11.89,0,0,0,2.53,0c4.22-.09,8.45,0,12.68,0,.22,0,.51-.11.64.12a.57.57,0,0,1-.2.69,3.37,3.37,0,0,0-.87,2.63c0,1.93,0,3.86,0,5.79,0,.68-.22.75-.8.66a4.43,4.43,0,0,1-4-4.56c0-.51,0-1,0-1.54A1.38,1.38,0,0,0,81.6,53.6c-1.16,0-2.32,0-3.48,0A1.38,1.38,0,0,0,76.7,55c0,3.79,0,7.57,0,11.36A1.36,1.36,0,0,0,78,67.81a1.42,1.42,0,0,0,1.65-1.16c0-.2,0-.41.08-.61a2.62,2.62,0,0,1,1.44-2c1.32-.65,1.66-.45,1.66,1,0,2.86,0,5.72,0,8.57,0,.7-.25.76-.81.65a2.71,2.71,0,0,1-2.32-2.43c-.15-1.16-.66-1.64-1.68-1.57s-1.36.65-1.36,1.79V82.71c0,1.29.47,1.76,1.78,1.76q1.47,0,2.94,0c1.13,0,1.64-.52,1.65-1.66a9.41,9.41,0,0,1,.25-2.75,4.3,4.3,0,0,1,3.9-3.13c.46,0,.63.07.62.57,0,1.91,0,3.81,0,5.72a3.65,3.65,0,0,0,.91,2.92.55.55,0,0,1,.17.63c-.11.23-.36.13-.56.13H75.44a1.45,1.45,0,0,1-1.16-.5,1.31,1.31,0,0,1-1.14.5c-.61,0-1.23,0-1.85,0s-.68-.25-.36-.58c1.26-1.27,1-2.85,1-4.37,0-3.27,0-6.54,0-9.81a3.28,3.28,0,0,0-1.4-3m3.8-11a167.47,167.47,0,0,0,0,21.72,169.26,169.26,0,0,0,0-21.72" transform="translate(-33.95 -15.39)"/><path class="cls-3" d="M114,69.14c.19-.11.28-.2.37-.2,1,0,1.09-.61,1.07-1.45,0-2.81,0-5.61,0-8.42a8,8,0,0,1,15.92,0c0,2.88,0,5.77,0,8.65,0,.65,0,1.16.86,1.14a2.49,2.49,0,0,1,.6.23c-1.38.93-1.5,2.28-1.46,3.72,0,2,0,4,0,6a8,8,0,0,1-15.85,1.36,20.6,20.6,0,0,1-.07-3.24c0-1.51,0-3,0-4.55A3.49,3.49,0,0,0,114,69.14m15.31,1.31c0-.83,0-1.66,0-2.49a24.73,24.73,0,0,0-.11-3.55A21.25,21.25,0,0,0,129,59.7a40.94,40.94,0,0,0-.32,5.64c0,.82,0,1.64,0,2.46a21.94,21.94,0,0,0,0,2.81c0,.87,0,1.74,0,2.61A45.22,45.22,0,0,0,129,79c.08-.76.16-1.52.19-2.28,0-.92,0-1.84,0-2.77,0-1.18.07-2.36.1-3.54m-11.22,2.78s0,0,0,0a.56.56,0,0,0,0-.12l0-2.45a11.49,11.49,0,0,0,0-2.81l0-2.29a62.26,62.26,0,0,0-.28-6.69,42.67,42.67,0,0,0-.3,5.76c0,1.13,0,2.26-.05,3.4a7.26,7.26,0,0,0,0,2.46l.06,3.54a35.71,35.71,0,0,0,.31,5.17c.1-1.93.31-3.85.24-5.78a.14.14,0,0,0,0-.14m2.11-8.85c-.17,1.07,0,2.15-.09,3.22-.07.8.07,1.34,1,1.33.11,0,.21.11.39.2a3.32,3.32,0,0,0-1.35,2.28,12.65,12.65,0,0,0,0,2.75c0,1.57,0,3.14,0,4.71a9.43,9.43,0,0,0,.53,3.79,2.86,2.86,0,0,0,5.35-.08,5.52,5.52,0,0,0,.37-1.49,61.82,61.82,0,0,0,.12-6.94c0-.59,0-1.18,0-1.77a3.21,3.21,0,0,0-1.37-3.21,1,1,0,0,1,.73-.31c.5,0,.67-.26.65-.78-.06-1.23,0-2.46,0-3.68,0-2.19,0-4.38,0-6.57a6.48,6.48,0,0,0-.45-2.33,2.72,2.72,0,0,0-2.55-1.9c-1.72,0-2.84.93-3.13,2.85a51.22,51.22,0,0,0-.21,7.93" transform="translate(-33.95 -15.39)"/><path class="cls-6" d="M92.63,69.1l.2-.12c.35-.21.94,0,1.1-.37A3.66,3.66,0,0,0,94,67.24c0-4.12,0-8.24,0-12.36A3.64,3.64,0,0,0,93.08,52a.56.56,0,0,1-.16-.63c.12-.23.37-.13.57-.14a7.14,7.14,0,0,1,2.07.05,2.64,2.64,0,0,0,1.62,0,9.35,9.35,0,0,1,2.31-.05c.49,0,.47.34.26.55-1.36,1.35-1,3.06-1,4.67,0,3.81,0,7.62,0,11.42,0,.62.06,1,.79,1a.83.83,0,0,1,.59.29c-1.22.82-1.4,2-1.39,3.38.05,3.68,0,7.36,0,11a3.18,3.18,0,0,0,.83,2.48.65.65,0,0,1,.25.69c-.13.29-.47.16-.7.13-.91-.11-1.92.38-2.73-.41a.13.13,0,0,0-.13,0c-.87.77-1.93.28-2.89.4-.59.07-.66-.34-.36-.65,1.12-1.13,1-2.54,1-3.92V72.76c0-2.09,0-2.2-1.36-3.66m3.72-11.88a190.27,190.27,0,0,0,0,23.64,207.15,207.15,0,0,0,0-23.64" transform="translate(-33.95 -15.39)"/><path class="cls-4" d="M103.57,85.4A3.11,3.11,0,0,0,107.12,83a9.3,9.3,0,0,0,.19-2.23c0-4.07,0-8.13,0-12.2a2.42,2.42,0,0,0-1-2.19c0-.06,0-.13.07-.13.9-.1,1-.65,1-1.44,0-3.55,0-7.1,0-10.66a3,3,0,0,0-.68-2.36c-.36-.36-.16-.63.33-.58.75.08,1.5.05,2.26.17s1.42-.18,2.15-.16c.27,0,.65-.16.78.13s-.18.5-.37.7a1.77,1.77,0,0,0-.48,1.27q0,6.11,0,12.2a.46.46,0,0,0,.46.55.8.8,0,0,1,.61.28A2.71,2.71,0,0,0,111.27,69c0,3.81-.08,7.62,0,11.43a6.25,6.25,0,0,1-6.11,6.36,6.1,6.1,0,0,1-4-.88,2.45,2.45,0,0,1-1.2-2.49,2.25,2.25,0,0,1,1.52-1.89,2.73,2.73,0,0,1,2.17,0,2,2,0,0,1,.45,3.46l-.58.42m5.73-9.12a141.26,141.26,0,0,0,0-17.7,141.26,141.26,0,0,0,0,17.7M109.41,56a2.06,2.06,0,0,0-.13,1.68,3.68,3.68,0,0,0,.13-1.68m0,23a4.74,4.74,0,0,0-.16-2,2.69,2.69,0,0,0,.16,2" transform="translate(-33.95 -15.39)"/><path class="cls-7" d="M123.07,47a9.66,9.66,0,0,1-6.33-2.25A3.37,3.37,0,0,1,115.51,41a3.13,3.13,0,0,1,2.71-2.33,3.42,3.42,0,0,1,2.42.59,3.44,3.44,0,0,0,4.11-.08,3.57,3.57,0,0,1,4.31,5.68,9.22,9.22,0,0,1-6,2.11m-.29-5.25a4.42,4.42,0,0,0,2.57-.77c.29-.2.47-.42.23-.76s-.5-.17-.73,0a3.32,3.32,0,0,1-2.94.48c-.68-.15-1.35-.34-2-.51-.3-.08-.64-.19-.77.23s.21.47.47.58a8.69,8.69,0,0,0,3.19.74" transform="translate(-33.95 -15.39)"/><path class="cls-8" d="M76.79,32.51c14.55-13.39,38.81-20.93,62.93-15.15a67.9,67.9,0,0,1,29.42,14.9c.16.14.16.15.3.69-13.62-10.77-29-16.64-46.32-16.69S90.46,22,76.79,32.51" transform="translate(-33.95 -15.39)"/><path class="cls-8" d="M169.19,106.24a70.11,70.11,0,0,1-42,16.71c-23,1.4-41.66-8.44-50.79-17.16a1.61,1.61,0,0,1,1,.53,79.05,79.05,0,0,0,19.3,11,71.67,71.67,0,0,0,29.4,4.83,72.8,72.8,0,0,0,40.36-14.41l2.52-1.83.18.33" transform="translate(-33.95 -15.39)"/><path class="cls-8" d="M126.77,100.08c.38.39.82.1,1.23.09s.71-.18.75.25-.4.29-.65.35l-.42.09c.06.39.4.53.6.76s.32.41.11.6-.39,0-.53-.15l-.64-.77c-.34.48-.07,1.28-.56,1.21-.65-.09-.11-.77-.2-1.18,0-.25.17-.56-.15-.77-.07-.12-.16-.32-.3-.24s0,.18.11.25c0,.57-.49.24-.75.33-.08.32.39.73-.06.9s-.41-.4-.63-.62c-.24.14-.35.46-.67.45a.56.56,0,0,1,0-.64c.62-.74.11-1.34-.27-2.14v2.81c0,.53.57.6.84.91s.57.36.35.66-.49,0-.71-.17-.23-.22-.43-.17c-.15.33,0,.69-.08,1a.35.35,0,0,1-.26.34.32.32,0,0,1-.35-.33c0-.35,0-.7,0-1.07-.39,0-.53.31-.78.43a.34.34,0,0,1-.43,0,.32.32,0,0,1,.07-.42c.31-.27.63-.53,1-.78a.45.45,0,0,0,.17-.55c-.18-.34-.15.15-.33.11a.91.91,0,0,1-.53-.47c-.31.2-.26.83-.7.64s0-.58,0-.88c-.27-.11-.59.14-.82-.25-.12-.22-.36,0-.34.25s.08.72.12,1.07,0,.54-.24.57-.34-.25-.37-.49,0-.35-.08-.6c-.41.14-.59.46-.85.68s-.33.2-.48.07-.08-.35,0-.49.49-.51.74-.78a1.24,1.24,0,0,0-.77-.2c-.2,0-.38-.11-.38-.31s.24-.31.44-.29.67.08,1,.11.43.08.56-.15-.23-.13-.28-.31a1.16,1.16,0,0,1,0-.58c-.34-.18-.81.35-.95-.16s.41-.38.63-.59c-.07-.25-.57-.34-.33-.68s.53,0,.73.1c.71.51,1.18-.16,1.75-.4-.88,0-1.75,0-2.63,0-.44,0-.51.46-.77.69s-.39.81-.79.48.19-.59.33-.88c0-.07.06-.13.15-.3-.44,0-.81,0-1.18,0a.33.33,0,0,1-.35-.25c0-.2.14-.33.34-.34s.72,0,1.11,0c0-.36-.28-.5-.41-.73s-.18-.35,0-.49a.31.31,0,0,1,.47.09c.82,1.71,2.36.95,3.64,1.07-.49-.28-.91-.79-1.59-.38-.24.15-.54.47-.8.13s.26-.42.33-.67c-.2-.25-.79-.23-.59-.66s.55,0,.85,0c.11-.26-.11-.66.32-.78.08.05.2.21.26.05s-.12-.22-.25-.28c-.38-.32-.78,0-1.17,0s-.71.21-.76-.23.37-.34.65-.38.31,0,.44-.14c-.1-.33-.42-.48-.63-.73s-.26-.36-.1-.55.37,0,.53.12.4.52.75.62c.2-.2.11-.44.14-.66s.13-.44.36-.43.27.25.25.47-.08.61-.1.91-.09.79.46.35c.21-.17.45,0,.7-.13,0-.12-.09-.23-.12-.34s-.12-.43.14-.53.35.09.41.26c.14.39.28.45.52.08,0,0,.1,0,.12-.08.15-.33.4.45.51,0s-.28-.5-.48-.72-1-.45-.66-.92.65.28,1,.4l.14,0c0-.34,0-.69,0-1a.34.34,0,0,1,.32-.37c.19,0,.29.18.29.39s0,.66,0,1c.36.08.48-.16.66-.28s.37-.27.54-.07,0,.41-.18.58c-.33.34-.88.45-1,1V95.5c.39-.8.89-1.39.27-2.14-.18-.21-.07-.43,0-.64a1,1,0,0,1,.59.46c.32-.13.24-.81.71-.6s0,.54,0,.83c.22.17.66-.14.78.4,0,.17.33-.1.33-.27a8.93,8.93,0,0,0-.1-1.15c0-.24,0-.52.22-.57s.34.24.37.47a1.92,1.92,0,0,0,.32.79c.22-.28.42-.57.65-.85s.31-.23.46-.07a.36.36,0,0,1,0,.49c-.21.28-.55.45-.68.8.23.21.5.12.74.17s.36.15.34.36-.21.27-.4.25l-1.07-.14a.47.47,0,0,0-.49.14c-.2.31.16.22.24.34a.78.78,0,0,1,.06.52,1.09,1.09,0,0,1,0,.18l.16-.06c.26,0,.63-.28.76.06s-.42.4-.6.65c.09.25.57.36.33.68s-.53,0-.75-.11c-.69-.5-1.15.1-1.7.39h2.5a.64.64,0,0,0,.56-.33l.63-.78a.33.33,0,0,1,.47-.11.35.35,0,0,1,0,.48l-.54.74c.48,0,.83,0,1.17,0s.38.09.37.3-.18.29-.38.29H129c0,.34.28.48.41.69s.21.39,0,.54-.34,0-.47-.13l-.89-1.06s-.15,0-.22,0c-.86,0-1.72,0-2.58.07.58.24,1.08.83,1.78.29.2-.16.49-.35.68-.08s-.2.44-.37.7c.21.22.82.22.65.64s-.58,0-.89,0c-.17.22.23.74-.38.74l-.15-.08A1.57,1.57,0,0,0,125,98.26l1.58,1.62.23.2m-6,.32a.15.15,0,0,0,.2-.11c.95,0,1.24-.6,1.38-1.5a7.58,7.58,0,0,0-1.44,1.45c-.1,0-.16.06-.13.18l-.15.09,0,0,.09-.16m5.71-5.73a8.16,8.16,0,0,0-1.42,1.4c1.25-.24,1.3-.29,1.5-1.32,0-.06.06-.16,0-.17s-.11,0-.13.09m-5,3.69a1.2,1.2,0,0,0-1.17,1.39l1.34-1.25.15-.22c-.13-.08-.22,0-.32.08m3.24-2.93A8.3,8.3,0,0,0,126,94.08a1.22,1.22,0,0,0-1.42,1.21.2.2,0,0,0-.08.3l.21-.16m-2.87.65s0,.06,0,.1l.09,0-.09-.07a14,14,0,0,0-1.53-1.58c.12,1.23.34,1.44,1.54,1.57m.37-.53c.06,0,.09.19.19.11s0-.17-.07-.23c-.19-.76-.44-1.45-1.51-1.33a9.6,9.6,0,0,0,1.39,1.45m.69,1.16s0-.07,0-.1l-.06,0,.09.07c0,.08,0,.17,0,.23-.38.58.08.83.46.92s.59-.17.71-.54-.25-.42-.12-.67a1.25,1.25,0,0,0-1,.07m1.58,2c.27,1.34.45,1.52,1.47,1.51a10.47,10.47,0,0,0-1.47-1.51m-1.43.38c-.7,1.17-.7,1.27,0,2.06Zm0-6c-.69,1-.68,1.32,0,2.11Zm-2.35.73,0,0,0,.1s0,0,0,0a.31.31,0,0,0,0-.1" transform="translate(-33.95 -15.39)"/><path class="cls-8" d="M87.72,94.94q35.22,25,70.32.07c-1.52,3.06-13.91,9.62-22.37,11.65a53.68,53.68,0,0,1-25.45,0c-8.75-2.1-19.5-7.78-22.5-11.74" transform="translate(-33.95 -15.39)"/><path class="cls-8" d="M158.3,46.46q-35.4-25.14-70.59-.08c.08-.1.17-.25.29-.38a6.14,6.14,0,0,1,.45-.43,53.5,53.5,0,0,1,34.14-12.44,53.21,53.21,0,0,1,33.49,11.28,13.27,13.27,0,0,1,2.22,2.05" transform="translate(-33.95 -15.39)"/><path class="cls-9" d="M121.83,28.27c.33.14.6.27.88.38s.36,0,.3.23a.43.43,0,0,1-.25.26.84.84,0,0,1-.87-.1,4.67,4.67,0,0,1-2.35-4.71,4.61,4.61,0,0,1,.42-1.94,1.27,1.27,0,0,1,2.17-.21,6.35,6.35,0,0,1,.33,5.4,6.08,6.08,0,0,1-.63.69m0-2.8a8.4,8.4,0,0,0-.25-2.82c-.07-.22-.16-.45-.44-.46s-.41.2-.44.44a13.5,13.5,0,0,0,.22,4.66c.06.25.19.53.51.47s.38-.33.39-.59c0-.57,0-1.13,0-1.7" transform="translate(-33.95 -15.39)"/><path class="cls-9" d="M103.31,28.51c.44.92.39,1.85,1,2.52.19.19.07.32-.14.38s-.53.18-.81.25-.33,0-.38-.35A17,17,0,0,0,101.35,26c-.15-.28-.15-.42.15-.51s.83-.26,1.26-.34a1.37,1.37,0,0,1,1.56.57,1.64,1.64,0,0,1,.08,1.94c-.19.27-.35.44.08.62a1.4,1.4,0,0,1,.61.68c.25.42.5.83.77,1.24.12.18.58.31.22.56s-.72.51-1-.07-.63-1.06-1-1.58a1,1,0,0,0-.77-.63m.45-1.29a2.37,2.37,0,0,0-.43-1.29.53.53,0,0,0-.69-.18c-.26.14,0,.36,0,.54a6.88,6.88,0,0,0,.34,1.09c.09.21,0,.61.37.57s.41-.41.4-.73" transform="translate(-33.95 -15.39)"/><path class="cls-9" d="M129.61,114.38c.23,1.26,0,2.59.64,3.75.07.12.1.29,0,.33a4,4,0,0,1-.84.14c-.16,0-.19-.16-.17-.29.29-1.45-.25-2.83-.37-4.24,0-.5,0-1-.38-1.46-.14-.14-.09-.33.09-.36.38,0,.81-.34,1.1.17l1,1.83a1.3,1.3,0,0,0,.53.68,7.7,7.7,0,0,0-.53-2.58c-.06-.1-.19-.23,0-.33a1.37,1.37,0,0,1,.82-.16c.14,0,.28.1.24.23-.36,1.17.16,2.28.22,3.42.05.74.2,1.47.29,2.21,0,.19.13.45-.14.54s-.34-.19-.43-.35l-1.8-3.32a1.9,1.9,0,0,0-.19-.21" transform="translate(-33.95 -15.39)"/><path class="cls-9" d="M148.61,27.86a6.29,6.29,0,0,1-1.51,3.42,2.39,2.39,0,0,1-3,0,.21.21,0,0,1,0-.33c1-1.14,1.18-2.63,1.77-3.95.2-.44.56-.87.36-1.44,0-.15.09-.26.29-.26a2.44,2.44,0,0,1,2.16,2.53m-.83-.76c0-.37-.09-.73-.42-.81s-.33.33-.41.53c-.51,1.24-1,2.48-1.46,3.73-.08.23-.42.53,0,.74s.61-.06.8-.32a10.1,10.1,0,0,0,1.53-3.87" transform="translate(-33.95 -15.39)"/><path class="cls-9" d="M93.39,32.06c1.13.19,1.67.64,1.8,1.5A2.49,2.49,0,0,1,93,35.84a.23.23,0,0,1-.23-.24c0-1.18-.79-2.09-1.24-3.1-.32-.73-.46-1.58-1.19-2.1-.2-.15-.07-.33.12-.42a8.55,8.55,0,0,1,1.48-.61,1.58,1.58,0,0,1,1.74,2.06,5.11,5.11,0,0,1-.29.63M94.31,34a1.92,1.92,0,0,0-.87-1.37.55.55,0,0,0-.59,0c-.21.15,0,.33.05.47.18.42.37.85.59,1.25.11.19.07.6.44.5s.41-.37.38-.85M93,31.47a2.3,2.3,0,0,0-.74-1.39.49.49,0,0,0-.63,0c-.21.15,0,.33.06.47.17.4.35.79.55,1.18.09.17.08.53.41.42s.32-.37.35-.63" transform="translate(-33.95 -15.39)"/><path class="cls-9" d="M156,108.93a2.59,2.59,0,0,1-1.92,2.29c-.22,0-.23-.12-.29-.27a16.52,16.52,0,0,0-2.73-5c-.15-.19-.18-.26,0-.43a2.35,2.35,0,0,1,3.39.12,5.87,5.87,0,0,1,1.55,3.26m-.76.5a7.59,7.59,0,0,0-1-2.3,5.34,5.34,0,0,0-1.16-1.52c-.23-.19-.51-.32-.76-.1s0,.42.14.6c.66,1.22,1.32,2.43,2,3.63.1.19.15.53.41.46s.4-.37.37-.77" transform="translate(-33.95 -15.39)"/><path class="cls-9" d="M159.08,33a5.49,5.49,0,0,1-2.6,3.73,2.88,2.88,0,0,1-2.58-.8c-.08-.16,0-.23.12-.32a17.15,17.15,0,0,0,3-4.83c.09-.22.15-.28.38-.2A2.46,2.46,0,0,1,159.08,33m-.77-.62c0-.42,0-.64-.27-.75s-.26.09-.34.21c-.81,1.31-1.61,2.62-2.42,3.92-.24.39,0,.51.32.51a1,1,0,0,0,.76-.47,10.35,10.35,0,0,0,1.81-2.92,4.91,4.91,0,0,0,.14-.5" transform="translate(-33.95 -15.39)"/><path class="cls-9" d="M100.22,31.44c0,.87-.12,1.5-.86,1.76a1.45,1.45,0,0,1-1.7-.58,7.07,7.07,0,0,1-1.54-3.95,1.43,1.43,0,0,1,.81-1.6,1.48,1.48,0,0,1,1.76.61,7.67,7.67,0,0,1,1.53,3.76m-.77.79a15.52,15.52,0,0,0-1.77-4.49.44.44,0,0,0-.52-.23c-.27.1-.28.36-.25.59a12.09,12.09,0,0,0,.69,2.29,8.63,8.63,0,0,0,1,2.09c.15.19.33.35.59.27s.26-.29.29-.52" transform="translate(-33.95 -15.39)"/><path class="cls-9" d="M126.75,116.29a3.9,3.9,0,0,1-.42,2.09,1.24,1.24,0,0,1-2.2.1,5.94,5.94,0,0,1-.35-5.2,1.2,1.2,0,0,1,1.14-.79,1.37,1.37,0,0,1,1.23.81,6.29,6.29,0,0,1,.6,3m-1.07-.05a8.85,8.85,0,0,0-.26-2.62c-.08-.29-.15-.68-.55-.61s-.41.42-.41.73c0,.67,0,1.34,0,2a17.73,17.73,0,0,0,.2,2.06c0,.33.12.82.57.79s.44-.5.45-.85,0-.87,0-1.5" transform="translate(-33.95 -15.39)"/><path class="cls-9" d="M109.3,115.44a7,7,0,0,1,1.06-3.65,1.41,1.41,0,0,1,1.5-.73,1.31,1.31,0,0,1,1,1.28,6.73,6.73,0,0,1-1,4.35,1.35,1.35,0,0,1-1.53.78,1.46,1.46,0,0,1-1.1-1.49,4.86,4.86,0,0,1,0-.54m2.81-3c-.06-.35.14-.79-.35-.94-.26-.08-.43.14-.52.36a16,16,0,0,0-1.12,4.45c0,.27,0,.62.4.66s.44-.22.53-.47a18,18,0,0,0,1.06-4.06" transform="translate(-33.95 -15.39)"/><path class="cls-9" d="M160.81,106.92a1.23,1.23,0,0,1-1.88,1.2,5.8,5.8,0,0,1-2.84-4.35,1.23,1.23,0,0,1,1.82-1.23,6.33,6.33,0,0,1,2.9,4.38m-3.65-4c-.36,0-.54.32-.33.76a15.8,15.8,0,0,0,2.4,3.74c.19.21.43.43.74.24s.19-.5.07-.75a16.55,16.55,0,0,0-2.27-3.56,1.29,1.29,0,0,0-.61-.43" transform="translate(-33.95 -15.39)"/><path class="cls-9" d="M111.69,29.43c-.19.05-.3-.05-.27-.29.16-1.61-.49-3.11-.69-4.68,0-.27,0-.59-.22-.8-.43-.41-.19-.54.23-.61s1-.16,1.44-.26a.81.81,0,0,1,1,1.07A.35.35,0,0,1,113,24c-.12.06-.19,0-.24-.12a3.26,3.26,0,0,0-.24-.4c-.22-.27-.5-.21-.78-.12s-.18.33-.15.53c.08.45.17.9.27,1.36,0,.13,0,.33.2.36s.29-.14.33-.33,0-.34.23-.35.22.25.27.4a2.46,2.46,0,0,1,.08.46c0,.27.29.61,0,.79s-.35-.26-.56-.36-.41-.09-.36.23c.12.66.26,1.31.38,2,0,.22.15.3.37.24s.59-.11.69-.51-.1-.78.31-.75.23.55.33.85.08.71-.49.77-1.31.24-2,.38" transform="translate(-33.95 -15.39)"/><path class="cls-9" d="M127,21.84a28.05,28.05,0,0,0-.37,5.1c0,.34.1.69.54.71s.57-.34.6-.67c.07-1.16.11-2.31.14-3.47,0-.45.21-.92-.13-1.34a.2.2,0,0,1,.06-.33,1.24,1.24,0,0,1,.83,0c.14,0,.16.19.1.32-.48,1.21-.2,2.49-.32,3.73,0,.41,0,.82-.1,1.23a1.34,1.34,0,0,1-2.66-.2c0-1.13,0-2.26.08-3.39,0-.26,0-.52,0-.77,0-1.16,0-1.16,1.19-.93" transform="translate(-33.95 -15.39)"/><path class="cls-9" d="M160.57,39.61l.44-.24c.18-.1.36-.4.58-.14s-.12.4-.23.56c-.54.81-.55.81-1.35.22-.48-.35-1.19-.61-1.36-1.08s.66-.74.95-1.22c.62-1,1.37-1.92,2.07-2.87.06-.09.1-.21.18-.25.35-.17-.07-.87.49-.78.32,0,.59.38.89.58l.5.36c.78.57.78.61.15,1.32-.1.11-.18.3-.36.21s-.1-.25-.06-.4a1.18,1.18,0,0,0,.09-.37c0-.3-.24-.44-.45-.57s-.36.08-.48.23c-.27.37-.55.74-.81,1.12-.09.13-.31.27-.12.46s.28.07.42,0,.33-.25.47-.05-.07.32-.16.47a3,3,0,0,1-.37.49c-.14.16-.19.5-.48.41s-.11-.34-.08-.53a.28.28,0,0,0-.15-.32c-.16-.07-.24,0-.31.15-.34.46-.68.91-1,1.37-.1.15-.35.29-.17.52a1,1,0,0,0,.71.36" transform="translate(-33.95 -15.39)"/><path class="cls-9" d="M139.92,116a13.25,13.25,0,0,0-.41-1.48c-.44-1.21-.44-2.58-1.24-3.67-.16-.22,0-.31.23-.37.67-.19,1.34-.37,2-.57.29-.09.4,0,.43.27s.38.69.12,1c-.13.17-.3-.09-.38-.25a.62.62,0,0,0-.92-.26c-.38.17-.12.49-.07.74a7.44,7.44,0,0,0,.22.81c.08.24,0,.61.29.66s.31-.31.35-.54a.2.2,0,0,1,.21-.18.21.21,0,0,1,.22.18c.08.27.16.54.23.81s.23.49,0,.65-.32-.14-.45-.28a.31.31,0,0,0-.35-.1c-.19.1-.09.27,0,.41.13.52.28,1,.43,1.56.06.24.06.55.45.47a.73.73,0,0,0,.66-.56c.06-.27-.17-.77.24-.77s.26.53.41.82c.26.51,0,.71-.48.82s-1.08.3-1.63.44-.55.14-.52-.63" transform="translate(-33.95 -15.39)"/><path class="cls-9" d="M135.47,111.25c.17.06.46-.27.58,0a7.77,7.77,0,0,1,.28,1.27s-.08.14-.14.15-.22-.08-.29-.2c-.23-.38-.39-1-1-.73s-.32.81-.27,1.24a12.14,12.14,0,0,0,.9,3.65c.13.3.28.69.71.52s.22-.51.15-.8a6.82,6.82,0,0,0-.26-.88c-.07-.19-.57-.21-.33-.46a1.6,1.6,0,0,1,.93-.26c.35,0,.29.29.34.49a4.82,4.82,0,0,0,.28,1.19c.34.58,0,.79-.39,1a1.61,1.61,0,0,1-2.3-.53,5.76,5.76,0,0,1-.76-4.5c.18-.74.58-1.34,1.55-1.18" transform="translate(-33.95 -15.39)"/><path class="cls-9" d="M95.81,106c.11-.44-.18-.61-.5-.76s-.39.21-.51.39c-.22.34-.41.71-.6,1.08-.07.14-.28.29-.09.47s.33.06.48-.07.25-.22.4-.08,0,.28,0,.41-.21.42-.33.61-.14.52-.43.46S94,108.22,94,108s0-.27-.18-.31-.25.13-.32.25c-.27.47-.53.94-.78,1.42-.09.19-.36.39-.07.6s.57.39.91.12l.4-.37a.26.26,0,0,1,.35,0c.15.1.06.22,0,.33a6,6,0,0,0-.32.61c-.17.47-.42.48-.81.24-.55-.33-1.13-.61-1.69-.93-.17-.09-.47-.22-.18-.43.78-.56,1-1.48,1.44-2.24A7.6,7.6,0,0,0,94,105c.22-1.15.67-.64,1.17-.37a4.64,4.64,0,0,0,.82.44c.74.23.65.63.29,1.12-.12.15-.14.46-.4.39s-.09-.34-.07-.52" transform="translate(-33.95 -15.39)"/><path class="cls-9" d="M153.46,28.65c-.21.78-.46,1.56-.63,2.37-.24,1.16-.87,2.24-.76,3.49,0,.23-.18.29-.38.18l-.76-.38c-.36-.16-.44-.27,0-.55s.55-1,.13-1.23c-.62-.37-1.07-.11-1.12.69,0,.19,0,.43-.18.43a1.05,1.05,0,0,1-.8-.41c-.17-.23.11-.31.27-.43a2.31,2.31,0,0,0,.53-.55c.92-1.24,2-2.36,2.78-3.69.2-.34.48-.23.74-.23s.29.09.22.31M152,30.52l-.13-.1c-.28.35-.56.7-.83,1.06-.09.11-.25.24-.08.39a1,1,0,0,0,.47.22c.18,0,.2-.19.24-.33l.33-1.24" transform="translate(-33.95 -15.39)"/><path class="cls-9" d="M132,26.84c-.48,0-.74.45-.57,1,0,.17.23.36,0,.46a1,1,0,0,1-.89-.1c-.26-.14,0-.32.1-.49a33.47,33.47,0,0,0,1.69-4.94.71.71,0,0,1,.72-.62c.41,0,.25.38.27.6.13,1.53.23,3.07.35,4.61,0,.13,0,.26,0,.38.14,1,.14,1-.84.8-.43-.07-.62-.09-.25-.58a.71.71,0,0,0-.6-1.16m.48-2.3h-.11c-.15.45-.3.9-.47,1.35s0,.4.32.45.43,0,.4-.35c0-.48-.09-1-.14-1.45" transform="translate(-33.95 -15.39)"/><path class="cls-9" d="M88.93,38c-.15.27-.47.34-.73.47a.22.22,0,0,1-.32-.22,6,6,0,0,0-.55-2.37,18.38,18.38,0,0,0-1-3c-.2-.4.11-.61.3-.78s.38.14.5.28c1,1.17,2,2.36,3,3.55.1.12.19.24.3.35.69.71.69.69-.27,1.15-.35.18-.53.2-.48-.27a.83.83,0,0,0-.61-.88.69.69,0,0,0-.8.44.78.78,0,0,0,.44,1,.35.35,0,0,1,.24.3m-1.49-3.64.43,1.44c.06.22.15.38.41.19s.49-.18.24-.48a4.76,4.76,0,0,0-1.08-1.15" transform="translate(-33.95 -15.39)"/><path class="cls-9" d="M148.94,113c-.28-1.28-.55-2.56-.84-3.83a5.12,5.12,0,0,0-.34-1.25c-.23-.46.11-.64.34-.81s.37.15.48.31q1.36,1.91,2.71,3.83a3.19,3.19,0,0,1,.26.38c.12.27.68.26.53.55s-.73.44-1.13.58-.27-.12-.26-.37c0-.68-.42-1.07-.91-.87a.7.7,0,0,0-.22,1.25c.13.13.47.18.3.42a1,1,0,0,1-.81.37c-.35,0-.15-.35-.11-.56m-.1-3.61-.13.06c.11.47.23.93.3,1.4s.22.33.47.23.44-.17.21-.48-.57-.81-.85-1.21" transform="translate(-33.95 -15.39)"/><path class="cls-9" d="M104.22,115c.1.22.21.44,0,.5a1,1,0,0,1-.85-.25c-.23-.19,0-.34.18-.47a3.39,3.39,0,0,0,.7-1.09,35.61,35.61,0,0,0,2-3.64c.14-.36.47-.27.72-.24s.2.36.17.54c-.16,1.45-.34,2.9-.52,4.36a3.85,3.85,0,0,1-.09.76c-.1.28.4.7,0,.78a2.11,2.11,0,0,1-1.22-.36c-.29-.16,0-.3.14-.44.37-.39.34-1-.05-1.2-.23-.09-.5-.3-.71-.07a1,1,0,0,0-.39.82m1.67-3a7.29,7.29,0,0,0-.77,1.21c-.16.24-.15.4.17.5s.47.1.51-.28a5.34,5.34,0,0,0,.08-1.44l.05,0,0,0" transform="translate(-33.95 -15.39)"/><path class="cls-9" d="M91.78,104.05a2.52,2.52,0,0,0,.06-.35c0-.34-.21-.5-.48-.63s-.37.17-.49.34c-.26.38-.5.78-.73,1.18-.09.13-.28.28-.08.46a.33.33,0,0,0,.43,0c.15-.09.31-.25.47,0s0,.33-.13.47a4.15,4.15,0,0,1-.32.53c-.1.14-.15.38-.36.34s-.19-.26-.18-.44,0-.37-.27-.4-.26.15-.32.27c-.31.66-1,1.14-1,2,0,.22-.18.3-.38.18s-.52-.33-.79-.49-.17-.24,0-.42a15.14,15.14,0,0,0,3-4.87c.09-.25.24-.22.41-.11.62.37,1.22.76,1.84,1.12.28.17.18.35.06.5s-.26.73-.67.79c-.18,0-.2-.19-.11-.39" transform="translate(-33.95 -15.39)"/><path class="cls-9" d="M85.68,39.23a1.94,1.94,0,0,1-1.63,1.66,3.66,3.66,0,0,1-.9-1.47c.08-.2.21-.19.35-.05l.38.38c.3.28.66.49,1,.15s.2-.71,0-1A2.38,2.38,0,0,0,83.33,38,2.81,2.81,0,0,1,81.52,37c-.88-1.31-.52-2.06.9-2.54.32-.11.37.22.47.4s.47.49.4.87c0,.09-.16.11-.26,0a2.23,2.23,0,0,1-.24-.19c-.34-.22-.71-.76-1.07-.16s.15.88.57,1.07,1.18.38,1.75.59a2.38,2.38,0,0,1,1.64,2.12" transform="translate(-33.95 -15.39)"/><path class="cls-9" d="M119.3,116.38c0,.43,0,.87.08,1.3,0,.27.12.59.46.64s.51-.24.66-.52,0-.64.44-.44.08.46,0,.69a1.16,1.16,0,0,1-1.07.86,1.3,1.3,0,0,1-1.18-.73,6.16,6.16,0,0,1,.51-5.37,1.69,1.69,0,0,1,2.09-.21,2.34,2.34,0,0,1-.09,1.48c-.26.13-.3-.09-.36-.25-.15-.38-.07-1-.66-1s-.51.7-.6,1.13a13.34,13.34,0,0,0-.27,2.37" transform="translate(-33.95 -15.39)"/><path class="cls-9" d="M138.8,28.45c-.05.23-.11.43-.14.63,0,.46-.23.61-.71.46s-1.15-.26-1.73-.39c-.2,0-.47-.12-.28-.4.83-1.24.75-2.73,1.15-4.09a2.14,2.14,0,0,0,.14-1.5c-.1-.23.08-.33.3-.29s.6.13.9.2.27.17.15.39c-.84,1.56-.85,3.35-1.32,5,0,.13-.11.31.1.38a.62.62,0,0,0,.66-.06,2.15,2.15,0,0,0,.35-.5c.07-.12.15-.22.3-.19s.13.23.13.34" transform="translate(-33.95 -15.39)"/><path class="cls-9" d="M144.87,115.13c-.24,0-.37-.11-.3-.26.28-.56-.1-1-.24-1.46-.32-1.06-.69-2.1-1.05-3.14-.06-.2-.1-.45-.24-.56-.71-.61-.12-.66.32-.82s.68-.3.74.47a12.72,12.72,0,0,0,.84,2.79c.18.56.36,1.13.57,1.68.07.17,0,.53.39.44a.64.64,0,0,0,.53-.58c0-.26-.19-.69.16-.73s.3.46.44.7c.31.52.12.78-.43.92s-1.18.37-1.73.55" transform="translate(-33.95 -15.39)"/><path class="cls-9" d="M99.86,113.6c.5-.12.55-.45.67-.73.5-1.2,1-2.41,1.49-3.62a3.88,3.88,0,0,1,.15-.36c.13-.24-.21-.65.16-.73s.72.23,1.07.36c.19.07.2.22.06.37-.88.92-1,2.19-1.59,3.27a14.25,14.25,0,0,1-.64,1.3,1.26,1.26,0,0,1-1.69.45.76.76,0,0,1-.45-1,.42.42,0,0,1,.55-.3c.53.14.25.56.22.94" transform="translate(-33.95 -15.39)"/><path class="cls-9" d="M143.73,24.63c0,.13,0,.19-.06.22-.95,1.39-1,3.08-1.62,4.6a5,5,0,0,0-.14.52c-.07.23.32.65-.15.68a3.06,3.06,0,0,1-1.16-.36c-.08,0-.06-.17,0-.27.87-1.23,1-2.73,1.46-4.09.16-.44.44-.89.22-1.4a.2.2,0,0,1,.05-.21c.25-.2.48,0,.72.07s.45.16.67.24" transform="translate(-33.95 -15.39)"/><path class="cls-9" d="M99.73,106.92a2.89,2.89,0,0,1-.14.27c-1.19,1.35-1.62,3.11-2.46,4.64a1,1,0,0,0,0,.45c0,.28-.1.4-.37.29s-.55-.27-.83-.4-.2-.24-.06-.42a15.14,15.14,0,0,0,2.47-5.09c.08-.27.14-.36.4-.24l1,.5" transform="translate(-33.95 -15.39)"/><path class="cls-9" d="M106.56,109c-.16,0-.31.38-.47,0,0-.09.08-.29.18-.4a.43.43,0,0,1,.54-.16c.39.15.59.84,1.21.44.08-.06.11.18.06.3s-.29.47-.58.38a1.52,1.52,0,0,1-.5-.35c-.13-.11-.22-.29-.44-.26" transform="translate(-33.95 -15.39)"/><path class="cls-10" d="M202.69,111.7l-.09.1c0-.11,0-.13.1-.09Z" transform="translate(-33.95 -15.39)"/><path class="cls-10" d="M187.25,80.92c.06,0,.15,0,.09.13s-.12,0-.15-.07Z" transform="translate(-33.95 -15.39)"/><path class="cls-10" d="M185.33,58.2s.12-.12.13-.11,0,.14,0,.22l-.13-.11" transform="translate(-33.95 -15.39)"/><path class="cls-9" d="M149.46,57.14v1.43a1.1,1.1,0,0,1,0-1.43" transform="translate(-33.95 -15.39)"/><path class="cls-9" d="M149.44,81c-.33-.58-.33-.76,0-1.45Z" transform="translate(-33.95 -15.39)"/><path class="cls-11" d="M120.22,74.16a12.65,12.65,0,0,1,0-2.75,3.27,3.27,0,0,1,1.35-2.28c-.18-.09-.28-.2-.39-.2-1,0-1.09-.53-1-1.33.1-1.07-.08-2.15.09-3.22a2,2,0,0,1,.5.19c.66.45,1,.32,1.26-.47.41-1.31.92-2.6,1.43-4,.44,1.23.82,2.3,1.19,3.38.51,1.5.51,1.51,2,1,0,1.22,0,2.45,0,3.68,0,.52-.15.75-.65.78a1,1,0,0,0-.73.31,3.21,3.21,0,0,1,1.37,3.21c0,.59,0,1.18,0,1.77-.19-.09-.37-.2-.56-.27-.87-.37-.87-.37-1.2.57-.44,1.25-.89,2.5-1.38,3.86a4.71,4.71,0,0,1-.25-.48c-.34-.93-.69-1.87-1-2.81-.53-1.53-.53-1.53-2-.86" transform="translate(-33.95 -15.39)"/><path class="cls-11" d="M117.49,70.44a7.26,7.26,0,0,1,0-2.46l.66-.18a11.49,11.49,0,0,1,0,2.81l-.67-.17" transform="translate(-33.95 -15.39)"/><path class="cls-12" d="M129.34,70.45l-.66.16a22,22,0,0,1,0-2.81l.7.15c0,.84,0,1.67,0,2.5" transform="translate(-33.95 -15.39)"/><path class="cls-11" d="M118.12,73.23v-.17a.56.56,0,0,1,0,.12s0,0,0,0" transform="translate(-33.95 -15.39)"/><path class="cls-9" d="M109.41,56a3.68,3.68,0,0,1-.13,1.68,2.06,2.06,0,0,1,.13-1.68" transform="translate(-33.95 -15.39)"/><path class="cls-9" d="M109.43,79a2.69,2.69,0,0,1-.16-2,4.74,4.74,0,0,1,.16,2" transform="translate(-33.95 -15.39)"/><path class="cls-13" d="M105.89,112l0,0-.05,0h0" transform="translate(-33.95 -15.39)"/></g></g></g></svg>