<?xml version="1.0" encoding="UTF-8" standalone="no"?>
<svg
   xmlns:dc="http://purl.org/dc/elements/1.1/"
   xmlns:cc="http://creativecommons.org/ns#"
   xmlns:rdf="http://www.w3.org/1999/02/22-rdf-syntax-ns#"
   xmlns:svg="http://www.w3.org/2000/svg"
   xmlns="http://www.w3.org/2000/svg"
   viewBox="0 0 793.70135 1122.52"
   height="1122.52"
   width="793.70135"
   xml:space="preserve"
   id="svg2"
   version="1.1"><metadata
     id="metadata8"><rdf:RDF><cc:Work
         rdf:about=""><dc:format>image/svg+xml</dc:format><dc:type
           rdf:resource="http://purl.org/dc/dcmitype/StillImage" /></cc:Work></rdf:RDF></metadata><defs
     id="defs6"><clipPath
       id="clipPath18"
       clipPathUnits="userSpaceOnUse"><path
         id="path16"
         d="M 0,841.89 H 595.276 V 0 H 0 Z" /></clipPath></defs><g
     transform="matrix(1.3333333,0,0,-1.3333333,0,1122.52)"
     id="g10"><g
       id="g12"><g
         clip-path="url(#clipPath18)"
         id="g14"><g
           transform="translate(436.9541,415.0431)"
           id="g20"><path
             id="path22"
             style="fill:#db9703;fill-opacity:1;fill-rule:nonzero;stroke:none"
             d="M 0,0 C 0.087,-0.185 0.262,-0.354 0.409,-0.175 0.578,0.03 0.321,0.099 0.16,0.159 c -3.917,5.249 -6.194,11.18 -7.401,17.577 -1.042,5.518 -1.539,11.094 -1.656,16.69 -0.189,9.09 0.255,18.109 4.246,26.545 0.122,0.197 0.292,0.407 0.014,0.591 -0.035,0.022 -0.227,-0.191 -0.346,-0.294 -2.218,-2.107 -3.466,-4.797 -4.441,-7.611 -3.04,-8.775 -3.714,-17.808 -2.761,-26.993 0.675,-6.505 2.079,-12.823 5.259,-18.612 C -5.192,4.897 -3.229,1.892 0,0 m 41.691,-82.598 c 3.084,4.189 4.75,8.98 5.74,14.006 2.007,10.203 1.886,20.435 0.012,30.643 -0.36,1.957 -0.972,3.881 -2.092,5.603 0.171,-2.696 -0.019,-5.338 -0.012,-7.977 0.014,-5.179 -0.03,-10.355 -0.233,-15.535 -0.267,-6.84 -0.814,-13.626 -2.064,-20.368 -0.398,-2.148 -1.532,-4.144 -1.323,-6.407 -0.243,0.099 -0.352,0.046 -0.262,-0.231 z M 47.176,26.75 c -1.246,-2.626 -3.321,-3.084 -5.789,-3.001 -3.531,0.118 -7.069,0.075 -10.601,0.006 -1.287,-0.025 -1.539,0.412 -1.274,1.592 0.288,1.284 0.98,2.284 1.868,3.167 2.505,2.491 3.511,5.588 3.631,9.01 0.218,6.241 0.116,12.473 -1.688,18.52 C 31.657,61.627 28.71,66.104 22.578,67.572 14.86,69.42 8.23,66.128 5.13,58.859 2.884,53.594 2.474,47.998 2.442,42.384 2.4,34.562 2.45,26.737 2.628,18.918 2.722,14.756 3.494,10.667 5.113,6.788 7.632,0.755 12.298,-2.349 18.852,-2.396 29.587,-2.472 38.827,-6.354 46.726,-13.5 c 1.073,-0.971 1.563,-1.167 2.734,-0.058 4.563,4.324 11.847,5.162 17.066,2.049 -1.011,-0.858 -2.075,-1.601 -2.941,-2.527 -2.651,-2.835 -4.111,-6.168 -4.103,-10.12 0.027,-12.257 0.142,-24.516 -0.022,-36.77 -0.219,-16.325 -7.463,-28.711 -21.811,-36.567 -24.464,-13.396 -56.086,3.071 -59.194,30.692 -0.347,3.088 -0.462,6.202 -0.778,9.294 -0.254,2.477 -1.27,4.65 -2.991,6.476 -0.38,0.402 -0.753,0.816 -1.085,1.258 -0.806,1.071 -1.652,2.378 -1.094,3.586 0.441,0.957 1.896,0.364 2.889,0.382 3.255,0.06 6.513,0.005 9.77,0.029 2.106,0.014 3.807,-0.645 4.932,-3.064 1.544,3.342 4.367,3.108 7.15,3.068 3.049,-0.044 6.102,-0.094 9.147,0.023 1.675,0.064 1.885,-0.673 1.531,-1.995 -0.239,-0.89 -0.689,-1.71 -1.345,-2.309 -3.037,-2.773 -4.093,-6.315 -4.138,-10.27 -0.069,-6.1 -0.024,-12.2 1.867,-18.086 1.742,-5.426 4.787,-9.633 10.75,-11.004 7.514,-1.727 14.069,1.471 17.193,8.514 2.412,5.437 2.797,11.237 2.819,17.067 0.032,8.724 0.057,17.45 -0.085,26.172 -0.078,4.853 -0.739,9.651 -2.773,14.153 -2.557,5.66 -6.831,8.66 -13.144,8.72 -23.266,0.218 -41.043,18.174 -40.989,41.454 0.014,6.017 -0.368,12.044 0.331,18.052 1.981,17.02 15.754,31.681 32.597,34.672 22.088,3.922 42.394,-9.428 47.476,-31.227 0.726,-3.112 1.013,-6.283 0.996,-9.472 -0.02,-3.954 0.851,-7.546 3.842,-10.378 0.349,-0.33 0.633,-0.734 0.911,-1.129 0.661,-0.938 1.196,-2.138 0.758,-3.09 -0.347,-0.754 -1.641,-0.29 -2.507,-0.301 -3.256,-0.039 -6.516,0.072 -9.769,-0.044 -2.404,-0.086 -4.323,0.539 -5.54,3" /></g><g
           transform="translate(42.2285,339.5099)"
           id="g24"><path
             id="path26"
             style="fill:#db9703;fill-opacity:1;fill-rule:nonzero;stroke:none"
             d="M 0,0 C 2.27,43.033 2.23,86.08 -0.003,129.125 -2.269,86.088 -2.266,43.052 0,0 m 0.081,-23.963 c -1.069,-2.023 -2.542,-2.708 -4.564,-2.646 -3.323,0.1 -6.655,0.118 -9.975,-0.01 -1.799,-0.069 -1.839,0.814 -1.366,2.001 0.325,0.815 0.824,1.636 1.449,2.245 2.458,2.395 3.35,5.418 3.358,8.673 0.05,21.949 0.069,43.898 -0.014,65.847 -0.014,3.763 -1.814,6.899 -4.662,9.385 -0.509,0.445 -1.034,0.87 -1.668,1.403 1.554,0.834 3.035,1.435 4.615,1.453 1.492,0.017 1.792,0.619 1.786,1.996 -0.053,11.01 -0.029,22.018 -0.029,33.028 0,13.986 -0.017,27.973 0.01,41.96 0.008,3.939 -0.727,7.564 -3.715,10.421 -0.343,0.328 -0.616,0.753 -0.84,1.176 -1.082,2.038 -0.698,2.671 1.605,2.675 3.049,0.005 6.1,-0.079 9.145,0.028 2.18,0.078 3.777,-0.643 4.89,-2.98 1.039,2.85 3.209,2.984 5.6,2.978 19.816,-0.044 39.634,-0.024 59.451,-0.025 2.474,0 2.803,-0.545 1.635,-2.76 -0.255,-0.485 -0.555,-0.984 -0.951,-1.35 -2.889,-2.667 -3.579,-6.119 -3.58,-9.825 -0.003,-9.901 -0.057,-19.803 0.046,-29.704 0.021,-1.981 -0.62,-2.174 -2.388,-2.059 -14.167,0.922 -19.474,12.134 -19.586,21.828 -0.023,2.008 0.029,4.017 -0.011,6.024 -0.081,4.146 -2.678,6.716 -6.804,6.73 -5.266,0.018 -10.532,0.026 -15.798,-0.003 -4.112,-0.022 -6.726,-2.655 -6.728,-6.776 -0.011,-20.565 -0.008,-41.129 -0.003,-61.694 0.002,-4.348 2.464,-7.055 6.551,-7.245 4.262,-0.201 6.953,2.261 7.297,6.676 0.559,7.163 5.87,12.101 13.021,12.235 1.244,0.023 1.489,-0.352 1.487,-1.486 -0.03,-15.164 -0.032,-30.327 10e-4,-45.491 0.003,-1.218 -0.22,-1.704 -1.602,-1.593 -7.801,0.629 -12.287,5.012 -12.923,12.761 -0.307,3.739 -3.125,6.003 -7.364,5.913 -3.594,-0.075 -6.41,-2.708 -6.449,-6.237 -0.069,-6.162 -0.021,-12.325 -0.021,-18.487 0,-15.095 0.03,-30.19 -0.02,-45.284 -0.013,-4.017 0.657,-7.708 3.711,-10.621 0.343,-0.328 0.614,-0.755 0.839,-1.178 1.071,-2.018 0.714,-2.599 -1.57,-2.601 -3.048,-0.002 -6.1,0.078 -9.145,-0.027 -2.068,-0.073 -3.677,0.492 -4.721,2.646" /></g><g
           transform="translate(335.4385,414.9376)"
           id="g28"><path
             id="path30"
             style="fill:#db9806;fill-opacity:1;fill-rule:nonzero;stroke:none"
             d="M 0,0 V 3.905 C -0.89,2.042 -0.881,1.561 0,0 m 0.064,64.226 c -0.818,-1.14 -1.085,-2.282 0,-3.856 z M -0.753,59.542 C -1.28,40.976 -1.351,22.999 -0.676,4.885 1.041,7.37 1.183,56.302 -0.753,59.542 M -30.318,0.37 c 1.388,21.331 1.382,42.694 -0.005,64.056 -1.233,-21.341 -1.232,-42.681 0.005,-64.056 M 10.063,31.94 C 6.209,29.476 6.152,25.792 6.193,21.941 6.296,12.319 6.249,2.694 6.212,-6.929 c -0.01,-2.497 0.272,-4.827 2.204,-6.667 0.509,-0.484 0.919,-1.221 0.684,-1.853 -0.257,-0.694 -1.123,-0.433 -1.685,-0.358 -2.457,0.329 -5.152,-0.977 -7.375,1.04 -0.096,0.087 -0.411,0.073 -0.523,-0.018 -2.526,-2.048 -5.483,-0.64 -8.211,-1.031 -1.31,-0.188 -1.152,0.95 -1.289,1.681 -1.345,7.131 -2.66,14.268 -3.978,21.404 -3.077,16.652 -6.149,33.305 -9.232,49.956 -0.098,0.528 -0.287,1.041 -0.689,1.536 0,-8.229 0.009,-16.458 -0.014,-24.687 -10e-4,-0.8 0.314,-1.051 1.063,-1.168 0.874,-0.136 1.804,-0.216 2.719,-1.021 -3.563,-2.323 -3.839,-5.879 -3.801,-9.68 0.096,-9.484 0.044,-18.97 0.023,-28.455 -0.005,-2.756 0.205,-5.404 2.389,-7.457 0.467,-0.439 0.772,-1.131 0.556,-1.697 -0.278,-0.726 -1.091,-0.406 -1.676,-0.415 -1.801,-0.032 -3.767,-0.46 -5.359,0.117 -1.753,0.634 -3.074,0.384 -4.747,-0.02 -1.834,-0.442 -3.857,-0.066 -5.795,-0.123 -1.298,-0.038 -1.629,0.74 -0.898,1.48 3.619,3.662 2.568,8.246 2.611,12.578 0.084,8.446 -0.06,16.894 0.066,25.339 0.051,3.412 -0.701,6.288 -3.734,8.338 0.275,0.199 0.415,0.305 0.56,0.404 0.923,0.624 2.542,0.138 2.955,1.087 0.458,1.056 0.174,2.442 0.174,3.684 0.006,11.493 -0.016,22.986 0.02,34.478 0.008,2.363 -0.285,4.538 -2.08,6.293 -0.531,0.519 -1.094,1.288 -0.764,2.022 0.336,0.746 1.271,0.414 1.885,0.333 2.453,-0.323 5.136,0.993 7.4,-1.022 0.158,-0.141 1.093,0.861 1.692,0.897 2.346,0.141 4.701,0.134 7.053,0.127 0.996,-0.003 0.894,-0.862 1.017,-1.521 1.636,-8.764 3.281,-17.527 4.915,-26.292 2.762,-14.812 5.518,-29.625 8.279,-44.437 0.06,-0.322 -0.008,-0.706 0.635,-1.006 v 5.402 c 0,3.531 -0.116,7.067 0.032,10.592 0.148,3.568 -0.343,6.781 -3.787,8.977 0.525,0.308 0.802,0.609 1.082,0.613 2.537,0.034 2.745,1.5 2.724,3.649 -0.109,11.492 -0.072,22.985 -0.037,34.478 0.008,2.76 -0.137,5.405 -2.321,7.47 -0.458,0.433 -0.815,1.114 -0.601,1.684 0.272,0.724 1.09,0.331 1.673,0.418 0.136,0.02 0.28,0.017 0.415,0.001 2.467,-0.291 5.142,0.818 7.369,-1.089 2.213,1.927 4.88,0.821 7.342,1.064 0.634,0.063 1.575,0.391 1.903,-0.332 C 9.38,79.151 8.83,78.407 8.28,77.862 6.571,76.167 6.21,74.058 6.215,71.766 6.24,59.789 6.27,47.811 6.184,35.834 6.17,33.927 6.351,32.616 8.619,32.583 8.99,32.578 9.357,32.265 10.063,31.94" /></g><g
           transform="translate(365.8037,479.3312)"
           id="g32"><path
             id="path34"
             style="fill:#db9805;fill-opacity:1;fill-rule:nonzero;stroke:none"
             d="M 0,0 C -1.194,-20.949 -1.21,-41.989 0.016,-63.029 1.335,-42.054 1.327,-21.077 0,0 m -10.231,-32.457 c 0.426,0.237 0.554,0.295 0.667,0.374 0.917,0.636 2.511,0.106 2.954,1.083 0.445,0.983 0.161,2.305 0.162,3.479 0.005,11.423 -0.021,22.846 0.021,34.269 0.009,2.57 -0.256,4.96 -2.237,6.867 -0.487,0.468 -0.951,1.173 -0.632,1.858 0.319,0.686 1.117,0.322 1.696,0.339 1.593,0.046 3.256,0.304 4.764,-0.056 1.988,-0.475 3.842,-0.079 5.776,-0.041 11.635,0.227 23.277,0.116 34.915,0.102 0.516,-10e-4 1.218,0.283 1.497,-0.361 0.266,-0.617 -0.054,-1.272 -0.506,-1.692 -2.153,-1.998 -2.33,-4.558 -2.298,-7.259 0.061,-5.26 -0.025,-10.523 0.045,-15.784 0.019,-1.417 -0.412,-1.74 -1.795,-1.575 -6.77,0.805 -10.992,5.447 -11.19,12.456 -0.039,1.384 0.059,2.774 -0.046,4.152 -0.164,2.164 -1.631,3.544 -3.815,3.58 -3.116,0.05 -6.235,0.049 -9.352,0 C 8.057,9.298 6.487,7.782 6.478,5.401 6.433,-4.707 6.437,-14.814 6.472,-24.922 c 0.007,-2.426 1.519,-3.864 3.894,-3.947 2.444,-0.085 3.929,1.255 4.257,3.84 0.546,4.304 2.979,6.665 7.046,7.085 1.232,0.128 1.369,-0.286 1.366,-1.31 -0.027,-8.585 -0.036,-17.17 0.008,-25.754 0.006,-1.15 -0.397,-1.388 -1.45,-1.31 -3.684,0.273 -6.431,2.836 -6.936,6.567 -0.36,2.66 -1.334,3.952 -3.211,4.255 -2.957,0.48 -4.977,-1.223 -4.983,-4.29 -0.02,-9.831 -0.018,-19.661 -0.001,-29.492 0.006,-2.948 1.372,-4.342 4.302,-4.388 2.909,-0.045 5.82,-0.052 8.728,0.003 2.678,0.052 4.054,1.457 4.1,4.155 0.045,2.626 -0.113,5.259 0.724,7.816 1.589,4.85 5.41,7.878 10.357,8.296 1.402,0.119 1.953,-0.169 1.928,-1.722 -0.09,-5.398 0.01,-10.8 -0.056,-16.198 -0.03,-2.508 0.278,-4.824 2.176,-6.682 0.499,-0.489 0.931,-1.172 0.621,-1.854 -0.321,-0.701 -1.12,-0.357 -1.699,-0.358 -11.432,-0.019 -22.863,0.014 -34.294,-0.049 -1.427,-0.008 -2.467,0.519 -3.479,1.349 -0.8,-1.177 -1.97,-1.373 -3.288,-1.327 -1.591,0.056 -3.187,0.055 -4.779,10e-4 -1.297,-0.044 -1.628,0.73 -0.894,1.479 3.72,3.796 2.554,8.536 2.614,12.994 0.111,8.168 -0.053,16.34 0.072,24.507 0.053,3.524 -0.54,6.608 -3.826,8.799" /></g><g
           transform="translate(133.4097,476.3595)"
           id="g36"><path
             id="path38"
             style="fill:#db9704;fill-opacity:1;fill-rule:nonzero;stroke:none"
             d="M 0,0 C -1.28,-19.498 -1.269,-38.961 -0.011,-58.421 1.259,-38.936 1.209,-19.452 0,0 m -10.216,-29.494 c 0.297,0.188 0.403,0.289 0.528,0.33 1.028,0.339 2.627,0.387 2.962,1.062 0.529,1.067 0.244,2.554 0.245,3.862 0.009,11.218 -0.018,22.435 0.022,33.653 0.009,2.701 -0.2,5.253 -2.323,7.26 -0.44,0.416 -0.826,1.072 -0.595,1.691 0.287,0.773 1.082,0.397 1.649,0.417 1.454,0.051 2.953,0.239 4.355,-0.033 2.297,-0.444 4.517,-0.106 6.793,-0.059 11.359,0.238 22.726,0.113 34.09,0.098 0.592,-10e-4 1.372,0.305 1.735,-0.326 0.391,-0.68 -0.057,-1.386 -0.55,-1.848 C 36.622,14.666 36.39,12.128 36.371,9.543 36.333,4.351 36.28,-0.845 36.403,-6.035 36.445,-7.84 35.828,-8.04 34.26,-7.803 27.792,-6.826 23.776,-2.286 23.578,4.455 23.537,5.839 23.629,7.23 23.529,8.607 23.36,10.911 21.914,12.274 19.607,12.308 16.49,12.354 13.37,12.363 10.253,12.304 8.021,12.261 6.451,10.734 6.442,8.487 6.4,-1.691 6.403,-11.87 6.439,-22.049 c 0.008,-2.24 1.398,-3.636 3.56,-3.844 2.302,-0.221 3.937,0.911 4.442,3.116 0.123,0.534 0.109,1.099 0.215,1.638 0.465,2.37 1.651,4.221 3.877,5.318 3.55,1.751 4.454,1.221 4.454,-2.626 0,-7.686 -0.066,-15.373 0.047,-23.057 0.028,-1.88 -0.681,-2.042 -2.184,-1.746 -3.552,0.699 -5.771,2.989 -6.24,6.552 -0.41,3.115 -1.784,4.389 -4.533,4.204 -2.441,-0.165 -3.652,-1.751 -3.653,-4.809 -0.003,-9.556 -0.005,-19.112 0,-28.668 0.003,-3.456 1.28,-4.716 4.794,-4.732 2.633,-0.012 5.266,-0.022 7.899,0.003 3.04,0.027 4.405,1.389 4.447,4.465 0.034,2.488 -0.092,4.976 0.669,7.407 1.533,4.9 5.524,8.09 10.484,8.413 1.233,0.08 1.695,-0.194 1.674,-1.542 -0.078,-5.122 -0.036,-10.247 -0.03,-15.371 0.003,-2.871 0.138,-5.694 2.455,-7.861 0.453,-0.424 0.758,-1.083 0.46,-1.694 -0.297,-0.61 -0.99,-0.358 -1.513,-0.358 -11.573,-0.013 -23.144,0.005 -34.716,-0.03 -1.291,-0.003 -2.274,0.434 -3.111,1.342 -0.816,-0.919 -1.778,-1.407 -3.067,-1.342 -1.659,0.083 -3.327,0.064 -4.988,0.007 -1.351,-0.047 -1.836,0.683 -0.968,1.561 3.378,3.418 2.578,7.679 2.598,11.765 0.043,8.794 -0.05,17.589 0.046,26.382 0.035,3.276 -0.851,5.981 -3.773,8.062" /></g><g
           transform="translate(256.9028,459.6735)"
           id="g40"><path
             id="path42"
             style="fill:#db9703;fill-opacity:1;fill-rule:nonzero;stroke:none"
             d="m 0,0 c -0.46,-2.872 0.021,-5.773 -0.238,-8.64 -0.196,-2.161 0.176,-3.619 2.732,-3.596 0.288,0.002 0.579,-0.278 1.054,-0.523 -2.038,-1.664 -3.404,-3.62 -3.629,-6.134 -0.219,-2.458 -0.282,-4.932 0.058,-7.395 -0.013,-4.22 -0.096,-8.441 -0.017,-12.66 0.066,-3.443 -0.007,-6.928 1.421,-10.195 1.4,-3.2 3.973,-4.935 7.275,-4.875 3.278,0.059 5.904,1.906 7.137,5.094 0.499,1.287 0.842,2.625 0.995,4.009 0.684,6.21 0.297,12.436 0.303,18.656 0.023,1.583 -0.028,3.172 0.083,4.749 0.246,3.505 -0.505,6.572 -3.664,8.645 0.618,0.633 1.282,0.78 1.949,0.825 1.35,0.092 1.795,0.706 1.736,2.097 -0.139,3.3 -0.09,6.609 -0.116,9.913 10e-4,5.882 0.073,11.764 -0.035,17.644 -0.039,2.128 -0.411,4.268 -1.21,6.287 -1.285,3.245 -3.688,5.032 -6.863,5.105 C 4.359,29.113 1.327,26.495 0.549,21.33 -0.518,14.255 -0.038,7.116 0,0 m -5.675,-23.79 c 0.037,0.046 0.111,0.096 0.105,0.135 -0.015,0.109 -0.065,0.212 -0.1,0.318 0.033,2.194 0.066,4.388 0.099,6.583 0.266,2.52 0.33,5.04 -0.021,7.559 -0.033,2.06 -0.066,4.121 -0.099,6.182 0.144,6 -0.232,11.98 -0.747,17.966 C -6.97,9.811 -7.39,4.665 -7.243,-0.514 c -0.044,-3.051 -0.088,-6.102 -0.132,-9.153 -0.339,-2.205 -0.397,-4.41 0.006,-6.614 0.051,-3.176 0.101,-6.351 0.152,-9.527 0.036,-4.648 0.148,-9.292 0.849,-13.891 0.254,5.187 0.811,10.352 0.638,15.54 0.075,0.115 0.094,0.238 0.055,0.369 m 30.169,7.469 c 0.006,2.24 0.011,4.479 0.017,6.719 0.132,3.181 0.044,6.354 -0.291,9.52 0.465,4.265 -0.191,8.468 -0.662,12.689 C 22.837,7.562 22.724,2.499 22.704,-2.57 22.68,-4.778 22.656,-6.985 22.632,-9.193 c -0.049,-2.517 -0.185,-5.035 0.083,-7.548 0.009,-2.338 0.017,-4.676 0.026,-7.014 -0.043,-5.239 0.247,-10.46 0.858,-15.667 0.224,2.044 0.428,4.087 0.507,6.134 0.096,2.481 0.086,4.966 0.122,7.449 0.089,3.173 0.177,6.345 0.266,9.518 m -41.179,3.531 c 0.53,0.296 0.771,0.549 1.012,0.548 2.775,-0.01 2.92,1.64 2.879,3.901 -0.139,7.539 -0.067,15.083 -0.049,22.625 0.027,11.795 9.64,21.249 21.529,21.198 11.7,-0.05 21.279,-9.612 21.298,-21.279 0.012,-7.749 0.042,-15.499 -0.028,-23.249 -0.016,-1.75 0.048,-3.122 2.309,-3.08 0.441,0.008 0.889,-0.328 1.603,-0.613 -3.705,-2.508 -4.021,-6.116 -3.918,-10.002 0.143,-5.393 0.038,-10.794 0.036,-16.191 -0.005,-11.62 -8.362,-20.698 -20.342,-21.536 -10.857,-0.759 -20.407,6.893 -22.285,17.884 -0.491,2.873 -0.173,5.802 -0.197,8.705 -0.034,4.082 -0.094,8.167 0.017,12.247 0.096,3.508 -0.638,6.584 -3.864,8.842" /></g><g
           transform="translate(192.6802,478.9279)"
           id="g44"><path
             id="path46"
             style="fill:#db9704;fill-opacity:1;fill-rule:nonzero;stroke:none"
             d="M 0,0 C -1.31,-21.204 -1.282,-42.382 0.022,-63.56 1.264,-42.365 1.191,-21.171 0,0 m -9.998,-31.938 c 0.177,0.107 0.351,0.214 0.526,0.318 0.944,0.561 2.546,0.074 2.956,1.014 0.459,1.052 0.16,2.442 0.161,3.685 0.004,11.073 -0.006,22.145 0.007,33.218 0.004,2.882 -0.141,5.686 -2.431,7.865 -0.454,0.431 -0.746,1.08 -0.43,1.702 0.312,0.614 0.989,0.347 1.508,0.354 1.869,0.024 3.861,0.398 5.574,-0.122 1.599,-0.486 2.776,-0.43 4.37,-0.004 1.94,0.519 4.122,0.124 6.199,0.137 1.312,0.009 1.265,-0.91 0.701,-1.469 C 5.483,11.127 6.54,6.527 6.505,2.196 6.423,-8.045 6.515,-18.288 6.442,-28.53 c -0.011,-1.666 0.173,-2.79 2.144,-2.801 0.536,-0.003 1.054,-0.243 1.568,-0.783 -3.255,-2.206 -3.76,-5.453 -3.716,-9.096 0.119,-9.895 0.061,-19.792 0.027,-29.688 -0.008,-2.498 0.306,-4.818 2.221,-6.667 0.49,-0.473 0.975,-1.181 0.668,-1.854 -0.356,-0.781 -1.263,-0.446 -1.871,-0.368 -2.452,0.313 -5.165,-1.01 -7.341,1.115 -0.056,0.054 -0.28,0.024 -0.357,-0.045 -2.35,-2.08 -5.181,-0.749 -7.774,-1.082 -1.581,-0.203 -1.773,0.919 -0.955,1.743 3.012,3.038 2.583,6.822 2.588,10.532 0.011,8.581 0.003,17.163 0.003,25.744 0,5.635 -0.101,5.908 -3.645,9.842" /></g><g
           transform="translate(227.8564,420.5031)"
           id="g48"><path
             id="path50"
             style="fill:#db9806;fill-opacity:1;fill-rule:nonzero;stroke:none"
             d="M 0,0 C -0.053,1.944 0.356,3.41 -0.432,5.258 -1.042,3.284 -0.698,1.887 0,0 m -0.053,61.852 c -0.757,-1.467 -0.884,-2.971 -0.361,-4.511 0.7,1.458 0.356,2.998 0.361,4.511 M -0.348,7.181 C 0.623,23.043 0.659,38.906 -0.362,54.77 -1.364,38.91 -1.313,23.047 -0.348,7.181 m -15.419,-24.513 c 4.709,-0.604 8.47,2.089 9.547,6.506 0.481,1.971 0.505,3.976 0.506,5.982 0.01,10.94 -0.03,21.879 0.031,32.818 0.014,2.477 -0.7,4.468 -2.763,5.89 0.072,0.148 0.116,0.347 0.18,0.354 2.42,0.252 2.636,1.747 2.609,3.855 -0.119,9.553 -0.062,19.109 -0.045,28.663 0.004,2.308 -0.014,4.53 -1.829,6.368 -0.956,0.969 -0.431,1.671 0.876,1.537 2.021,-0.207 4.047,-0.128 6.095,-0.445 1.663,-0.258 3.814,0.478 5.779,0.443 0.72,-0.013 1.734,0.422 2.1,-0.367 C 7.667,73.525 6.831,72.931 6.315,72.39 5.402,71.431 5.036,70.268 5.034,68.98 5.012,58.042 5.013,47.103 4.961,36.164 4.957,35.178 5.34,34.835 6.222,34.683 6.74,34.594 7.349,34.618 7.851,33.942 5.192,32.269 4.928,29.658 4.951,26.79 5.034,16.543 4.728,6.288 5.061,-3.948 c 0.286,-8.77 -6.429,-16.456 -16.429,-17.114 -3.768,-0.249 -7.497,0.143 -10.749,2.363 -2.347,1.601 -3.617,3.79 -3.224,6.72 0.336,2.498 1.795,4.144 4.085,5.058 1.932,0.773 3.897,0.869 5.846,0.002 3.968,-1.766 4.599,-6.606 1.208,-9.294 -0.415,-0.329 -0.862,-0.619 -1.565,-1.119" /></g><g
           transform="translate(263.7563,520.6583)"
           id="g52"><path
             id="path54"
             style="fill:#3e3d3e;fill-opacity:1;fill-rule:nonzero;stroke:none"
             d="M 0,0 C 2.536,0.051 4.852,0.584 6.908,2.053 7.683,2.606 8.169,3.198 7.532,4.096 6.911,4.973 6.195,4.56 5.56,4.08 3.147,2.262 0.457,2.12 -2.349,2.775 -4.164,3.199 -5.959,3.708 -7.765,4.172 -8.582,4.382 -9.503,4.673 -9.838,3.547 -10.129,2.564 -9.274,2.265 -8.58,1.972 -5.817,0.804 -2.953,0.072 0,0 m 0.789,-14.132 c -6.383,0.033 -12.128,1.971 -17.042,6.045 -3.122,2.589 -4.431,6.032 -3.287,10.024 1.024,3.574 3.556,5.69 7.268,6.242 C -9.911,8.53 -7.71,7.893 -5.751,6.613 -1.999,4.163 1.634,4.365 5.285,6.809 9.73,9.783 15.238,8.777 18.54,4.426 21.476,0.557 20.747,-5.092 16.877,-8.446 12.67,-12.093 6.938,-14.112 0.789,-14.132" /></g><g
           transform="translate(140.0703,545.3976)"
           id="g56"><path
             id="path58"
             style="fill:#474647;fill-opacity:1;fill-rule:nonzero;stroke:none"
             d="m 0,0 c 39.135,35.992 104.389,56.269 169.248,40.739 29.523,-7.068 56.147,-19.999 79.113,-40.065 0.434,-0.379 0.412,-0.403 0.792,-1.879 C 212.527,27.777 171.286,43.564 124.609,43.676 78.059,43.788 36.77,28.287 0,0" /></g><g
           transform="translate(388.5645,347.1193)"
           id="g60"><path
             id="path62"
             style="fill:#474647;fill-opacity:1;fill-rule:nonzero;stroke:none"
             d="m 0,0 c -32.589,-27.544 -70.397,-42.328 -112.967,-44.932 -61.832,-3.781 -112.041,22.699 -136.588,46.139 1.247,0.04 1.985,-0.809 2.803,-1.43 15.999,-12.14 33.123,-22.303 51.897,-29.584 25.439,-9.866 51.821,-14.201 79.048,-12.976 40.119,1.804 76.181,15.151 108.539,38.758 2.251,1.642 4.51,3.276 6.766,4.914 C -0.334,0.593 -0.167,0.297 0,0" /></g><g
           transform="translate(258.2021,380.5079)"
           id="g64"><path
             id="path66"
             style="fill:#474647;fill-opacity:1;fill-rule:nonzero;stroke:none"
             d="m 0,0 c -0.056,0.055 -0.102,0.101 -0.148,0.146 -0.046,-0.091 -0.108,-0.18 -0.13,-0.278 -0.008,-0.034 0.083,-0.091 0.13,-0.137 C -0.099,-0.179 -0.049,-0.088 0,0 m 6.298,1.959 c -1.855,-2.732 -1.819,-3.546 0,-5.656 z M 6.259,-14.152 c -1.893,-3.166 -1.891,-3.424 0,-5.545 z m 3.839,0.999 c 0.729,-3.587 1.202,-4.078 3.946,-4.062 -1.138,1.557 -2.475,2.768 -3.946,4.062 M 5.851,-7.771 C 5.834,-7.679 5.818,-7.585 5.802,-7.492 5.746,-7.511 5.691,-7.528 5.636,-7.547 5.721,-7.611 5.807,-7.676 5.892,-7.739 5.883,-7.946 5.951,-8.204 5.853,-8.352 c -1.035,-1.549 0.216,-2.225 1.238,-2.491 0.769,-0.199 1.598,0.471 1.914,1.475 0.224,0.712 -0.688,1.118 -0.326,1.79 C 7.718,-7.39 6.753,-7.12 5.851,-7.771 m -1.857,3.14 c 0.168,-0.122 0.25,-0.527 0.509,-0.312 0.197,0.163 0.077,0.464 -0.178,0.619 -0.506,2.049 -1.2,3.892 -4.066,3.589 1.109,-1.561 2.454,-2.699 3.735,-3.896 M 3.005,-6.062 C 2.996,-6.151 2.987,-6.24 2.978,-6.329 c 0.079,0.015 0.157,0.03 0.236,0.045 -0.084,0.064 -0.168,0.129 -0.252,0.192 -1.129,1.512 -2.533,2.731 -4.105,4.23 0.312,-3.301 0.909,-3.851 4.148,-4.2 m 7.709,1.738 c 1.182,1.134 2.476,2.168 3.463,3.635 -2.453,0.106 -3.503,-1.153 -3.808,-3.243 -0.293,-0.209 -0.418,-0.464 -0.222,-0.807 0.189,0.138 0.378,0.276 0.567,0.415 m -8.698,-7.865 c -2.158,-0.332 -3.281,-1.522 -3.155,-3.753 1.198,1.12 2.394,2.241 3.592,3.362 l 0.426,0.592 c -0.355,0.217 -0.619,0.05 -0.863,-0.201 m 13.37,9.903 c -1.437,-1.019 -2.583,-2.321 -3.819,-3.758 3.365,0.643 3.514,0.778 4.033,3.539 0.05,0.161 0.174,0.442 0.141,0.463 -0.242,0.146 -0.288,-0.08 -0.355,-0.244 M 0.046,-17.699 c 0.266,-0.057 0.442,0.044 0.527,0.303 2.553,-0.033 3.346,1.614 3.725,4.05 -1.557,-1.299 -2.855,-2.458 -3.878,-3.903 -0.265,-0.057 -0.44,-0.176 -0.338,-0.486 l -0.429,-0.238 c 0.046,-0.049 0.091,-0.099 0.137,-0.148 z m 16.237,0.862 c 1.033,-1.045 2.207,-0.264 3.317,-0.242 0.783,0.016 1.903,0.492 2.015,-0.663 0.098,-1.021 -1.076,-0.778 -1.767,-0.939 -0.331,-0.077 -0.666,-0.143 -1.11,-0.238 0.166,-1.043 1.074,-1.418 1.608,-2.057 0.426,-0.509 0.849,-1.099 0.293,-1.613 -0.451,-0.415 -1.039,-0.037 -1.424,0.408 -0.575,0.666 -1.132,1.348 -1.732,2.063 -0.904,-1.287 -0.185,-3.429 -1.495,-3.244 -1.739,0.246 -0.29,2.067 -0.526,3.167 -0.149,0.688 0.456,1.525 -0.418,2.075 -0.183,0.339 -0.439,0.858 -0.795,0.656 -0.376,-0.213 0.082,-0.486 0.299,-0.678 -0.074,-1.543 -1.34,-0.64 -2.015,-0.885 -0.225,-0.877 1.048,-1.977 -0.17,-2.423 -1.123,-0.411 -1.102,1.08 -1.694,1.678 -0.636,-0.395 -0.934,-1.257 -1.81,-1.228 -0.254,0.573 -0.474,1.163 -0.012,1.723 1.651,1.998 0.295,3.6 -0.743,5.768 v -7.554 c 0.073,-1.443 1.531,-1.624 2.271,-2.461 0.482,-0.544 1.524,-0.973 0.93,-1.774 -0.645,-0.868 -1.317,0.047 -1.914,0.449 -0.336,0.227 -0.605,0.607 -1.153,0.453 -0.404,-0.861 -0.085,-1.846 -0.201,-2.792 -0.058,-0.461 -0.294,-0.856 -0.713,-0.912 -0.571,-0.075 -0.898,0.395 -0.933,0.891 -0.066,0.941 -0.019,1.891 -0.019,2.872 -1.068,-0.024 -1.439,-0.837 -2.104,-1.141 -0.399,-0.182 -0.864,-0.246 -1.147,0.105 -0.286,0.353 -0.16,0.83 0.171,1.119 0.832,0.727 1.691,1.426 2.568,2.1 0.529,0.406 0.666,1.018 0.435,1.479 -0.467,0.931 -0.397,-0.405 -0.876,-0.287 -0.727,0.179 -1.081,0.707 -1.436,1.245 -0.832,-0.537 -0.688,-2.213 -1.878,-1.713 -1.122,0.473 -0.02,1.556 -0.066,2.368 -0.72,0.289 -1.594,-0.382 -2.213,0.688 -0.33,0.57 -0.955,-0.074 -0.925,-0.69 0.048,-0.964 0.229,-1.922 0.33,-2.885 0.066,-0.625 0.123,-1.429 -0.646,-1.518 -0.755,-0.087 -0.922,0.67 -0.989,1.323 -0.049,0.465 -0.117,0.928 -0.205,1.621 -1.112,-0.383 -1.606,-1.248 -2.298,-1.834 -0.409,-0.346 -0.883,-0.554 -1.3,-0.187 -0.444,0.393 -0.217,0.929 0.103,1.3 0.62,0.722 1.305,1.389 1.981,2.098 -0.687,0.542 -1.399,0.48 -2.067,0.553 -0.541,0.061 -1.029,0.287 -1.033,0.815 -0.005,0.708 0.64,0.837 1.196,0.8 0.895,-0.058 1.783,-0.228 2.677,-0.316 0.541,-0.054 1.16,-0.199 1.5,0.402 0.449,0.792 -0.609,0.357 -0.752,0.858 -0.153,0.536 -0.211,1.041 -0.099,1.558 -0.902,0.47 -2.173,-0.962 -2.552,0.43 -0.265,0.973 1.111,1.016 1.692,1.568 -0.185,0.678 -1.528,0.931 -0.893,1.827 0.641,0.905 1.417,0.13 1.97,-0.268 1.896,-1.364 3.161,0.437 4.708,1.078 -2.359,0 -4.719,0.027 -7.078,-0.011 -1.175,-0.018 -1.357,-1.258 -2.074,-1.852 -0.671,-0.557 -1.038,-2.202 -2.12,-1.299 -1.027,0.857 0.508,1.574 0.886,2.364 0.084,0.175 0.17,0.348 0.398,0.817 -1.165,0 -2.163,0.003 -3.16,-0.002 -0.474,-0.002 -0.889,0.272 -0.945,0.648 -0.082,0.549 0.371,0.894 0.901,0.92 0.965,0.046 1.934,0.013 2.99,0.013 0.037,0.964 -0.742,1.344 -1.09,1.954 -0.254,0.445 -0.479,0.955 -0.035,1.312 0.401,0.322 1.026,0.263 1.266,-0.237 2.203,-4.603 6.354,-2.546 9.801,-2.867 -1.318,0.751 -2.462,2.131 -4.278,1.015 -0.647,-0.399 -1.466,-1.272 -2.17,-0.351 -0.614,0.803 0.699,1.145 0.896,1.815 -0.543,0.651 -2.116,0.609 -1.584,1.774 0.419,0.918 1.478,0.061 2.277,0.02 0.311,0.7 -0.301,1.774 0.857,2.09 0.233,-0.143 0.55,-0.557 0.714,-0.132 0.133,0.347 -0.333,0.605 -0.68,0.766 -1.03,0.855 -2.094,0.059 -3.142,0.079 -0.744,0.015 -1.903,-0.567 -2.041,0.617 -0.116,0.983 0.982,0.912 1.73,1.002 0.394,0.047 0.853,-0.068 1.186,0.394 -0.264,0.88 -1.131,1.289 -1.68,1.955 -0.376,0.458 -0.714,0.981 -0.259,1.47 0.516,0.553 0.981,0.056 1.413,-0.297 0.671,-0.55 1.087,-1.413 2.015,-1.692 0.526,0.537 0.284,1.202 0.385,1.782 0.103,0.602 0.355,1.186 0.958,1.167 C -0.753,5.371 -0.7,4.703 -0.756,4.134 -0.839,3.309 -0.984,2.489 -1.043,1.664 -1.108,0.748 -1.282,-0.456 0.206,0.737 0.772,1.191 1.427,0.747 2.077,1.094 1.974,1.396 1.844,1.696 1.771,2.009 1.65,2.538 1.437,3.166 2.135,3.422 2.692,3.626 3.087,3.175 3.245,2.721 3.605,1.685 4,1.514 4.63,2.515 4.694,2.616 4.921,2.626 4.968,2.728 5.376,3.603 6.028,1.528 6.328,2.829 6.567,3.867 5.577,4.164 5.041,4.754 4.327,5.537 2.329,5.981 3.275,7.239 4.103,8.339 5.011,6.483 5.981,6.173 6.04,6.154 6.116,6.195 6.371,6.242 c 0,0.908 -0.023,1.856 0.008,2.8 0.018,0.535 0.349,1.009 0.862,0.996 C 7.757,10.025 8.034,9.541 8.039,8.998 8.048,8.112 8.042,7.228 8.042,6.376 9,6.153 9.306,6.819 9.79,7.139 10.258,7.449 10.807,7.864 11.257,7.312 11.767,6.687 11.233,6.225 10.779,5.761 9.896,4.857 8.407,4.552 8.104,3.075 v -7.577 c 1.066,2.136 2.388,3.739 0.729,5.744 -0.472,0.571 -0.181,1.168 0.08,1.737 0.714,-0.147 1.165,-0.65 1.594,-1.243 0.862,0.343 0.651,2.17 1.919,1.618 1.104,-0.481 -0.035,-1.46 0.09,-2.238 0.598,-0.47 1.791,0.37 2.109,-1.073 0.104,-0.469 0.875,0.265 0.877,0.717 0.006,1.028 -0.127,2.062 -0.257,3.087 -0.084,0.655 -0.133,1.407 0.595,1.541 0.806,0.148 0.889,-0.639 0.988,-1.264 0.093,-0.584 0.23,-1.16 0.859,-2.133 0.576,0.764 1.125,1.55 1.74,2.281 0.321,0.383 0.842,0.632 1.251,0.204 C 21.04,4.097 20.915,3.563 20.599,3.146 20.034,2.4 19.104,1.954 18.761,0.992 19.372,0.441 20.11,0.682 20.76,0.535 c 0.518,-0.117 0.961,-0.396 0.91,-0.949 -0.053,-0.575 -0.564,-0.732 -1.085,-0.674 -0.96,0.107 -1.915,0.258 -2.875,0.368 -0.482,0.056 -0.986,0.092 -1.311,-0.388 -0.547,-0.811 0.431,-0.589 0.633,-0.897 0.298,-0.453 0.205,-0.921 0.176,-1.396 0.006,-0.162 0.012,-0.323 0.017,-0.483 0.145,0.051 0.29,0.103 0.435,0.155 0.707,0.076 1.703,0.747 2.032,-0.152 0.412,-1.122 -1.13,-1.093 -1.614,-1.769 0.26,-0.666 1.537,-0.968 0.898,-1.808 -0.613,-0.805 -1.434,-0.118 -2.009,0.294 -1.867,1.343 -3.107,-0.29 -4.574,-1.049 2.241,0 4.483,0.024 6.724,-0.014 0.737,-0.011 1.12,0.4 1.509,0.903 0.549,0.709 1.123,1.398 1.683,2.098 0.348,0.436 0.894,0.592 1.263,0.299 0.386,-0.306 0.294,-0.885 -0.01,-1.317 -0.381,-0.546 -0.787,-1.075 -1.455,-1.983 1.316,0 2.243,0.023 3.168,-0.008 0.516,-0.018 1.01,-0.243 0.997,-0.828 -0.013,-0.582 -0.504,-0.76 -1.027,-0.766 -0.944,-0.009 -1.889,-0.002 -2.891,-0.002 0.112,-0.909 0.76,-1.289 1.121,-1.846 0.33,-0.508 0.56,-1.062 0.043,-1.457 -0.398,-0.303 -0.925,-0.069 -1.27,0.346 -0.795,0.953 -1.577,1.916 -2.395,2.848 -0.102,0.117 -0.391,0.094 -0.593,0.095 -2.302,0.006 -4.604,0.004 -6.917,-0.174 1.54,-0.659 2.898,-2.238 4.785,-0.781 0.537,0.415 1.314,0.932 1.831,0.214 0.664,-0.921 -0.553,-1.182 -1.01,-1.874 0.573,-0.592 2.196,-0.61 1.748,-1.72 -0.45,-1.118 -1.556,-0.011 -2.395,-0.069 -0.452,-0.6 0.619,-1.995 -1.005,-1.979 -0.137,0.066 -0.275,0.13 -0.412,0.196 -0.256,2.546 -1.697,3.854 -4.467,4.11 1.521,-1.559 2.887,-2.96 4.254,-4.361 0.203,-0.185 0.408,-0.369 0.611,-0.554" /></g><g
           transform="translate(169.4878,377.4913)"
           id="g68"><path
             id="path70"
             style="fill:#474647;fill-opacity:1;fill-rule:nonzero;stroke:none"
             d="m 0,0 c 63.139,-44.723 126.193,-44.741 189.086,-0.163 -4.078,-8.229 -37.413,-25.87 -60.145,-31.35 -22.79,-5.493 -45.669,-5.496 -68.456,-0.035 C 36.969,-25.913 8.042,-10.632 0,0" /></g><g
           transform="translate(359.2695,507.8727)"
           id="g72"><path
             id="path74"
             style="fill:#474647;fill-opacity:1;fill-rule:nonzero;stroke:none"
             d="m 0,0 c -63.463,45.063 -126.595,45.074 -189.825,0.204 0.214,0.283 0.473,0.687 0.792,1.036 0.373,0.407 0.784,0.782 1.201,1.144 16.622,14.425 35.874,23.702 57.096,29.111 11.385,2.901 22.981,4.393 34.71,4.362 33.38,-0.087 63.594,-9.736 90.07,-30.355 C -3.887,3.891 -1.829,2.245 0,0" /></g><g
           transform="translate(261.1455,564.3082)"
           id="g76"><path
             id="path78"
             style="fill:#be8625;fill-opacity:1;fill-rule:nonzero;stroke:none"
             d="m 0,0 c 0.021,2.547 0.162,5.117 -0.665,7.588 -0.2,0.599 -0.424,1.229 -1.189,1.256 -0.783,0.027 -1.111,-0.554 -1.176,-1.2 -0.425,-4.206 -0.441,-8.4 0.577,-12.537 0.165,-0.671 0.523,-1.412 1.382,-1.262 0.791,0.137 1.034,0.894 1.056,1.601 C 0.033,-3.038 0,-1.518 0,0 m 0.056,-7.51 c 0.874,-0.38 1.618,-0.721 2.378,-1.027 0.345,-0.138 0.947,0.001 0.802,-0.629 -0.063,-0.275 -0.394,-0.568 -0.675,-0.7 -0.814,-0.38 -1.578,-0.201 -2.345,0.27 -4.75,2.917 -6.761,7.175 -6.321,12.675 0.143,1.792 0.251,3.596 1.144,5.209 1.316,2.378 4.115,2.632 5.827,0.563 C 3.193,6.04 3.741,-2.52 1.749,-5.655 1.353,-6.277 0.746,-6.765 0.056,-7.51" /></g><g
           transform="translate(212.5962,559.6207)"
           id="g80"><path
             id="path82"
             style="fill:#be8625;fill-opacity:1;fill-rule:nonzero;stroke:none"
             d="m 0,0 c -0.055,1.262 -0.414,2.441 -1.154,3.459 -0.439,0.603 -1.168,0.851 -1.835,0.493 -0.714,-0.383 -0.1,-0.984 0.013,-1.45 0.242,-0.998 0.522,-1.999 0.92,-2.942 0.235,-0.558 0.048,-1.646 1.002,-1.522 1,0.131 1.089,1.089 1.054,1.962 m -1.209,-3.479 c 1.207,-2.479 1.058,-4.975 2.827,-6.762 0.508,-0.514 0.196,-0.861 -0.362,-1.045 -0.721,-0.238 -1.442,-0.485 -2.179,-0.662 -0.773,-0.185 -0.894,0.076 -1.033,0.946 -0.784,4.944 -2.167,9.733 -4.503,14.19 -0.401,0.763 -0.402,1.123 0.396,1.365 1.121,0.34 2.24,0.716 3.387,0.935 1.669,0.32 3.229,0.021 4.197,-1.53 C 2.565,2.284 2.965,0.483 1.722,-1.28 1.218,-1.994 0.805,-2.459 1.955,-2.935 2.742,-3.26 3.146,-4.053 3.579,-4.767 4.257,-5.889 4.942,-7.006 5.66,-8.103 c 0.32,-0.488 1.555,-0.836 0.592,-1.502 -0.746,-0.516 -1.94,-1.361 -2.8,0.188 -0.804,1.449 -1.693,2.851 -2.574,4.254 -0.387,0.617 -0.673,1.37 -2.087,1.684" /></g><g
           transform="translate(282.1177,325.2335)"
           id="g84"><path
             id="path86"
             style="fill:#be8625;fill-opacity:1;fill-rule:nonzero;stroke:none"
             d="m 0,0 c 0.637,-3.391 -0.06,-6.965 1.719,-10.095 0.183,-0.323 0.29,-0.774 -0.085,-0.888 -0.719,-0.218 -1.488,-0.317 -2.242,-0.358 -0.435,-0.023 -0.529,0.42 -0.461,0.763 0.768,3.9 -0.68,7.61 -0.997,11.415 -0.111,1.329 0.071,2.802 -1.029,3.921 C -3.458,5.126 -3.339,5.65 -2.84,5.719 -1.835,5.854 -0.663,6.645 0.105,5.258 1.009,3.627 1.879,1.977 2.785,0.346 3.107,-0.236 3.26,-0.946 4.191,-1.479 3.667,0.979 4.073,3.361 2.78,5.457 2.61,5.733 2.275,6.067 2.666,6.344 3.314,6.802 4.111,6.759 4.866,6.784 5.262,6.797 5.621,6.5 5.514,6.152 4.547,3.008 5.95,0.026 6.122,-3.036 6.233,-5.031 6.654,-7.008 6.893,-8.998 6.954,-9.503 7.229,-10.202 6.505,-10.438 5.767,-10.68 5.606,-9.933 5.363,-9.492 3.729,-6.527 2.13,-3.544 0.507,-0.573 0.388,-0.354 0.171,-0.19 0,0" /></g><g
           transform="translate(330.9775,559.9479)"
           id="g88"><path
             id="path90"
             style="fill:#be8625;fill-opacity:1;fill-rule:nonzero;stroke:none"
             d="M 0,0 C -0.085,0.974 -0.229,1.95 -1.121,2.167 -2.075,2.398 -2.01,1.291 -2.233,0.743 -3.589,-2.583 -4.898,-5.929 -6.149,-9.295 -6.374,-9.9 -7.27,-10.711 -6.248,-11.269 c 0.853,-0.466 1.641,0.147 2.13,0.849 C -1.907,-7.244 -0.718,-3.659 0,0 M 2.227,-2.067 C 1.866,-5.318 0.54,-8.539 -1.829,-11.26 c -1.734,-1.992 -6.206,-1.957 -8.151,-0.084 -0.302,0.29 -0.356,0.575 -0.088,0.887 2.631,3.071 3.168,7.087 4.761,10.625 0.538,1.194 1.494,2.354 0.97,3.883 -0.142,0.413 0.225,0.703 0.758,0.689 3.073,-0.086 5.916,-3.228 5.806,-6.807" /></g><g
           transform="translate(183.6709,548.1827)"
           id="g92"><path
             id="path94"
             style="fill:#be8625;fill-opacity:1;fill-rule:nonzero;stroke:none"
             d="m 0,0 c -0.316,1.43 -0.785,2.777 -1.98,3.734 -0.532,0.425 -1.175,0.532 -1.712,0.134 -0.553,-0.409 0,-0.872 0.168,-1.264 0.459,-1.067 0.951,-2.124 1.49,-3.154 0.249,-0.476 0.199,-1.426 1.093,-1.15 0.725,0.224 0.857,0.998 0.941,1.7 m 3.521,-6.812 c -0.236,1.243 -0.767,2.782 -2.337,3.693 -0.489,0.284 -1.118,0.331 -1.581,-0.003 -0.559,-0.402 -0.028,-0.874 0.138,-1.262 0.486,-1.137 0.986,-2.274 1.585,-3.353 0.286,-0.516 0.174,-1.617 1.177,-1.338 0.779,0.217 1.102,0.987 1.018,2.263 m -2.47,5.231 c 3.054,-0.518 4.502,-1.736 4.843,-4.034 0.377,-2.543 -3.329,-6.401 -5.887,-6.137 -0.417,0.043 -0.622,0.262 -0.634,0.651 -0.099,3.174 -2.115,5.609 -3.318,8.34 C -4.808,-0.804 -5.196,1.49 -7.143,2.891 -7.696,3.289 -7.344,3.774 -6.836,4 -5.514,4.586 -4.222,5.347 -2.833,5.653 0.171,6.313 2.793,3.111 1.822,0.102 1.636,-0.477 1.316,-1.013 1.051,-1.581" /></g><g
           transform="translate(351.0889,338.5304)"
           id="g96"><path
             id="path98"
             style="fill:#be8625;fill-opacity:1;fill-rule:nonzero;stroke:none"
             d="m 0,0 c -0.373,2.118 -1.511,4.164 -2.683,6.187 -0.861,1.487 -1.738,2.978 -3.105,4.085 -0.629,0.509 -1.39,0.874 -2.054,0.267 -0.628,-0.576 0.125,-1.126 0.386,-1.611 1.758,-3.27 3.548,-6.523 5.358,-9.764 0.275,-0.491 0.417,-1.403 1.109,-1.235 C -0.216,-1.884 0.085,-1.075 0,0 m 2.059,1.346 c -0.02,-2.869 -3.029,-6.023 -5.18,-6.141 -0.57,-0.03 -0.608,0.311 -0.755,0.731 -1.703,4.865 -4.112,9.353 -7.365,13.364 -0.397,0.489 -0.469,0.686 0.022,1.132 2.742,2.482 6.626,2.42 9.096,-0.315 C 0.293,7.442 1.791,4.309 2.059,1.346" /></g><g
           transform="translate(359.3047,545.6886)"
           id="g100"><path
             id="path102"
             style="fill:#be8625;fill-opacity:1;fill-rule:nonzero;stroke:none"
             d="M 0,0 C 0.077,1.117 -0.094,1.712 -0.729,2.014 -1.253,2.263 -1.437,1.767 -1.642,1.439 -3.814,-2.07 -5.979,-5.585 -8.144,-9.1 c -0.639,-1.039 -0.111,-1.353 0.866,-1.361 0.934,-0.008 1.502,0.625 2.04,1.25 2.036,2.362 3.684,4.97 4.847,7.869 C -0.162,-0.774 -0.046,-0.162 0,0 m 2.08,-1.68 c -0.801,-3.905 -2.982,-7.61 -7.01,-10.027 -1.457,-0.875 -6.249,0.767 -6.93,2.155 -0.213,0.434 0.102,0.611 0.321,0.854 3.473,3.849 6.041,8.263 8.06,13.008 0.246,0.579 0.412,0.734 1.021,0.539 C 0.151,4.01 2.075,1.557 2.08,-1.68" /></g><g
           transform="translate(201.0171,546.1324)"
           id="g104"><path
             id="path106"
             style="fill:#be8625;fill-opacity:1;fill-rule:nonzero;stroke:none"
             d="m 0,0 c -1.255,4.155 -2.22,8.421 -4.749,12.085 -0.332,0.482 -0.816,0.83 -1.418,0.607 -0.729,-0.27 -0.74,-0.956 -0.652,-1.583 0.301,-2.139 1.125,-4.129 1.851,-6.141 0.702,-1.948 1.389,-3.916 2.616,-5.622 0.38,-0.528 0.876,-0.963 1.575,-0.746 0.635,0.197 0.699,0.787 0.777,1.4 m 2.085,2.121 c -0.083,-2.318 -0.346,-4.026 -2.333,-4.73 -1.906,-0.676 -3.397,0.133 -4.551,1.578 -2.473,3.096 -3.871,6.661 -4.147,10.606 -0.124,1.782 0.275,3.551 2.176,4.302 1.956,0.772 3.526,-0.162 4.724,-1.647 C 0.45,9.136 1.588,5.487 2.085,2.121" /></g><g
           transform="translate(271.5649,320.2218)"
           id="g108"><path
             id="path110"
             style="fill:#be8625;fill-opacity:1;fill-rule:nonzero;stroke:none"
             d="M 0,0 C 0.042,2.031 -0.003,4.576 -0.709,7.054 -0.931,7.832 -1.101,8.868 -2.187,8.692 -3.157,8.534 -3.285,7.551 -3.302,6.714 -3.339,4.925 -3.388,3.131 -3.301,1.346 c 0.091,-1.851 0.259,-3.706 0.55,-5.534 0.142,-0.896 0.324,-2.205 1.538,-2.123 1.207,0.082 1.179,1.328 1.206,2.286 C 0.025,-2.857 0,-1.687 0,0 M 2.868,-0.122 C 2.896,-2.079 2.753,-4.004 1.744,-5.742 0.333,-8.172 -2.792,-8.44 -4.177,-6.011 -6.705,-1.578 -6.896,3.18 -5.113,7.957 c 0.493,1.321 1.61,2.09 3.063,2.119 1.557,0.032 2.585,-0.909 3.296,-2.164 1.412,-2.491 1.537,-5.264 1.622,-8.034" /></g><g
           transform="translate(235.0586,330.3263)"
           id="g112"><path
             id="path114"
             style="fill:#be8625;fill-opacity:1;fill-rule:nonzero;stroke:none"
             d="m 0,0 c -0.16,0.956 0.375,2.125 -0.924,2.526 -0.723,0.223 -1.173,-0.363 -1.404,-0.955 -1.507,-3.864 -2.669,-7.825 -3.014,-11.977 -0.06,-0.725 0.095,-1.648 1.058,-1.763 0.799,-0.095 1.197,0.597 1.446,1.26 C -1.503,-7.354 -0.474,-3.719 0,0 m -7.565,-7.937 c 0.202,3.493 0.874,6.851 2.876,9.816 0.96,1.422 2.221,2.288 4.029,1.942 1.874,-0.358 2.622,-1.793 2.827,-3.432 0.526,-4.196 -0.523,-8.104 -2.65,-11.704 -0.885,-1.498 -2.208,-2.552 -4.121,-2.103 -2.086,0.488 -2.77,2.106 -2.955,4.028 -0.046,0.48 -0.006,0.968 -0.006,1.453" /></g><g
           transform="translate(356.1973,356.0031)"
           id="g116"><path
             id="path118"
             style="fill:#be8625;fill-opacity:1;fill-rule:nonzero;stroke:none"
             d="m 0,0 c -0.956,0.036 -1.452,-0.876 -0.889,-2.04 1.75,-3.614 3.771,-7.077 6.475,-10.082 0.493,-0.548 1.147,-1.147 1.983,-0.644 0.9,0.542 0.51,1.351 0.181,2.019 C 6.065,-7.33 4.158,-4.049 1.641,-1.163 1.187,-0.643 0.654,-0.192 0,0 m 9.833,-10.721 c -10e-4,-2.936 -2.562,-4.713 -5.068,-3.216 -4.379,2.615 -6.943,6.675 -7.642,11.691 -0.384,2.752 2.278,4.394 4.894,3.323 3.37,-1.381 7.818,-8.094 7.816,-11.798" /></g><g
           transform="translate(233.9453,553.6803)"
           id="g120"><path
             id="path122"
             style="fill:#be8625;fill-opacity:1;fill-rule:nonzero;stroke:none"
             d="m 0,0 c -0.519,-0.15 -0.814,0.138 -0.75,0.758 0.447,4.351 -1.302,8.382 -1.835,12.59 -0.093,0.735 -0.021,1.581 -0.613,2.154 -1.136,1.098 -0.493,1.447 0.631,1.646 1.293,0.229 2.589,0.442 3.878,0.694 1.851,0.36 3.141,-1.032 2.627,-2.874 -0.047,-0.171 -0.172,-0.378 -0.32,-0.451 -0.312,-0.156 -0.502,0.087 -0.65,0.327 -0.217,0.351 -0.385,0.739 -0.638,1.06 -0.581,0.739 -1.352,0.569 -2.087,0.32 -0.756,-0.255 -0.508,-0.888 -0.416,-1.405 0.216,-1.224 0.465,-2.444 0.723,-3.66 0.079,-0.37 -0.035,-0.896 0.536,-0.975 0.653,-0.09 0.795,0.378 0.883,0.889 0.07,0.405 0.129,0.912 0.64,0.927 0.703,0.019 0.567,-0.663 0.703,-1.078 C 3.439,10.533 3.515,10.113 3.534,9.704 3.568,8.972 4.33,8.067 3.625,7.565 2.786,6.968 2.677,8.269 2.123,8.553 1.451,8.897 1.005,8.783 1.155,7.93 1.465,6.161 1.842,4.403 2.166,2.636 2.277,2.031 2.577,1.807 3.168,1.969 3.959,2.185 4.736,2.289 5.013,3.345 5.199,4.056 4.738,5.442 5.844,5.367 6.874,5.297 6.474,3.89 6.745,3.094 7.144,1.923 6.94,1.164 5.426,1.008 3.645,0.825 1.893,0.365 0,0" /></g><g
           transform="translate(275.0928,574.0914)"
           id="g124"><path
             id="path126"
             style="fill:#be8625;fill-opacity:1;fill-rule:nonzero;stroke:none"
             d="m 0,0 c -1.166,-4.511 -0.646,-9.148 -0.986,-13.716 -0.069,-0.921 0.258,-1.863 1.443,-1.91 1.189,-0.047 1.556,0.896 1.613,1.8 0.194,3.104 0.316,6.214 0.387,9.324 0.027,1.203 0.572,2.477 -0.355,3.611 -0.23,0.281 -0.226,0.732 0.168,0.871 0.726,0.258 1.501,0.245 2.231,-0.005 0.38,-0.131 0.427,-0.511 0.283,-0.871 -1.299,-3.253 -0.549,-6.686 -0.881,-10.023 -0.11,-1.1 -0.074,-2.222 -0.272,-3.303 -0.376,-2.053 -1.874,-3.193 -3.809,-3.043 -1.906,0.147 -3.335,1.55 -3.341,3.568 -0.009,3.042 0.144,6.084 0.234,9.126 0.02,0.691 0.105,1.382 0.085,2.071 C -3.288,0.609 -3.298,0.609 0,0" /></g><g
           transform="translate(365.3828,526.2955)"
           id="g128"><path
             id="path130"
             style="fill:#be8625;fill-opacity:1;fill-rule:nonzero;stroke:none"
             d="M 0,0 C 0.332,0.182 0.751,0.413 1.17,0.642 1.671,0.915 2.158,1.729 2.746,1.031 3.301,0.373 2.419,-0.043 2.118,-0.491 0.655,-2.669 0.629,-2.655 -1.512,-1.083 c -1.281,0.94 -3.186,1.65 -3.661,2.9 -0.509,1.341 1.771,2.009 2.556,3.284 1.661,2.698 3.69,5.17 5.567,7.736 0.164,0.223 0.272,0.552 0.49,0.658 0.93,0.451 -0.184,2.331 1.315,2.103 0.856,-0.13 1.599,-1.02 2.39,-1.574 C 7.598,13.707 8.046,13.383 8.493,13.057 10.59,11.529 10.601,11.429 8.889,9.513 8.624,9.217 8.422,8.723 7.923,8.946 7.398,9.18 7.664,9.633 7.771,10.019 c 0.09,0.33 0.237,0.662 0.241,0.995 0.009,0.814 -0.645,1.187 -1.219,1.55 C 6.088,13.013 5.83,12.351 5.517,11.933 4.771,10.938 4.021,9.944 3.319,8.917 3.082,8.571 2.497,8.213 2.997,7.7 3.325,7.363 3.759,7.491 4.145,7.713 4.549,7.945 5.017,8.398 5.41,7.85 5.767,7.353 5.21,6.977 4.962,6.594 4.662,6.13 4.359,5.657 3.982,5.259 3.589,4.843 3.458,3.925 2.686,4.167 1.941,4.4 2.384,5.084 2.46,5.598 2.514,5.965 2.416,6.288 2.055,6.455 1.627,6.651 1.427,6.309 1.229,6.044 0.322,4.825 -0.591,3.609 -1.459,2.362 -1.738,1.959 -2.408,1.58 -1.902,0.967 -1.459,0.429 -0.859,0.065 0,0" /></g><g
           transform="translate(309.8545,320.922)"
           id="g132"><path
             id="path134"
             style="fill:#be8625;fill-opacity:1;fill-rule:nonzero;stroke:none"
             d="m 0,0 c -0.286,1.058 -0.582,2.555 -1.098,3.971 -1.193,3.269 -1.18,6.942 -3.346,9.891 -0.434,0.591 0.13,0.837 0.627,0.979 1.793,0.513 3.596,0.991 5.376,1.548 0.769,0.24 1.082,-0.149 1.144,-0.742 0.099,-0.928 1.036,-1.856 0.34,-2.726 -0.363,-0.454 -0.818,0.241 -1.032,0.651 -0.582,1.116 -1.528,1.163 -2.472,0.723 -1.016,-0.474 -0.33,-1.321 -0.2,-1.996 0.144,-0.743 0.375,-1.473 0.609,-2.195 0.204,-0.63 0.111,-1.638 0.785,-1.768 1.024,-0.196 0.813,0.835 0.931,1.465 0.061,0.316 0.278,0.485 0.57,0.48 0.288,-0.004 0.51,-0.17 0.595,-0.476 C 3.031,9.072 3.248,8.344 3.445,7.609 3.602,7.025 4.06,6.292 3.477,5.878 2.857,5.437 2.592,6.248 2.244,6.631 1.987,6.915 1.632,7.035 1.31,6.874 0.793,6.616 1.07,6.151 1.167,5.784 1.534,4.381 1.928,2.985 2.323,1.59 2.504,0.954 2.494,0.117 3.555,0.33 4.419,0.504 5.056,0.852 5.305,1.832 5.489,2.559 4.858,3.898 5.97,3.907 6.981,3.915 6.676,2.467 7.056,1.71 7.756,0.317 7.159,-0.22 5.788,-0.498 4.302,-0.799 2.86,-1.312 1.39,-1.694 -0.077,-2.076 -0.083,-2.055 0,0" /></g><g
           transform="translate(297.8936,333.6544)"
           id="g136"><path
             id="path138"
             style="fill:#be8625;fill-opacity:1;fill-rule:nonzero;stroke:none"
             d="m 0,0 c 0.447,-0.177 1.237,0.729 1.553,-0.103 0.409,-1.076 0.54,-2.26 0.749,-3.407 0.02,-0.11 -0.23,-0.361 -0.388,-0.397 -0.401,-0.09 -0.593,0.218 -0.778,0.523 -0.621,1.022 -1.049,2.645 -2.633,1.98 -1.447,-0.609 -0.861,-2.179 -0.72,-3.35 0.405,-3.361 1,-6.691 2.413,-9.808 0.364,-0.802 0.752,-1.839 1.907,-1.405 1.089,0.409 0.593,1.384 0.409,2.158 -0.191,0.8 -0.4,1.603 -0.693,2.37 -0.191,0.502 -1.533,0.574 -0.898,1.24 0.52,0.545 1.64,0.608 2.514,0.704 0.945,0.104 0.764,-0.792 0.901,-1.335 0.268,-1.069 0.239,-2.295 0.769,-3.199 0.907,-1.547 0.077,-2.103 -1.065,-2.69 -2.436,-1.252 -4.792,-0.84 -6.17,1.428 -2.266,3.728 -3.115,7.819 -2.062,12.115 C -3.704,-1.185 -2.61,0.415 0,0" /></g><g
           transform="translate(191.231,347.6671)"
           id="g140"><path
             id="path142"
             style="fill:#be8625;fill-opacity:1;fill-rule:nonzero;stroke:none"
             d="m 0,0 c 0.292,1.159 -0.486,1.621 -1.332,2.026 -1.097,0.526 -1.07,-0.572 -1.38,-1.042 -0.608,-0.921 -1.121,-1.909 -1.608,-2.9 -0.186,-0.378 -0.763,-0.78 -0.252,-1.259 0.436,-0.408 0.897,-0.167 1.299,0.164 0.32,0.263 0.667,0.598 1.075,0.218 0.414,-0.386 0.03,-0.746 -0.149,-1.09 -0.286,-0.553 -0.546,-1.126 -0.892,-1.638 -0.322,-0.477 -0.354,-1.402 -1.151,-1.25 -0.761,0.144 -0.367,0.891 -0.382,1.406 -0.011,0.349 -0.088,0.722 -0.476,0.834 -0.556,0.161 -0.681,-0.335 -0.869,-0.675 -0.706,-1.269 -1.42,-2.534 -2.076,-3.828 -0.246,-0.487 -0.965,-1.041 -0.203,-1.597 0.721,-0.524 1.542,-1.047 2.454,-0.315 0.377,0.301 0.697,0.673 1.067,0.983 0.274,0.231 0.605,0.359 0.945,0.12 0.402,-0.282 0.16,-0.608 0.013,-0.898 -0.283,-0.554 -0.67,-1.067 -0.876,-1.645 -0.452,-1.269 -1.127,-1.299 -2.186,-0.653 -1.475,0.899 -3.032,1.662 -4.54,2.51 -0.442,0.248 -1.259,0.602 -0.482,1.163 2.097,1.512 2.624,3.989 3.88,6.007 1.24,1.992 2.834,4.007 3.255,6.207 0.59,3.083 1.791,1.712 3.149,0.979 C -0.986,3.434 -0.304,2.89 0.473,2.652 2.461,2.044 2.221,0.955 1.25,-0.349 0.946,-0.757 0.888,-1.607 0.185,-1.402 -0.634,-1.163 -0.05,-0.492 0,0" /></g><g
           transform="translate(342.2754,550.7413)"
           id="g144"><path
             id="path146"
             style="fill:#be8625;fill-opacity:1;fill-rule:nonzero;stroke:none"
             d="m 0,0 c -0.119,0.089 -0.237,0.179 -0.356,0.268 -0.746,-0.951 -1.501,-1.893 -2.231,-2.856 -0.226,-0.298 -0.673,-0.649 -0.201,-1.031 0.357,-0.29 0.82,-0.571 1.257,-0.608 0.476,-0.04 0.541,0.518 0.645,0.899 C -0.583,-2.221 -0.295,-1.109 0,0 M 3.986,5.019 C 3.425,2.936 2.747,0.824 2.299,-1.336 c -0.65,-3.136 -2.343,-6.041 -2.041,-9.395 0.054,-0.607 -0.484,-0.767 -1.044,-0.486 -0.68,0.341 -1.352,0.698 -2.042,1.018 -0.961,0.446 -1.171,0.739 -0.105,1.486 1.412,0.989 1.478,2.631 0.359,3.304 -1.678,1.01 -2.892,0.288 -3.011,-1.857 -0.027,-0.497 0.106,-1.159 -0.483,-1.143 -0.816,0.023 -1.678,0.426 -2.158,1.083 -0.462,0.634 0.295,0.846 0.733,1.174 0.542,0.405 1.03,0.919 1.432,1.466 2.453,3.336 5.323,6.363 7.459,9.928 0.544,0.905 1.286,0.615 1.996,0.631 0.49,0.01 0.775,-0.26 0.592,-0.854" /></g><g
           transform="translate(289.8511,566.8107)"
           id="g148"><path
             id="path150"
             style="fill:#be8625;fill-opacity:1;fill-rule:nonzero;stroke:none"
             d="M 0,0 C -0.101,0.004 -0.202,0.009 -0.303,0.013 -0.72,-1.198 -1.121,-2.415 -1.559,-3.618 -1.861,-4.451 -1.441,-4.704 -0.72,-4.843 0.088,-4.999 0.45,-4.727 0.371,-3.9 0.248,-2.6 0.124,-1.3 0,0 m -1.302,-6.184 c -1.28,0.03 -1.988,-1.21 -1.528,-2.792 0.131,-0.448 0.613,-0.957 -0.02,-1.227 -0.786,-0.335 -1.717,-0.13 -2.4,0.255 -0.696,0.393 0.05,0.865 0.256,1.329 1.909,4.295 3.355,8.764 4.554,13.291 0.342,1.291 1.045,1.61 1.942,1.648 1.083,0.047 0.665,-1.017 0.714,-1.592 0.348,-4.134 0.633,-8.272 0.938,-12.409 0.025,-0.345 0.034,-0.692 0.083,-1.033 0.372,-2.594 0.38,-2.561 -2.246,-2.149 -1.168,0.183 -1.667,0.245 -0.686,1.564 1.09,1.466 0.124,3.073 -1.607,3.115" /></g><g
           transform="translate(168.7305,540.4406)"
           id="g152"><path
             id="path154"
             style="fill:#be8625;fill-opacity:1;fill-rule:nonzero;stroke:none"
             d="M 0,0 C 0.451,-1.529 0.795,-2.701 1.141,-3.872 1.315,-4.458 1.545,-4.889 2.251,-4.395 2.725,-4.063 3.559,-3.906 2.89,-3.08 2.087,-2.09 1.403,-0.978 0,0 m 4.006,-9.78 c -0.402,-0.748 -1.26,-0.921 -1.974,-1.27 -0.515,-0.252 -0.892,0.203 -0.849,0.586 0.255,2.308 -0.887,4.284 -1.495,6.368 -0.791,2.712 -1.398,5.501 -2.659,8.054 -0.531,1.078 0.298,1.624 0.812,2.092 0.742,0.676 1.026,-0.365 1.35,-0.746 C 1.883,2.144 4.526,-1.059 7.183,-4.249 7.449,-4.567 7.695,-4.905 7.985,-5.201 9.844,-7.097 9.829,-7.056 7.255,-8.295 6.301,-8.754 5.822,-8.831 5.96,-7.546 6.093,-6.31 5.225,-5.491 4.321,-5.19 3.519,-4.923 2.327,-5.583 2.156,-6.385 1.965,-7.281 2.124,-8.498 3.344,-8.974 3.69,-9.109 3.927,-9.322 4.006,-9.78" /></g><g
           transform="translate(333.8262,338.6241)"
           id="g156"><path
             id="path158"
             style="fill:#be8625;fill-opacity:1;fill-rule:nonzero;stroke:none"
             d="m 0,0 c -0.111,-0.06 -0.222,-0.119 -0.332,-0.178 0.277,-1.252 0.619,-2.494 0.81,-3.76 0.143,-0.946 0.57,-0.892 1.251,-0.603 0.609,0.259 1.197,0.437 0.578,1.27 C 1.511,-2.201 0.767,-1.093 0,0 m 0.278,-9.703 c -0.748,3.431 -1.483,6.863 -2.248,10.289 -0.255,1.14 -0.404,2.352 -0.92,3.371 -0.626,1.236 0.303,1.724 0.899,2.182 0.772,0.594 1,-0.415 1.304,-0.842 C 1.76,1.875 4.168,-1.574 6.589,-5.016 6.826,-5.354 7.127,-5.664 7.292,-6.035 7.61,-6.745 9.133,-6.725 8.719,-7.521 8.184,-8.548 6.766,-8.703 5.68,-9.067 4.923,-9.321 4.945,-8.751 4.973,-8.076 5.047,-6.258 3.849,-5.188 2.533,-5.731 0.971,-6.376 0.705,-7.866 1.954,-9.084 c 0.357,-0.348 1.255,-0.505 0.807,-1.145 -0.463,-0.663 -1.398,-1.057 -2.18,-1 -0.951,0.069 -0.417,0.946 -0.303,1.526" /></g><g
           transform="translate(218.3369,331.6271)"
           id="g160"><path
             id="path162"
             style="fill:#be8625;fill-opacity:1;fill-rule:nonzero;stroke:none"
             d="m 0,0 c -0.947,-0.923 -1.338,-2.197 -2.06,-3.262 -0.44,-0.647 -0.417,-1.059 0.453,-1.327 0.799,-0.246 1.244,-0.27 1.356,0.751 0.141,1.288 0.449,2.559 0.227,3.865 C 0.023,0.066 0.071,0.106 0.119,0.146 0.079,0.098 0.04,0.049 0,0 m -4.481,-8.128 c 0.258,-0.576 0.564,-1.164 -0.091,-1.34 -0.825,-0.22 -1.696,0.162 -2.293,0.673 -0.61,0.522 0.068,0.907 0.489,1.263 0.925,0.78 1.334,1.91 1.89,2.933 1.773,3.264 3.934,6.317 5.333,9.783 C 1.246,6.17 2.135,5.905 2.801,5.846 3.807,5.755 3.322,4.88 3.266,4.379 2.826,0.474 2.326,-3.425 1.849,-7.326 1.765,-8.011 1.817,-8.736 1.601,-9.372 c -0.261,-0.763 1.082,-1.893 -0.1,-2.11 -1.011,-0.186 -2.281,0.419 -3.275,0.966 -0.775,0.427 0.009,0.803 0.38,1.193 0.993,1.04 0.897,2.803 -0.151,3.222 -0.602,0.242 -1.333,0.809 -1.91,0.196 -0.582,-0.618 -1.203,-1.348 -1.026,-2.223" /></g><g
           transform="translate(180.4023,353.0118)"
           id="g164"><path
             id="path166"
             style="fill:#be8625;fill-opacity:1;fill-rule:nonzero;stroke:none"
             d="M 0,0 C 0.041,0.245 0.124,0.583 0.149,0.925 0.218,1.851 -0.425,2.292 -1.127,2.622 -2.019,3.043 -2.142,2.166 -2.449,1.713 -3.147,0.685 -3.8,-0.376 -4.432,-1.446 -4.65,-1.815 -5.179,-2.205 -4.625,-2.694 c 0.354,-0.314 0.751,-0.256 1.147,-0.025 0.401,0.234 0.832,0.658 1.271,0.121 0.435,-0.531 -0.143,-0.87 -0.35,-1.258 -0.259,-0.488 -0.558,-0.956 -0.87,-1.411 -0.261,-0.379 -0.411,-1.022 -0.978,-0.925 -0.622,0.105 -0.512,0.703 -0.475,1.192 0.04,0.53 -0.11,0.986 -0.709,1.076 -0.527,0.078 -0.717,-0.405 -0.873,-0.743 -0.827,-1.779 -2.626,-3.058 -2.652,-5.261 -0.008,-0.601 -0.497,-0.811 -1.046,-0.489 -0.715,0.419 -1.399,0.89 -2.103,1.326 -0.59,0.365 -0.457,0.648 -0.036,1.116 3.494,3.884 6.346,8.177 8.165,13.104 0.253,0.685 0.655,0.595 1.119,0.31 1.65,-1.01 3.272,-2.068 4.946,-3.038 0.76,-0.44 0.49,-0.927 0.15,-1.344 C 1.491,0.337 1.392,-0.883 0.287,-1.045 -0.185,-1.114 -0.254,-0.531 0,0" /></g><g
           transform="translate(163.9932,527.3126)"
           id="g168"><path
             id="path170"
             style="fill:#be8625;fill-opacity:1;fill-rule:nonzero;stroke:none"
             d="m 0,0 c -0.006,-1.989 -2.588,-4.606 -4.394,-4.453 -0.462,0.039 -2.583,3.477 -2.402,3.937 0.211,0.539 0.565,0.523 0.939,0.156 0.345,-0.338 0.656,-0.713 1.012,-1.038 0.821,-0.747 1.781,-1.306 2.742,-0.402 0.905,0.851 0.552,1.908 -0.024,2.838 -0.963,1.552 -2.606,1.937 -4.209,2.373 -1.805,0.491 -3.718,0.877 -4.841,2.544 -2.366,3.51 -1.424,5.52 2.411,6.813 0.87,0.294 0.993,-0.58 1.266,-1.054 0.429,-0.746 1.27,-1.341 1.08,-2.342 -0.05,-0.259 -0.444,-0.307 -0.709,-0.148 -0.234,0.14 -0.424,0.352 -0.652,0.505 -0.904,0.609 -1.905,2.042 -2.876,0.443 -0.832,-1.373 0.415,-2.376 1.549,-2.886 1.5,-0.674 3.149,-1.008 4.698,-1.583 C -1.752,4.716 0.006,2.389 0,0" /></g><g
           transform="translate(254.4082,319.8566)"
           id="g172"><path
             id="path174"
             style="fill:#be8625;fill-opacity:1;fill-rule:nonzero;stroke:none"
             d="m 0,0 c 0.059,-1.17 0.042,-2.352 0.203,-3.507 0.102,-0.723 0.313,-1.581 1.234,-1.729 1.039,-0.168 1.377,0.656 1.787,1.4 0.276,0.504 0.123,1.729 1.187,1.188 C 5.208,-3.053 4.616,-3.879 4.374,-4.487 3.854,-5.793 2.969,-6.803 1.5,-6.819 c -1.389,-0.016 -2.454,0.714 -3.168,1.975 -1.919,3.393 -1.173,11.513 1.367,14.439 1.252,1.443 4.313,1.742 5.63,0.551 C 5.718,9.794 5.519,6.437 5.062,6.189 4.372,5.816 4.259,6.41 4.096,6.848 3.713,7.876 3.914,9.598 2.322,9.416 0.8,9.243 0.969,7.52 0.72,6.373 0.265,4.282 0.066,2.148 0,0" /></g><g
           transform="translate(306.832,556.3068)"
           id="g176"><path
             id="path178"
             style="fill:#be8625;fill-opacity:1;fill-rule:nonzero;stroke:none"
             d="m 0,0 c -0.136,-0.62 -0.303,-1.154 -0.362,-1.7 -0.134,-1.237 -0.636,-1.633 -1.921,-1.23 -1.511,0.472 -3.099,0.694 -4.646,1.054 -0.531,0.123 -1.265,0.307 -0.76,1.058 2.237,3.335 2.008,7.353 3.089,11.005 0.374,1.265 0.982,2.597 0.371,4.034 -0.257,0.609 0.215,0.896 0.807,0.789 0.815,-0.148 1.619,-0.35 2.425,-0.543 0.621,-0.149 0.738,-0.46 0.42,-1.049 -2.272,-4.206 -2.288,-9.013 -3.555,-13.489 -0.102,-0.363 -0.303,-0.845 0.276,-1.038 0.608,-0.203 1.269,-0.29 1.766,0.179 0.39,0.368 0.657,0.873 0.943,1.339 0.193,0.314 0.405,0.597 0.796,0.513 C 0.271,0.788 -0.002,0.294 0,0" /></g><g
           transform="translate(323.1621,323.1993)"
           id="g180"><path
             id="path182"
             style="fill:#be8625;fill-opacity:1;fill-rule:nonzero;stroke:none"
             d="m 0,0 c -0.652,-0.067 -0.994,0.315 -0.797,0.717 0.736,1.498 -0.275,2.674 -0.657,3.929 -0.86,2.84 -1.863,5.636 -2.819,8.446 -0.178,0.521 -0.268,1.19 -0.64,1.507 -1.923,1.63 -0.342,1.776 0.839,2.207 1.289,0.47 1.831,0.79 1.989,-1.271 0.195,-2.546 1.45,-5.012 2.262,-7.507 C 0.669,6.517 1.148,4.998 1.724,3.519 1.906,3.049 1.751,2.076 2.762,2.338 3.537,2.539 4.075,2.981 4.198,3.895 4.288,4.573 3.668,5.728 4.632,5.845 5.673,5.971 5.432,4.621 5.818,3.957 6.627,2.564 6.128,1.875 4.642,1.494 3.039,1.083 1.484,0.486 0,0" /></g><g
           transform="translate(202.1226,327.3273)"
           id="g184"><path
             id="path186"
             style="fill:#be8625;fill-opacity:1;fill-rule:nonzero;stroke:none"
             d="m 0,0 c 1.332,0.333 1.487,1.222 1.792,1.951 1.359,3.242 2.688,6.497 4.027,9.747 0.131,0.32 0.223,0.658 0.385,0.96 0.343,0.643 -0.551,1.748 0.439,1.977 1.007,0.231 1.921,-0.625 2.884,-0.981 0.508,-0.187 0.523,-0.597 0.16,-0.977 C 7.317,10.199 6.886,6.782 5.408,3.874 4.815,2.709 4.39,1.441 3.674,0.362 2.591,-1.271 0.658,-1.702 -0.866,-0.843 c -1.01,0.57 -1.558,1.394 -1.2,2.57 0.204,0.671 0.749,0.993 1.462,0.806 C 0.825,2.159 0.08,1.031 0,0" /></g><g
           transform="translate(320.0986,566.5758)"
           id="g188"><path
             id="path190"
             style="fill:#be8625;fill-opacity:1;fill-rule:nonzero;stroke:none"
             d="m 0,0 c -0.095,-0.344 -0.099,-0.496 -0.17,-0.6 -2.559,-3.731 -2.808,-8.275 -4.361,-12.36 -0.17,-0.447 -0.24,-0.932 -0.378,-1.393 -0.19,-0.625 0.867,-1.756 -0.393,-1.828 -1.022,-0.059 -2.099,0.563 -3.122,0.96 -0.218,0.084 -0.148,0.471 0.034,0.73 2.325,3.298 2.606,7.331 3.919,10.994 0.425,1.182 1.194,2.388 0.586,3.773 -0.062,0.144 0.009,0.455 0.128,0.552 0.682,0.551 1.308,-0.014 1.939,-0.176 C -1.187,0.49 -0.586,0.215 0,0" /></g><g
           transform="translate(201.772,345.2784)"
           id="g192"><path
             id="path194"
             style="fill:#be8625;fill-opacity:1;fill-rule:nonzero;stroke:none"
             d="m 0,0 c -0.192,-0.354 -0.259,-0.556 -0.388,-0.702 -3.198,-3.642 -4.341,-8.37 -6.609,-12.503 -0.178,-0.325 -0.11,-0.805 -0.099,-1.211 0.021,-0.736 -0.26,-1.075 -0.989,-0.763 -0.762,0.325 -1.493,0.721 -2.243,1.074 -0.632,0.296 -0.544,0.644 -0.168,1.124 3.201,4.083 5.157,8.781 6.639,13.692 0.216,0.717 0.397,0.98 1.085,0.648 C -1.856,0.917 -0.945,0.464 0,0" /></g><g
           transform="translate(220.1504,339.5763)"
           id="g196"><path
             id="path198"
             style="fill:#be8625;fill-opacity:1;fill-rule:nonzero;stroke:none"
             d="m 0,0 c -0.433,-0.103 -0.845,-1.012 -1.275,-0.118 -0.113,0.235 0.224,0.77 0.47,1.075 C -0.446,1.401 0.02,1.639 0.657,1.39 1.718,0.975 2.244,-0.879 3.916,0.212 4.134,0.354 4.209,-0.286 4.069,-0.602 3.769,-1.277 3.303,-1.861 2.502,-1.635 2.011,-1.495 1.595,-1.047 1.179,-0.698 0.819,-0.397 0.587,0.092 0,0" /></g><g
           transform="translate(267.1147,383.4874)"
           id="g200"><path
             id="path202"
             style="fill:#ebe3d3;fill-opacity:1;fill-rule:nonzero;stroke:none"
             d="m 0,0 c -0.261,-0.569 -0.551,-1.166 -0.079,-1.737 1.658,-2.005 0.336,-3.609 -0.73,-5.744 V 0.096 C -0.539,0.063 -0.27,0.031 0,0" /></g><g
           transform="translate(266.3062,359.4445)"
           id="g204"><path
             id="path206"
             style="fill:#ebe3d3;fill-opacity:1;fill-rule:nonzero;stroke:none"
             d="M 0,0 V 7.555 C 1.038,5.387 2.394,3.784 0.743,1.786 0.281,1.227 0.501,0.637 0.755,0.063 0.503,0.042 0.252,0.021 0,0" /></g><g
           transform="translate(272.7505,362.3663)"
           id="g208"><path
             id="path210"
             style="fill:#ebe3d3;fill-opacity:1;fill-rule:nonzero;stroke:none"
             d="M 0,0 C -0.217,0.191 -0.676,0.465 -0.299,0.678 0.057,0.88 0.312,0.36 0.496,0.021 0.33,0.015 0.165,0.007 0,0" /></g><g
           transform="translate(256.1978,379.424)"
           id="g212"><path
             id="path214"
             style="fill:#ebe3d3;fill-opacity:1;fill-rule:nonzero;stroke:none"
             d="M 0,0 C 0.348,-0.161 0.813,-0.419 0.68,-0.766 0.517,-1.191 0.199,-0.777 -0.033,-0.634 -0.022,-0.423 -0.011,-0.212 0,0" /></g><g
           transform="translate(274.4854,363.671)"
           id="g216"><path
             id="path218"
             style="fill:#ebe3d3;fill-opacity:1;fill-rule:nonzero;stroke:none"
             d="M 0,0 C -0.204,0.185 -0.408,0.369 -0.611,0.554 -0.539,0.636 -0.468,0.72 -0.398,0.805 -0.261,0.739 -0.124,0.675 0.014,0.609 0.009,0.406 0.004,0.203 0,0" /></g><g
           transform="translate(432.3037,476.0133)"
           id="g220"><path
             id="path222"
             style="fill:#fdfbf7;fill-opacity:1;fill-rule:nonzero;stroke:none"
             d="m 0,0 c -3.991,-8.436 -4.436,-17.454 -4.247,-26.544 0.117,-5.597 0.614,-11.172 1.656,-16.69 1.207,-6.397 3.485,-12.328 7.402,-17.577 -0.054,-0.054 -0.108,-0.107 -0.163,-0.16 -3.227,1.892 -5.19,4.898 -6.923,8.053 -3.181,5.789 -4.584,12.107 -5.259,18.611 -0.953,9.185 -0.279,18.219 2.761,26.994 0.974,2.814 2.222,5.503 4.44,7.61 C -0.222,0.198 -0.111,0.099 0,0" /></g><g
           transform="translate(478.6738,332.4083)"
           id="g224"><path
             id="path226"
             style="fill:#fdfbf7;fill-opacity:1;fill-rule:nonzero;stroke:none"
             d="m 0,0 c -0.21,2.265 0.924,4.261 1.322,6.409 1.25,6.741 1.797,13.528 2.065,20.367 0.202,5.181 0.246,10.357 0.232,15.536 -0.007,2.639 0.184,5.281 0.012,7.977 1.12,-1.723 1.732,-3.646 2.093,-5.603 C 7.598,34.478 7.719,24.246 5.711,14.043 4.722,9.017 3.056,4.226 -0.028,0.037 Z" /></g><g
           transform="translate(478.6455,332.4454)"
           id="g228"><path
             id="path230"
             style="fill:#fdfbf7;fill-opacity:1;fill-rule:nonzero;stroke:none"
             d="m 0,0 -0.234,-0.267 c -0.09,0.278 0.018,0.33 0.261,0.231 C 0.028,-0.037 0,0 0,0" /></g><g
           transform="translate(437.1143,415.2023)"
           id="g232"><path
             id="path234"
             style="fill:#fdfbf7;fill-opacity:1;fill-rule:nonzero;stroke:none"
             d="M 0,0 C 0.161,-0.061 0.418,-0.129 0.249,-0.334 0.102,-0.514 -0.073,-0.344 -0.161,-0.16 -0.107,-0.107 -0.054,-0.054 0,0" /></g><g
           transform="translate(431.9707,476.3107)"
           id="g236"><path
             id="path238"
             style="fill:#fdfbf7;fill-opacity:1;fill-rule:nonzero;stroke:none"
             d="M 0,0 C 0.119,0.104 0.312,0.317 0.347,0.294 0.624,0.111 0.454,-0.099 0.332,-0.297 0.222,-0.198 0.111,-0.099 0,0" /></g><g
           transform="translate(42.2285,339.5099)"
           id="g240"><path
             id="path242"
             style="fill:#fdfbf7;fill-opacity:1;fill-rule:nonzero;stroke:none"
             d="M 0,0 C -2.266,43.052 -2.269,86.088 -0.003,129.125 2.23,86.08 2.27,43.033 0,0" /></g><g
           transform="translate(305.1201,415.3077)"
           id="g244"><path
             id="path246"
             style="fill:#faf2e1;fill-opacity:1;fill-rule:nonzero;stroke:none"
             d="M 0,0 C -1.236,21.375 -1.237,42.715 -0.005,64.056 1.383,42.694 1.389,21.331 0,0" /></g><g
           transform="translate(334.6855,474.4791)"
           id="g248"><path
             id="path250"
             style="fill:#fbf8f3;fill-opacity:1;fill-rule:nonzero;stroke:none"
             d="M 0,0 C 1.936,-3.239 1.794,-52.172 0.077,-54.657 -0.598,-36.542 -0.527,-18.566 0,0" /></g><g
           transform="translate(335.5029,479.1637)"
           id="g252"><path
             id="path254"
             style="fill:#be8625;fill-opacity:1;fill-rule:nonzero;stroke:none"
             d="M 0,0 V -3.856 C -1.086,-2.282 -0.818,-1.14 0,0" /></g><g
           transform="translate(335.4385,414.9376)"
           id="g256"><path
             id="path258"
             style="fill:#be8625;fill-opacity:1;fill-rule:nonzero;stroke:none"
             d="M 0,0 C -0.881,1.561 -0.89,2.042 0,3.905 Z" /></g><g
           transform="translate(365.8037,479.3312)"
           id="g260"><path
             id="path262"
             style="fill:#faf2e1;fill-opacity:1;fill-rule:nonzero;stroke:none"
             d="M 0,0 C 1.327,-21.077 1.335,-42.054 0.016,-63.029 -1.21,-41.989 -1.194,-20.949 0,0" /></g><g
           transform="translate(133.4097,476.3595)"
           id="g264"><path
             id="path266"
             style="fill:#fbf5e8;fill-opacity:1;fill-rule:nonzero;stroke:none"
             d="M 0,0 C 1.209,-19.452 1.259,-38.936 -0.011,-58.421 -1.269,-38.961 -1.28,-19.498 0,0" /></g><g
           transform="translate(256.8794,433.3859)"
           id="g268"><path
             id="path270"
             style="fill:#cececf;fill-opacity:1;fill-rule:nonzero;stroke:none"
             d="m 0,0 c -0.339,2.462 -0.276,4.937 -0.057,7.395 0.224,2.513 1.591,4.469 3.629,6.133 -0.476,0.245 -0.766,0.526 -1.054,0.523 -2.556,-0.023 -2.928,1.435 -2.733,3.596 0.259,2.868 -0.222,5.769 0.238,8.64 0.453,-0.16 0.967,-0.231 1.347,-0.495 1.765,-1.222 2.719,-0.863 3.382,1.255 1.104,3.532 2.463,6.985 3.856,10.867 1.161,-3.298 2.198,-6.186 3.192,-9.09 1.383,-4.042 1.368,-4.047 5.302,-2.566 0.027,-3.305 -0.023,-6.613 0.117,-9.913 0.058,-1.391 -0.387,-2.005 -1.737,-2.097 -0.666,-0.046 -1.331,-0.192 -1.949,-0.826 3.159,-2.073 3.91,-5.139 3.664,-8.645 C 17.087,3.2 17.137,1.612 17.115,0.029 16.621,0.275 16.139,0.551 15.631,0.762 13.264,1.748 13.284,1.733 12.399,-0.78 11.214,-4.149 9.989,-7.504 8.671,-11.173 8.318,-10.486 8.128,-10.196 8.013,-9.879 7.094,-7.357 6.164,-4.839 5.285,-2.304 3.863,1.798 3.879,1.804 0,0" /></g><g
           transform="translate(273.9814,459.6437)"
           id="g272"><path
             id="path274"
             style="fill:#fefefe;fill-opacity:1;fill-rule:nonzero;stroke:none"
             d="M 0,0 C -3.934,-1.481 -3.919,-1.476 -5.302,2.566 -6.296,5.47 -7.333,8.358 -8.494,11.656 -9.887,7.774 -11.246,4.321 -12.35,0.79 c -0.663,-2.119 -1.617,-2.478 -3.382,-1.256 -0.38,0.264 -0.894,0.335 -1.347,0.495 -0.038,7.117 -0.517,14.256 0.549,21.33 0.779,5.166 3.811,7.784 8.423,7.677 3.175,-0.073 5.578,-1.861 6.862,-5.105 0.8,-2.019 1.172,-4.159 1.211,-6.287 C 0.074,11.764 0.001,5.881 0,0" /></g><g
           transform="translate(256.8794,433.3859)"
           id="g276"><path
             id="path278"
             style="fill:#fefefe;fill-opacity:1;fill-rule:nonzero;stroke:none"
             d="m 0,0 c 3.879,1.804 3.863,1.798 5.285,-2.304 0.879,-2.535 1.809,-5.053 2.728,-7.575 0.115,-0.317 0.305,-0.607 0.658,-1.294 1.318,3.669 2.543,7.024 3.728,10.393 0.885,2.513 0.865,2.528 3.232,1.542 0.508,-0.211 0.99,-0.487 1.484,-0.733 -0.006,-6.22 0.381,-12.446 -0.304,-18.656 -0.153,-1.385 -0.496,-2.723 -0.994,-4.01 -1.234,-3.187 -3.86,-5.035 -7.137,-5.093 -3.303,-0.06 -5.876,1.674 -7.275,4.875 -1.428,3.266 -1.356,6.751 -1.421,10.195 C -0.096,-8.442 -0.013,-4.22 0,0" /></g><g
           transform="translate(249.6597,459.1598)"
           id="g280"><path
             id="path282"
             style="fill:#ebe3d3;fill-opacity:1;fill-rule:nonzero;stroke:none"
             d="M 0,0 C -0.147,5.178 0.273,10.324 0.805,15.466 1.32,9.481 1.696,3.5 1.552,-2.5 1.223,-1.55 1.154,-0.438 0,0" /></g><g
           transform="translate(279.6064,457.1036)"
           id="g284"><path
             id="path286"
             style="fill:#ebe3d3;fill-opacity:1;fill-rule:nonzero;stroke:none"
             d="M 0,0 C 0.021,5.069 0.134,10.132 0.854,15.177 1.325,10.956 1.981,6.753 1.516,2.488 1.011,1.659 0.505,0.83 0,0" /></g><g
           transform="translate(251.1729,435.5148)"
           id="g288"><path
             id="path290"
             style="fill:#ebe3d3;fill-opacity:1;fill-rule:nonzero;stroke:none"
             d="m 0,0 c 0.173,-5.188 -0.384,-10.354 -0.638,-15.541 -0.701,4.6 -0.813,9.244 -0.849,13.892 C -0.519,-1.524 -0.891,-0.194 0,0" /></g><g
           transform="translate(249.5342,443.3927)"
           id="g292"><path
             id="path294"
             style="fill:#cececf;fill-opacity:1;fill-rule:nonzero;stroke:none"
             d="M 0,0 C -0.404,2.204 -0.345,4.409 -0.006,6.614 0.588,6.771 1.182,6.928 1.776,7.085 2.128,4.567 2.063,2.047 1.798,-0.473 1.199,-0.315 0.599,-0.158 0,0" /></g><g
           transform="translate(281.1309,433.8346)"
           id="g296"><path
             id="path298"
             style="fill:#ebe3d3;fill-opacity:1;fill-rule:nonzero;stroke:none"
             d="m 0,0 c -0.036,-2.483 -0.026,-4.968 -0.122,-7.449 -0.079,-2.048 -0.283,-4.09 -0.507,-6.134 C -1.24,-8.376 -1.53,-3.155 -1.487,2.084 -0.991,1.389 -0.496,0.695 0,0" /></g><g
           transform="translate(279.6064,457.1036)"
           id="g300"><path
             id="path302"
             style="fill:#fefefe;fill-opacity:1;fill-rule:nonzero;stroke:none"
             d="M 0,0 C 0.505,0.83 1.011,1.659 1.516,2.488 1.852,-0.678 1.939,-3.852 1.808,-7.032 1.181,-6.896 0.555,-6.76 -0.071,-6.624 -0.048,-4.416 -0.024,-2.208 0,0" /></g><g
           transform="translate(249.5342,443.3927)"
           id="g304"><path
             id="path306"
             style="fill:#fefefe;fill-opacity:1;fill-rule:nonzero;stroke:none"
             d="M 0,0 C 0.599,-0.158 1.199,-0.315 1.798,-0.473 1.765,-2.668 1.731,-4.862 1.698,-7.056 1.696,-7.207 1.695,-7.357 1.693,-7.509 1.732,-7.64 1.714,-7.764 1.639,-7.878 0.748,-8.072 1.12,-9.402 0.152,-9.527 0.101,-6.352 0.051,-3.176 0,0" /></g><g
           transform="translate(281.1309,433.8346)"
           id="g308"><path
             id="path310"
             style="fill:#fefefe;fill-opacity:1;fill-rule:nonzero;stroke:none"
             d="M 0,0 C -0.496,0.695 -0.991,1.389 -1.487,2.084 -1.496,4.422 -1.504,6.76 -1.513,9.099 -0.92,9.238 -0.327,9.378 0.266,9.518 0.177,6.345 0.089,3.173 0,0" /></g><g
           transform="translate(281.397,443.3527)"
           id="g312"><path
             id="path314"
             style="fill:#ebe3d3;fill-opacity:1;fill-rule:nonzero;stroke:none"
             d="M 0,0 C -0.593,-0.14 -1.186,-0.28 -1.779,-0.419 -2.047,2.093 -1.912,4.611 -1.862,7.127 -1.236,6.991 -0.609,6.855 0.017,6.719 0.011,4.479 0.005,2.24 0,0" /></g><g
           transform="translate(251.3105,450.4781)"
           id="g316"><path
             id="path318"
             style="fill:#fefefe;fill-opacity:1;fill-rule:nonzero;stroke:none"
             d="m 0,0 c -0.594,-0.157 -1.188,-0.314 -1.782,-0.472 0.043,3.051 0.087,6.102 0.131,9.154 1.154,-0.439 1.223,-1.55 1.552,-2.5 C -0.066,4.121 -0.033,2.061 0,0" /></g><g
           transform="translate(251.2275,435.8839)"
           id="g320"><path
             id="path322"
             style="fill:#cececf;fill-opacity:1;fill-rule:nonzero;stroke:none"
             d="M 0,0 C 0.001,0.151 0.003,0.302 0.005,0.453 0.041,0.347 0.09,0.243 0.105,0.135 0.111,0.096 0.038,0.045 0,0" /></g><g
           transform="translate(192.6802,478.9279)"
           id="g324"><path
             id="path326"
             style="fill:#fbf5e8;fill-opacity:1;fill-rule:nonzero;stroke:none"
             d="M 0,0 C 1.191,-21.171 1.264,-42.365 0.022,-63.56 -1.282,-42.382 -1.31,-21.204 0,0" /></g><g
           transform="translate(227.5088,427.6837)"
           id="g328"><path
             id="path330"
             style="fill:#faf2e1;fill-opacity:1;fill-rule:nonzero;stroke:none"
             d="M 0,0 C -0.965,15.866 -1.017,31.729 -0.015,47.589 1.007,31.726 0.971,15.863 0,0" /></g><g
           transform="translate(227.8032,482.3546)"
           id="g332"><path
             id="path334"
             style="fill:#be8625;fill-opacity:1;fill-rule:nonzero;stroke:none"
             d="M 0,0 C -0.004,-1.512 0.339,-3.052 -0.36,-4.511 -0.884,-2.97 -0.757,-1.467 0,0" /></g><g
           transform="translate(227.8564,420.5031)"
           id="g336"><path
             id="path338"
             style="fill:#be8625;fill-opacity:1;fill-rule:nonzero;stroke:none"
             d="M 0,0 C -0.698,1.887 -1.042,3.284 -0.432,5.258 0.356,3.41 -0.053,1.944 0,0" /></g><g
           transform="translate(263.7563,520.6583)"
           id="g340"><path
             id="path342"
             style="fill:#fbf8f3;fill-opacity:1;fill-rule:nonzero;stroke:none"
             d="m 0,0 c -2.953,0.072 -5.817,0.804 -8.58,1.972 -0.694,0.293 -1.549,0.592 -1.258,1.575 0.335,1.126 1.256,0.835 2.073,0.625 C -5.959,3.708 -4.164,3.199 -2.349,2.775 0.457,2.12 3.147,2.262 5.56,4.08 6.195,4.56 6.911,4.973 7.532,4.096 8.169,3.198 7.683,2.606 6.908,2.053 4.852,0.584 2.536,0.051 0,0" /></g><g
           transform="translate(264.0527,372.7365)"
           id="g344"><path
             id="path346"
             style="fill:#faf2e1;fill-opacity:1;fill-rule:nonzero;stroke:none"
             d="M 0,0 C 0.902,0.651 1.868,0.382 2.828,0.193 2.466,-0.479 3.378,-0.885 3.154,-1.597 2.838,-2.601 2.01,-3.271 1.24,-3.071 0.218,-2.806 -1.032,-2.13 0.002,-0.58 c 0.099,0.147 0.03,0.405 0.04,0.612 z" /></g><g
           transform="translate(273.874,364.2247)"
           id="g348"><path
             id="path350"
             style="fill:#ebe3d3;fill-opacity:1;fill-rule:nonzero;stroke:none"
             d="M 0,0 C -1.367,1.401 -2.733,2.802 -4.254,4.361 -1.484,4.105 -0.043,2.797 0.213,0.251 0.143,0.166 0.072,0.082 0,0" /></g><g
           transform="translate(262.1953,375.8771)"
           id="g352"><path
             id="path354"
             style="fill:#ebe3d3;fill-opacity:1;fill-rule:nonzero;stroke:none"
             d="M 0,0 C -1.28,1.197 -2.625,2.335 -3.734,3.896 -0.868,4.199 -0.174,2.355 0.332,0.307 0.221,0.204 0.111,0.102 0,0" /></g><g
           transform="translate(268.2998,367.3546)"
           id="g356"><path
             id="path358"
             style="fill:#ebe3d3;fill-opacity:1;fill-rule:nonzero;stroke:none"
             d="M 0,0 C 1.471,-1.294 2.808,-2.505 3.947,-4.062 1.203,-4.078 0.729,-3.587 0,0" /></g><g
           transform="translate(261.208,374.4454)"
           id="g360"><path
             id="path362"
             style="fill:#ebe3d3;fill-opacity:1;fill-rule:nonzero;stroke:none"
             d="m 0,0 c -3.24,0.35 -3.836,0.899 -4.148,4.2 1.571,-1.499 2.975,-2.718 4.104,-4.229 z" /></g><g
           transform="translate(268.5713,376.5763)"
           id="g364"><path
             id="path366"
             style="fill:#fbf8f3;fill-opacity:1;fill-rule:nonzero;stroke:none"
             d="M 0,0 C 0.305,2.09 1.355,3.349 3.808,3.242 2.821,1.775 1.527,0.741 0.345,-0.393 0.23,-0.262 0.115,-0.131 0,0" /></g><g
           transform="translate(260.6548,367.9279)"
           id="g368"><path
             id="path370"
             style="fill:#fbf8f3;fill-opacity:1;fill-rule:nonzero;stroke:none"
             d="m 0,0 c -1.197,-1.121 -2.394,-2.242 -3.592,-3.36 -0.125,2.229 0.998,3.42 3.155,3.751 C -0.291,0.261 -0.146,0.13 0,0" /></g><g
           transform="translate(258.6216,363.2589)"
           id="g372"><path
             id="path374"
             style="fill:#fbf8f3;fill-opacity:1;fill-rule:nonzero;stroke:none"
             d="M 0,0 C 1.023,1.445 2.322,2.604 3.878,3.903 3.5,1.467 2.707,-0.18 0.153,-0.147 0.102,-0.099 0.05,-0.05 0,0" /></g><g
           transform="translate(273.8032,378.0021)"
           id="g376"><path
             id="path378"
             style="fill:#fbf8f3;fill-opacity:1;fill-rule:nonzero;stroke:none"
             d="m 0,0 c -0.52,-2.76 -0.669,-2.896 -4.034,-3.538 1.236,1.436 2.382,2.739 3.819,3.758 C -0.144,0.146 -0.072,0.072 0,0" /></g><g
           transform="translate(264.4609,366.3556)"
           id="g380"><path
             id="path382"
             style="fill:#fefefe;fill-opacity:1;fill-rule:nonzero;stroke:none"
             d="M 0,0 V -5.545 C -1.891,-3.424 -1.893,-3.166 0,0" /></g><g
           transform="translate(264.5005,382.4669)"
           id="g384"><path
             id="path386"
             style="fill:#fefefe;fill-opacity:1;fill-rule:nonzero;stroke:none"
             d="M 0,0 V -5.656 C -1.819,-3.546 -1.855,-2.732 0,0" /></g><g
           transform="translate(260.2183,368.3185)"
           id="g388"><path
             id="path390"
             style="fill:#fbf8f3;fill-opacity:1;fill-rule:nonzero;stroke:none"
             d="M 0,0 C 0.244,0.252 0.508,0.419 0.863,0.201 L 0.437,-0.391 C 0.291,-0.261 0.146,-0.13 0,0" /></g><g
           transform="translate(268.9165,376.1837)"
           id="g392"><path
             id="path394"
             style="fill:#fbf8f3;fill-opacity:1;fill-rule:nonzero;stroke:none"
             d="M 0,0 C -0.189,-0.139 -0.378,-0.276 -0.567,-0.415 -0.764,-0.071 -0.639,0.184 -0.345,0.393 -0.23,0.262 -0.115,0.131 0,0" /></g><g
           transform="translate(262.5269,376.1837)"
           id="g396"><path
             id="path398"
             style="fill:#ebe3d3;fill-opacity:1;fill-rule:nonzero;stroke:none"
             d="m 0,0 c 0.255,-0.155 0.375,-0.456 0.179,-0.619 -0.26,-0.215 -0.342,0.19 -0.51,0.312 C -0.221,-0.205 -0.11,-0.103 0,0" /></g><g
           transform="translate(273.5884,378.2218)"
           id="g400"><path
             id="path402"
             style="fill:#fbf8f3;fill-opacity:1;fill-rule:nonzero;stroke:none"
             d="M 0,0 C 0.067,0.164 0.112,0.39 0.354,0.244 0.388,0.224 0.264,-0.058 0.214,-0.22 0.143,-0.147 0.071,-0.073 0,0" /></g><g
           transform="translate(258.7749,363.1115)"
           id="g404"><path
             id="path406"
             style="fill:#fbf8f3;fill-opacity:1;fill-rule:nonzero;stroke:none"
             d="m 0,0 c -0.084,-0.259 -0.26,-0.359 -0.526,-0.303 l 0.036,-0.036 c -0.103,0.311 0.072,0.43 0.337,0.486 C -0.103,0.098 -0.052,0.049 0,0" /></g><g
           transform="translate(275.8623,376.7784)"
           id="g408"><path
             id="path410"
             style="fill:#fefefe;fill-opacity:1;fill-rule:nonzero;stroke:none"
             d="M 0,0 C -0.145,-0.052 -0.29,-0.104 -0.435,-0.154 -0.44,0.006 -0.446,0.167 -0.452,0.328 -0.302,0.219 -0.151,0.109 0,0" /></g><g
           transform="translate(258.2021,380.5079)"
           id="g412"><path
             id="path414"
             style="fill:#ebe3d3;fill-opacity:1;fill-rule:nonzero;stroke:none"
             d="m 0,0 c -0.049,-0.088 -0.099,-0.179 -0.148,-0.269 -0.047,0.046 -0.138,0.103 -0.13,0.137 0.022,0.098 0.084,0.187 0.13,0.278 C -0.102,0.101 -0.056,0.055 0,0" /></g><g
           transform="translate(261.1641,374.4161)"
           id="g416"><path
             id="path418"
             style="fill:#ebe3d3;fill-opacity:1;fill-rule:nonzero;stroke:none"
             d="M 0,0 C 0.084,-0.063 0.168,-0.128 0.252,-0.192 0.173,-0.207 0.095,-0.223 0.016,-0.237 0.025,-0.148 0.034,-0.06 0.043,0.029 0.044,0.029 0,0 0,0" /></g><g
           transform="translate(264.0942,372.7687)"
           id="g420"><path
             id="path422"
             style="fill:#faf2e1;fill-opacity:1;fill-rule:nonzero;stroke:none"
             d="m 0,0 c -0.085,0.063 -0.171,0.128 -0.256,0.192 0.055,0.019 0.11,0.037 0.166,0.055 0.016,-0.093 0.032,-0.186 0.048,-0.279 z" /></g><g
           transform="translate(258.2485,362.8087)"
           id="g424"><path
             id="path426"
             style="fill:#fefefe;fill-opacity:1;fill-rule:nonzero;stroke:none"
             d="m 0,0 -0.256,-0.422 c -0.046,0.049 -0.092,0.099 -0.138,0.149 0.144,0.079 0.287,0.158 0.43,0.237 z" /></g><g
           transform="translate(261.1455,564.3082)"
           id="g428"><path
             id="path430"
             style="fill:#fbf8f3;fill-opacity:1;fill-rule:nonzero;stroke:none"
             d="m 0,0 c 0,-1.518 0.033,-3.038 -0.015,-4.554 -0.022,-0.707 -0.265,-1.464 -1.056,-1.601 -0.859,-0.15 -1.217,0.591 -1.382,1.262 -1.018,4.137 -1.002,8.331 -0.577,12.537 0.065,0.646 0.393,1.227 1.176,1.2 C -1.089,8.817 -0.865,8.187 -0.665,7.588 0.162,5.117 0.021,2.547 0,0" /></g><g
           transform="translate(212.5962,559.6207)"
           id="g432"><path
             id="path434"
             style="fill:#fbf8f3;fill-opacity:1;fill-rule:nonzero;stroke:none"
             d="m 0,0 c 0.035,-0.873 -0.054,-1.831 -1.054,-1.962 -0.954,-0.124 -0.767,0.964 -1.002,1.522 -0.398,0.943 -0.678,1.944 -0.92,2.942 -0.113,0.466 -0.727,1.067 -0.013,1.45 0.667,0.358 1.396,0.11 1.835,-0.493 C -0.414,2.441 -0.055,1.262 0,0" /></g><g
           transform="translate(330.9775,559.9479)"
           id="g436"><path
             id="path438"
             style="fill:#fbf8f3;fill-opacity:1;fill-rule:nonzero;stroke:none"
             d="m 0,0 c -0.718,-3.659 -1.907,-7.244 -4.118,-10.42 -0.489,-0.702 -1.277,-1.315 -2.13,-0.849 -1.022,0.558 -0.126,1.369 0.099,1.974 1.251,3.366 2.56,6.712 3.916,10.038 0.223,0.548 0.158,1.655 1.112,1.424 C -0.229,1.95 -0.085,0.974 0,0" /></g><g
           transform="translate(187.1914,541.3702)"
           id="g440"><path
             id="path442"
             style="fill:#fbf8f3;fill-opacity:1;fill-rule:nonzero;stroke:none"
             d="m 0,0 c 0.084,-1.276 -0.239,-2.046 -1.017,-2.262 -1.004,-0.28 -0.892,0.822 -1.178,1.338 -0.599,1.079 -1.098,2.216 -1.584,3.352 -0.166,0.388 -0.697,0.86 -0.139,1.262 0.463,0.335 1.092,0.287 1.581,0.003 C -0.767,2.782 -0.235,1.243 0,0" /></g><g
           transform="translate(183.6709,548.1827)"
           id="g444"><path
             id="path446"
             style="fill:#fbf5e8;fill-opacity:1;fill-rule:nonzero;stroke:none"
             d="m 0,0 c -0.084,-0.702 -0.216,-1.476 -0.941,-1.7 -0.894,-0.276 -0.844,0.674 -1.093,1.15 -0.539,1.03 -1.031,2.087 -1.49,3.154 -0.168,0.392 -0.721,0.855 -0.168,1.264 0.537,0.398 1.18,0.291 1.712,-0.134 C -0.785,2.777 -0.316,1.43 0,0" /></g><g
           transform="translate(351.0889,338.5304)"
           id="g448"><path
             id="path450"
             style="fill:#fbf8f3;fill-opacity:1;fill-rule:nonzero;stroke:none"
             d="m 0,0 c 0.085,-1.075 -0.216,-1.884 -0.989,-2.071 -0.692,-0.168 -0.834,0.744 -1.109,1.235 -1.81,3.241 -3.6,6.494 -5.358,9.764 -0.261,0.485 -1.014,1.035 -0.386,1.611 0.664,0.607 1.425,0.242 2.054,-0.267 C -4.421,9.165 -3.544,7.674 -2.683,6.187 -1.511,4.164 -0.373,2.118 0,0" /></g><g
           transform="translate(359.3047,545.6886)"
           id="g452"><path
             id="path454"
             style="fill:#fbf8f3;fill-opacity:1;fill-rule:nonzero;stroke:none"
             d="m 0,0 c -0.046,-0.162 -0.162,-0.774 -0.391,-1.342 -1.163,-2.899 -2.811,-5.507 -4.847,-7.869 -0.538,-0.625 -1.106,-1.258 -2.04,-1.25 -0.977,0.008 -1.505,0.322 -0.866,1.361 2.165,3.515 4.33,7.03 6.502,10.539 0.205,0.328 0.389,0.824 0.913,0.575 C -0.094,1.712 0.077,1.117 0,0" /></g><g
           transform="translate(201.0171,546.1324)"
           id="g456"><path
             id="path458"
             style="fill:#fdfbf7;fill-opacity:1;fill-rule:nonzero;stroke:none"
             d="m 0,0 c -0.078,-0.613 -0.142,-1.203 -0.777,-1.4 -0.699,-0.217 -1.195,0.218 -1.575,0.746 -1.227,1.706 -1.914,3.674 -2.616,5.622 -0.726,2.012 -1.55,4.002 -1.851,6.141 -0.088,0.627 -0.077,1.313 0.652,1.583 0.602,0.223 1.086,-0.125 1.418,-0.607 C -2.22,8.421 -1.255,4.155 0,0" /></g><g
           transform="translate(271.5649,320.2218)"
           id="g460"><path
             id="path462"
             style="fill:#fdfbf7;fill-opacity:1;fill-rule:nonzero;stroke:none"
             d="m 0,0 c 0,-1.687 0.025,-2.857 -0.007,-4.025 -0.027,-0.958 0.001,-2.204 -1.206,-2.286 -1.214,-0.082 -1.396,1.227 -1.538,2.123 -0.291,1.828 -0.459,3.683 -0.55,5.534 -0.087,1.785 -0.038,3.579 -10e-4,5.368 0.017,0.837 0.145,1.82 1.115,1.978 1.086,0.176 1.256,-0.86 1.478,-1.638 C -0.003,4.576 0.042,2.031 0,0" /></g><g
           transform="translate(235.0586,330.3263)"
           id="g464"><path
             id="path466"
             style="fill:#fbf8f3;fill-opacity:1;fill-rule:nonzero;stroke:none"
             d="m 0,0 c -0.474,-3.719 -1.503,-7.354 -2.838,-10.909 -0.249,-0.663 -0.647,-1.355 -1.446,-1.26 -0.963,0.115 -1.118,1.038 -1.058,1.763 0.345,4.152 1.507,8.113 3.014,11.977 0.231,0.592 0.681,1.178 1.404,0.955 C 0.375,2.125 -0.16,0.956 0,0" /></g><g
           transform="translate(356.1973,356.0031)"
           id="g468"><path
             id="path470"
             style="fill:#fbf8f3;fill-opacity:1;fill-rule:nonzero;stroke:none"
             d="m 0,0 c 0.654,-0.192 1.187,-0.643 1.641,-1.163 2.517,-2.886 4.424,-6.167 6.109,-9.584 0.329,-0.668 0.719,-1.477 -0.181,-2.019 -0.836,-0.503 -1.49,0.096 -1.983,0.644 C 2.882,-9.117 0.861,-5.654 -0.889,-2.04 -1.452,-0.876 -0.956,0.036 0,0" /></g><g
           transform="translate(342.2754,550.7413)"
           id="g472"><path
             id="path474"
             style="fill:#fbf5e8;fill-opacity:1;fill-rule:nonzero;stroke:none"
             d="m 0,0 c -0.295,-1.109 -0.583,-2.221 -0.886,-3.328 -0.104,-0.381 -0.169,-0.939 -0.645,-0.899 -0.437,0.037 -0.9,0.318 -1.257,0.608 -0.472,0.382 -0.025,0.733 0.201,1.031 0.73,0.963 1.485,1.905 2.231,2.856 C -0.237,0.179 -0.119,0.089 0,0" /></g><g
           transform="translate(289.8511,566.8107)"
           id="g476"><path
             id="path478"
             style="fill:#faf2e1;fill-opacity:1;fill-rule:nonzero;stroke:none"
             d="M 0,0 C 0.124,-1.3 0.248,-2.6 0.371,-3.9 0.45,-4.727 0.088,-4.999 -0.72,-4.843 c -0.721,0.139 -1.141,0.392 -0.839,1.225 0.438,1.203 0.839,2.42 1.256,3.631 C -0.202,0.009 -0.101,0.004 0,0" /></g><g
           transform="translate(168.7305,540.4406)"
           id="g480"><path
             id="path482"
             style="fill:#fbf5e8;fill-opacity:1;fill-rule:nonzero;stroke:none"
             d="M 0,0 C 1.403,-0.978 2.087,-2.09 2.89,-3.08 3.559,-3.906 2.725,-4.063 2.251,-4.395 1.545,-4.889 1.315,-4.458 1.141,-3.872 0.795,-2.701 0.451,-1.529 0,0" /></g><g
           transform="translate(333.8262,338.6241)"
           id="g484"><path
             id="path486"
             style="fill:#faf2e1;fill-opacity:1;fill-rule:nonzero;stroke:none"
             d="M 0,0 C 0.767,-1.093 1.511,-2.201 2.307,-3.271 2.926,-4.104 2.338,-4.282 1.729,-4.541 1.048,-4.83 0.621,-4.884 0.478,-3.938 0.287,-2.672 -0.055,-1.43 -0.332,-0.178 -0.222,-0.119 -0.111,-0.06 0,0" /></g><g
           transform="translate(218.312,331.6554)"
           id="g488"><path
             id="path490"
             style="fill:#faf2e1;fill-opacity:1;fill-rule:nonzero;stroke:none"
             d="m 0,0 c 0.223,-1.308 -0.085,-2.578 -0.226,-3.866 -0.112,-1.022 -0.557,-0.997 -1.357,-0.751 -0.869,0.267 -0.892,0.679 -0.452,1.327 0.722,1.064 1.113,2.339 2.06,3.262 z" /></g><g
           transform="translate(218.3369,331.6271)"
           id="g492"><path
             id="path494"
             style="fill:#faf2e1;fill-opacity:1;fill-rule:nonzero;stroke:none"
             d="M 0,0 C 0.04,0.049 0.079,0.098 0.119,0.146 0.071,0.106 0.023,0.066 -0.024,0.027 -0.025,0.028 0,0 0,0" /></g></g></g></g></svg>