<svg xmlns="http://www.w3.org/2000/svg" xmlns:xlink="http://www.w3.org/1999/xlink" viewBox="0 0 230.32 138.47"><defs><style>.cls-1,.cls-7{fill:none;}.cls-2{clip-path:url(#clip-path);}.cls-3{fill:#d07300;}.cls-10,.cls-11,.cls-4,.cls-8,.cls-9{fill:#c38410;}.cls-5,.cls-6{fill:#6b5731;}.cls-5{fill-rule:evenodd;}.cls-7{stroke:#6b5731;stroke-miterlimit:10;stroke-width:0.5px;}.cls-8{font-size:10.86px;}.cls-10,.cls-11,.cls-8,.cls-9{font-family:GloucesterMT-ExtraCondensed, GloucesterMT ExtraCondensed;}.cls-9{font-size:10.86px;}.cls-10{font-size:10.86px;}.cls-11{font-size:10.86px;}</style><clipPath id="clip-path" transform="translate(-1.3 0)"><rect class="cls-1" width="232.93" height="138.47"/></clipPath></defs><title>Asset 2</title><g id="Layer_2" data-name="Layer 2"><g id="Menu"><g class="cls-2"><path class="cls-3" d="M39.39,52.87v15c-10.31,0-10.42-10-10.42-10V54.32a3.08,3.08,0,0,0-3-3H17.88a3.08,3.08,0,0,0-3,3V84.45a3.18,3.18,0,0,0,3,3.14h.79a3.18,3.18,0,0,0,2.91-3.14v-.11s.11-5.82,6.83-5.82V101.7c-6.72,0-6.83-5.71-6.83-5.71v-.11a3.18,3.18,0,0,0-2.91-3.14h-.79a3.18,3.18,0,0,0-3,3.14v30.46c0,5.27,2.46,4.26,2.46,6.84H11.5a1.78,1.78,0,0,1-1.8-1.8,1.84,1.84,0,0,1-1.79,1.8H2c0-2.58,2.35-1.57,2.46-6.61V95.43a6.44,6.44,0,0,0-3.14-5,7.21,7.21,0,0,1,3.14-.78v-37C4.33,47.6,2,48.61,2,46H7.91a1.94,1.94,0,0,1,1.79,1.9A1.87,1.87,0,0,1,11.5,46H41.85c0,2.68-2.46,1.56-2.46,6.83M10.49,89.61v-6c0-1-.11-1.91-.11-2.91V77.73c-.12-3.69-.12-7.28-.23-10.3C10,66,10,64.52,9.93,63.28S9.82,61,9.82,60.15s-.12-1.57-.12-2v-.78a1.93,1.93,0,0,0-.11.78c0,.45-.11,1.12-.11,2s-.11,1.9-.11,3.13S9.26,66,9.14,67.43C9,70.45,9,74,8.92,77.73v2.92a25.82,25.82,0,0,1-.11,2.91V95.65c0,.45.11,1,.11,1.46v4.37c0,1.9.11,3.69.11,5.37s.11,3.36.11,4.93a13.41,13.41,0,0,1,.12,2.13c0,.67.11,1.34.11,2,0,1.23.11,2.24.11,3.13s.11,1.57.11,2a1.93,1.93,0,0,0,.11.78v-.78c0-.45.12-1.12.12-2s.11-1.9.11-3.13a12.5,12.5,0,0,0,.11-2c0-.67.11-1.34.11-2.13,0-1.57.11-3.13.11-4.93s.12-3.47.12-5.37V98.57a6.53,6.53,0,0,1,.11-1.46v-7.5Z" transform="translate(-1.3 0)"/><path class="cls-3" d="M73.48,91.91H55.66a1.12,1.12,0,0,1-1-1,1.08,1.08,0,0,1-1,1H50.15c0-1.5,1.38-.91,1.45-3.86v-16a3.78,3.78,0,0,0-1.84-3,3.47,3.47,0,0,1,1.84-.46V49.91c-.07-2.95-1.45-2.36-1.45-3.86h3.48a1.07,1.07,0,0,1,1,1,1,1,0,0,1,1-1H73.48c0,1.5-1.44.91-1.44,4v8.72c-6,0-6.09-5.83-6.09-5.83v-2a1.87,1.87,0,0,0-1.77-1.83H59.46a1.87,1.87,0,0,0-1.77,1.83V65.64a1.77,1.77,0,0,0,1.77,1.77h.46a1.75,1.75,0,0,0,1.7-1.77v-.07s.07-3.4,4-3.4V75.73c-3.93,0-4-3.41-4-3.41a1.84,1.84,0,0,0-1.7-1.83h-.46a1.86,1.86,0,0,0-1.77,1.83V87.06a1.76,1.76,0,0,0,1.77,1.77h4.72A1.76,1.76,0,0,0,66,87.06V85S66,79.14,72,79.14v8.78c0,3.08,1.44,2.49,1.44,4M55.13,69V65.9c0-.46-.06-1-.06-1.51V63c-.07-1.9-.07-3.67-.13-5.24-.07-.72-.07-1.44-.13-2s-.07-1.18-.07-1.64-.06-.79-.06-1v-.33s-.07.07-.07.33-.06.59-.06,1-.07,1-.07,1.64-.07,1.31-.13,2c-.07,1.57-.07,3.34-.13,5.24v1.44c0,.53-.07,1-.07,1.51V72a3,3,0,0,0,.07.79v2.16c0,1,.06,1.9.06,2.75s.07,1.71.07,2.49.06,1.45.13,2.1.07,1.18.07,1.57.06.86.06,1.05a1,1,0,0,0,.07.4v-.4c0-.19.06-.59.06-1.05s.07-1,.07-1.57.06-1.31.13-2.1.06-1.57.06-2.49.07-1.76.07-2.75V73.5a2.69,2.69,0,0,1,.06-.72V69Z" transform="translate(-1.3 0)"/><path class="cls-3" d="M87.49,91.91H84a1.13,1.13,0,0,1-1.05-1,1.07,1.07,0,0,1-1,1H78.51c0-1.5,1.37-.91,1.44-3.86v-16a3.79,3.79,0,0,0-1.83-3A3.44,3.44,0,0,1,80,68.65V49.91c-.07-2.95-1.44-2.36-1.44-3.86H82a1.07,1.07,0,0,1,1,1,1,1,0,0,1,1-1h3.41c0,1.5-1.45.91-1.45,4V68.65a3.47,3.47,0,0,1,1.84.46,3.78,3.78,0,0,0-1.84,3V87.92c0,3.08,1.45,2.49,1.45,4M83.49,69c0-1,0-2-.07-3.08V63c-.06-1.9-.13-3.67-.19-5.24a18.45,18.45,0,0,0-.07-2c0-.66-.06-1.18-.06-1.64A6.4,6.4,0,0,1,83,53a1.68,1.68,0,0,1-.07-.33V53c0,.26-.06.59-.06,1s-.07,1-.13,1.64,0,1.31-.07,2c-.06,1.57-.13,3.34-.13,5.24a11.56,11.56,0,0,1-.06,1.44V73.5a11.56,11.56,0,0,1,.06,1.44c0,1,0,1.9.07,2.75s.06,1.71.06,2.49.07,1.45.07,2.1.06,1.18.13,1.57.06.86.06,1.05v.4a1.73,1.73,0,0,1,.07-.4,6.85,6.85,0,0,1,.07-1.05c0-.39.06-1,.06-1.57s.07-1.31.13-2.1,0-1.57.07-2.49,0-1.76.06-2.75V72c.07-1,.07-2,.07-3" transform="translate(-1.3 0)"/><path class="cls-3" d="M103.67,65.43a2.7,2.7,0,0,0-1.51,2.21v16.7c-.11,4.17-3.83,7.45-8.4,7.45-8,0-7.27-7-2.64-7A2.78,2.78,0,0,1,94,87.43,2.74,2.74,0,0,1,92,90a3.86,3.86,0,0,0,4.36-1.77,8,8,0,0,0,.76-4.06V67.64a2.79,2.79,0,0,0-1.46-2.21,3.6,3.6,0,0,1,1.46-.34V49c0-2.3-1.13-1.81-1.13-3h2.8a.85.85,0,0,1,.86.83.85.85,0,0,1,.86-.83h2.85c0,1.17-1.18.68-1.18,3V65.09a3.89,3.89,0,0,1,1.51.34M100,66.81V61.17c0-1.76-.1-3.43-.16-4.9,0-.68,0-1.37,0-2s-.06-1.07-.06-1.47a7.75,7.75,0,0,1,0-1,2.09,2.09,0,0,1-.05-.35v.35c0,.24-.06.53-.06,1s0,.94-.1,1.47-.06,1.28-.06,2c0,1.47-.11,3.14-.11,4.9,0,.44,0,.93,0,1.37V71c0,.49,0,.93,0,1.37,0,.88,0,1.76.06,2.6s0,1.56,0,2.3a6,6,0,0,0,.06,1v.93c0,.59,0,1.08.1,1.52s.06.73.06.93V82a1.94,1.94,0,0,1,.05-.34,7.11,7.11,0,0,1,0-.93c0-.44.06-.93.06-1.52a6.05,6.05,0,0,1,0-.93v-1c.06-.74.06-1.47.11-2.3s0-1.72,0-2.6V66.81Z" transform="translate(-1.3 0)"/><path class="cls-3" d="M129.82,69.11a4,4,0,0,0-1.83,3V82a10.22,10.22,0,0,1-20.44,0V72.06a3.78,3.78,0,0,0-1.84-3,3.47,3.47,0,0,1,1.84-.46V56A10.22,10.22,0,0,1,128,56V68.65a3.42,3.42,0,0,1,1.83.46m-18.74-.2V66.29c0-.39-.06-.85-.06-1.24V63.8c-.07-1.64-.07-3.14-.13-4.45-.07-.59-.07-1.25-.13-1.77s-.07-1-.07-1.31-.06-.72-.06-.92V55a.75.75,0,0,0-.07.33c0,.2-.07.52-.07.92s-.06.78-.06,1.31-.07,1.18-.13,1.77c-.07,1.31-.07,2.81-.13,4.45v1.25c0,.39-.07.85-.07,1.24v5.18a1.85,1.85,0,0,0,.07.65V74c0,.79.06,1.58.06,2.3s.07,1.44.07,2.1.06,1.24.13,1.76.06,1,.06,1.38.07.72.07.92a.38.38,0,0,0,.07.26v-.26c0-.2.06-.53.06-.92s.07-.85.07-1.38.06-1.11.13-1.76.06-1.32.06-2.1.07-1.51.07-2.3v-1.9a2.15,2.15,0,0,0,.06-.65ZM121.9,56.27c0-2.3,0-7.21-4.13-7.21s-4.13,4.91-4.13,7.21V68.65a3.42,3.42,0,0,1,1.83.46,3.79,3.79,0,0,0-1.83,3v9.63c0,2.23,0,7.14,4.13,7.14s4.13-4.91,4.13-7.14V72.06a3.63,3.63,0,0,0-1.84-3,3.47,3.47,0,0,1,1.84-.46V56.27Zm3.53,12.64V66.29a8.58,8.58,0,0,0-.06-1.24V63.8c0-1.64-.07-3.14-.13-4.45-.07-.59-.07-1.25-.13-1.77s-.07-1-.07-1.31-.06-.72-.06-.92V55a.75.75,0,0,0-.07.33,5.89,5.89,0,0,1-.06.92c0,.33-.07.78-.07,1.31s-.07,1.18-.13,1.77c-.07,1.31-.07,2.81-.13,4.45v2.49c-.07.85-.07,1.77-.07,2.62s0,1.71.07,2.56V74c0,.79.06,1.58.06,2.3s.07,1.44.07,2.1.06,1.24.13,1.76.07,1,.07,1.38a5.83,5.83,0,0,1,.06.92.38.38,0,0,0,.07.26v-.26c0-.2.06-.53.06-.92s.07-.85.07-1.38.06-1.11.13-1.76.06-1.32.06-2.1.07-1.51.07-2.3V72.78c0-.2.06-.46.06-.66V68.91Z" transform="translate(-1.3 0)"/><path class="cls-3" d="M155.59,91.91h-3.4a1.08,1.08,0,0,1-1.05-1,1.13,1.13,0,0,1-1,1h-3.47v-.06L139.8,55V68.65a3.47,3.47,0,0,1,1.84.46,3.78,3.78,0,0,0-1.84,3V87.92c0,3.08,1.44,2.49,1.44,4h-3.47a1.13,1.13,0,0,1-1.05-1,1.08,1.08,0,0,1-1.05,1h-3.4c0-1.5,1.37-.91,1.44-3.86v-16a3.78,3.78,0,0,0-1.84-3,3.47,3.47,0,0,1,1.84-.46V49.91c-.07-2.95-1.44-2.36-1.44-3.86h3.47a1.07,1.07,0,0,1,1,1,1,1,0,0,1,1.05-1h3.4l6.82,36.69V72.06a3.63,3.63,0,0,0-1.84-3,3.47,3.47,0,0,1,1.84-.46V49.91c-.07-2.95-1.44-2.36-1.44-3.86h3.47a1,1,0,0,1,1,1,1,1,0,0,1,1.05-1h3.4c0,1.5-1.44.91-1.44,4V68.65a3.47,3.47,0,0,1,1.84.46,3.94,3.94,0,0,0-1.84,3V87.92c0,3.08,1.44,2.49,1.44,4M137.25,69V65.9c0-.46-.07-1-.07-1.51V63c-.06-1.9-.06-3.67-.13-5.24-.07-.72-.07-1.44-.13-2s-.07-1.18-.07-1.64-.06-.79-.06-1v-.33s-.07.07-.07.33-.06.59-.06,1-.07,1-.07,1.64-.06,1.31-.13,2c-.07,1.57-.07,3.34-.13,5.24v1.44c0,.53-.07,1-.07,1.51V72a3,3,0,0,0,.07.79v2.16c0,1,.06,1.9.06,2.75s.07,1.71.07,2.49.07,1.45.13,2.1.07,1.18.07,1.57.06.86.06,1.05a1,1,0,0,0,.07.4v-.4c0-.19.06-.59.06-1.05s.07-1,.07-1.57.06-1.31.13-2.1.07-1.57.07-2.49.06-1.76.06-2.75V73.5a2.32,2.32,0,0,1,.07-.72V69Zm14.35,0V65.9a11.42,11.42,0,0,0-.07-1.51V63c0-1.9-.06-3.67-.13-5.24-.07-.72-.07-1.44-.13-2s-.07-1.18-.07-1.64-.06-.79-.06-1v-.33s-.07.07-.07.33a7.45,7.45,0,0,1-.06,1c0,.46-.07,1-.07,1.64s-.06,1.31-.13,2c-.07,1.57-.07,3.34-.13,5.24v3c-.07,1-.07,2-.07,3.08s0,2,.07,3v3c0,1,.06,1.9.06,2.75s.07,1.71.07,2.49.07,1.45.13,2.1.07,1.18.07,1.57a8,8,0,0,1,.06,1.05,1,1,0,0,0,.07.4v-.4c0-.19.06-.59.06-1.05s.07-1,.07-1.57.06-1.31.13-2.1.07-1.57.07-2.49.06-1.76.06-2.75V73.5a2.73,2.73,0,0,0,.07-.72V69Z" transform="translate(-1.3 0)"/><path class="cls-3" d="M184.6,91.91H166.78a1.12,1.12,0,0,1-1.05-1,1.08,1.08,0,0,1-1,1h-3.4c0-1.5,1.37-.91,1.44-3.86v-16a3.78,3.78,0,0,0-1.84-3,3.47,3.47,0,0,1,1.84-.46V49.91c-.07-2.95-1.44-2.36-1.44-3.86h3.47a1.07,1.07,0,0,1,1.05,1,1,1,0,0,1,1-1H184.6c0,1.5-1.44.91-1.44,4v8.72c-6,0-6.09-5.83-6.09-5.83v-2a1.87,1.87,0,0,0-1.77-1.83h-4.72a1.87,1.87,0,0,0-1.77,1.83V65.64a1.77,1.77,0,0,0,1.77,1.77H171a1.75,1.75,0,0,0,1.7-1.77v-.07s.07-3.4,4-3.4V75.73c-3.93,0-4-3.41-4-3.41a1.84,1.84,0,0,0-1.7-1.83h-.46a1.86,1.86,0,0,0-1.77,1.83V87.06a1.76,1.76,0,0,0,1.77,1.77h4.72a1.76,1.76,0,0,0,1.77-1.77V85s.06-5.83,6.09-5.83v8.78c0,3.08,1.44,2.49,1.44,4M166.25,69V65.9c0-.46-.06-1-.06-1.51V63c-.07-1.9-.07-3.67-.13-5.24-.07-.72-.07-1.44-.13-2s-.07-1.18-.07-1.64-.06-.79-.06-1v-.33s-.07.07-.07.33-.06.59-.06,1-.07,1-.07,1.64-.07,1.31-.13,2c-.07,1.57-.07,3.34-.13,5.24v1.44c0,.53-.07,1-.07,1.51V72a3,3,0,0,0,.07.79v2.16c0,1,.06,1.9.06,2.75s.07,1.71.07,2.49.06,1.45.13,2.1.07,1.18.07,1.57.06.86.06,1.05a1,1,0,0,0,.07.4v-.4c0-.19.06-.59.06-1.05s.07-1,.07-1.57.06-1.31.13-2.1.06-1.57.06-2.49.07-1.76.07-2.75V73.5a2.69,2.69,0,0,1,.06-.72V69Z" transform="translate(-1.3 0)"/><path class="cls-3" d="M228.14,96v18.3a19.42,19.42,0,0,1-38.83-.5c-.13-5.73-2.74-4.61-2.74-7.47H193a2,2,0,0,1,2,2,2,2,0,0,1,2-2h6.6c0,2.86-2.74,1.74-2.74,7.47v.12c0,4.36.13,13.45,7.85,13.45s7.84-9.34,7.84-13.57v-9.21c0-4.48-.25-13.2-7.84-13.2a19.44,19.44,0,0,1-19.42-19V65a19.42,19.42,0,0,1,38.83.49c0,5.73,2.74,4.61,2.74,7.47h-6.6a2,2,0,0,1-2-2,2,2,0,0,1-2,2h-6.47c0-2.86,2.74-1.74,2.74-7.59,0-4.36-.13-13.57-7.84-13.57s-7.85,9.34-7.85,13.69v6.35c0,4.36,0,13.69,7.85,13.69a20,20,0,0,1,14.06,6A7.06,7.06,0,0,1,228.14,89a6.64,6.64,0,0,1,3.49.87,7,7,0,0,0-3.49,6.1M200.88,85.13l-.25-.25c-.12-.12-.24-.25-.37-.37l-.12-.13c-.13-.12-.25-.25-.25-.25a11.31,11.31,0,0,1-1-1.37c-.37-.49-.62-1.12-1-1.74s-.63-1.49-.88-2.36A22.59,22.59,0,0,1,196.4,76c0-.12-.12-.25-.12-.37V75.3a1.53,1.53,0,0,1-.13-.75,6.54,6.54,0,0,1-.25-1.49,25.26,25.26,0,0,1-.24-3,25,25,0,0,1-.13-3.11V64.09c.13-1,.25-2,.37-2.86a12.8,12.8,0,0,1,.38-2.36,20,20,0,0,1,.5-2,7.63,7.63,0,0,1,.74-1.49,2.84,2.84,0,0,1,.5-.87c.12-.12.25-.12.25-.25h-.13a.12.12,0,0,1-.12.13c-.12,0-.12.12-.25.12a.12.12,0,0,1-.12.12l-.25.25c0,.13-.13.13-.25.25-.25.38-.62.87-1,1.37s-.62,1.25-.87,2a14.19,14.19,0,0,0-.74,2.49,22.11,22.11,0,0,0-.5,2.87c-.13.49-.13,1-.25,1.61V67a13.42,13.42,0,0,0,0,3.23,25.51,25.51,0,0,0,.37,3.12c0,.24.13.62.13.87s.12.49.12.74c.13.5.25,1,.37,1.5a18.87,18.87,0,0,0,1,2.74A14.65,14.65,0,0,0,197,81.52a10.21,10.21,0,0,0,1.37,1.74,5.05,5.05,0,0,0,1.25,1.12c.37.25.75.38.87.5a1.61,1.61,0,0,1,.37.25m22.28,24.27c0-.75-.12-1.62-.12-2.36a10.76,10.76,0,0,0-.25-2.24c0-.38-.12-.75-.12-1.12a2.07,2.07,0,0,1-.13-.88,6.93,6.93,0,0,0-.5-1.74c-.12-.5-.25-.87-.37-1.24s-.12-.38-.12-.5-.13-.25-.25-.25a.52.52,0,0,0-.13-.37.94.94,0,0,0,.13.37v.75a4.82,4.82,0,0,1,.12,1.37v8.21a4.42,4.42,0,0,0-.12,1.25v1.24c0,.75-.13,1.62-.13,2.37s-.12,1.61-.25,2.36v.5a1.15,1.15,0,0,0-.12.62c0,.37-.13.62-.13,1s-.12.74-.12,1-.12.63-.25,1-.12.5-.12.87-.13.5-.25.75c-.13.49-.25.87-.38,1.24v.25a.12.12,0,0,0-.12.12c0,.13-.13.25-.13.38a.39.39,0,0,0-.12.25s.12,0,.25-.25a6.42,6.42,0,0,1,.5-.62,9.37,9.37,0,0,0,.62-1.12l.37-.75a6.22,6.22,0,0,0,.38-.87c.12-.25.25-.62.37-.87a1,1,0,0,0,.12-.5c.13-.25.13-.37.25-.5a3.77,3.77,0,0,1,.25-1.12c.13-.37.13-.75.25-1.12a1.07,1.07,0,0,1,.13-.62v-.62c.12-.38.12-.75.25-1.25v-.62a6.26,6.26,0,0,0,.12-.62v-1.25a4,4,0,0,0,.12-1.24Z" transform="translate(-1.3 0)"/><path class="cls-4" d="M33.39,98.42H77.07V98H33.39Zm122.47,0h43.69V98H155.86Z" transform="translate(-1.3 0)"/><path class="cls-5" d="M73.44,103.82a57.72,57.72,0,0,0,7.94,5.67,69.87,69.87,0,0,0,16.69,7.16,69.25,69.25,0,0,0,11.08,2.17,69.8,69.8,0,0,0,16,0,69.36,69.36,0,0,0,11.09-2.17,69.94,69.94,0,0,0,16.68-7.16,57.72,57.72,0,0,0,7.94-5.67c1.35-1.17,1.7-1.61,1.65-1.68s-.53.23-2,1.28a87.75,87.75,0,0,1-8.07,5.3A69.6,69.6,0,0,1,125,117.8a72.42,72.42,0,0,1-15.76,0,69.73,69.73,0,0,1-27.44-9.08,90.79,90.79,0,0,1-8.07-5.3c-1.43-1-1.9-1.35-2-1.28s.29.5,1.64,1.68M174.7,117.68A109.43,109.43,0,0,1,164,124.76c-1.53.89-4.49,2.56-8.35,4.32A92.48,92.48,0,0,1,142.11,134a91.9,91.9,0,0,1-14.53,2.81,94,94,0,0,1-20.85,0,92.38,92.38,0,0,1-28.11-7.76c-3.87-1.76-6.83-3.43-8.36-4.32a110.76,110.76,0,0,1-10.66-7.08c-1.88-1.41-2.48-1.83-2.54-1.75s.42.62,2.22,2.15a79.76,79.76,0,0,0,10.54,7.44,89.65,89.65,0,0,0,8.4,4.43A92.84,92.84,0,0,0,91.93,135a93.82,93.82,0,0,0,14.68,2.87,92.88,92.88,0,0,0,21.08,0A93.94,93.94,0,0,0,142.38,135,93.26,93.26,0,0,0,156.09,130a89.65,89.65,0,0,0,8.4-4.43A78.72,78.72,0,0,0,175,118.08c1.8-1.53,2.28-2.08,2.23-2.15s-.66.34-2.55,1.75" transform="translate(-1.3 0)"/><path class="cls-5" d="M160.89,38.27A57.72,57.72,0,0,0,153,32.6a70.27,70.27,0,0,0-16.68-7.17,71.65,71.65,0,0,0-11.09-2.17,71.34,71.34,0,0,0-16,0,71.87,71.87,0,0,0-11.09,2.17A70.27,70.27,0,0,0,81.41,32.6a57.72,57.72,0,0,0-7.94,5.67c-1.35,1.17-1.7,1.61-1.64,1.68s.53-.23,2-1.28a88.52,88.52,0,0,1,8.07-5.3,69.6,69.6,0,0,1,27.44-9.08,72.42,72.42,0,0,1,15.76,0A70.31,70.31,0,0,1,136,26.4a71.28,71.28,0,0,1,16.51,7,87,87,0,0,1,8.07,5.3c1.44,1,1.9,1.35,2,1.28s-.29-.51-1.64-1.68m14.16-17.89a80.41,80.41,0,0,0-10.53-7.44,91.75,91.75,0,0,0-22.11-9.47A93.57,93.57,0,0,0,92,3.47a91.75,91.75,0,0,0-22.11,9.47,81.15,81.15,0,0,0-10.53,7.44c-1.8,1.54-2.28,2.09-2.22,2.16s.66-.34,2.54-1.75a108.83,108.83,0,0,1,10.66-7.08c1.53-.89,4.49-2.56,8.35-4.32a92.72,92.72,0,0,1,28.12-7.77,95.62,95.62,0,0,1,20.85,0,92.77,92.77,0,0,1,28.11,7.77c3.86,1.76,6.82,3.43,8.35,4.32a107.55,107.55,0,0,1,10.66,7.08c1.89,1.41,2.48,1.83,2.55,1.75s-.43-.62-2.23-2.16" transform="translate(-1.3 0)"/><path class="cls-6" d="M124.33,29.82a4.17,4.17,0,0,0-4.77.29,4.41,4.41,0,0,1-5,.15,4.34,4.34,0,0,0-6,.62A4.47,4.47,0,0,0,109.2,37c.46.33.9.69,1.37,1a12.52,12.52,0,0,0,13.92-.21,4.73,4.73,0,0,0,2.28-3.62,4.44,4.44,0,0,0-2.44-4.37M118,33.24a10.3,10.3,0,0,1-5.16-.94c-.39-.16-.61-.42-.46-.81s.46-.39.86-.28a29.24,29.24,0,0,0,3.41.84,4,4,0,0,0,3.19-.81c.28-.23.66-.32.91,0a1.48,1.48,0,0,1,.11.69A5,5,0,0,1,118,33.24" transform="translate(-1.3 0)"/><path class="cls-6" d="M176.4,31.06a.89.89,0,0,0-1.59.4.91.91,0,0,1-.71.74.89.89,0,0,0-.78.94.9.9,0,0,0,.92.85c.11,0,.22,0,.33-.05a2.54,2.54,0,0,0,2-2,1,1,0,0,0-.16-.87m-1.4,1.1a2,2,0,0,1-.87.59c-.08,0-.15,0-.18-.06s0-.13.09-.17.42-.22.61-.35a.88.88,0,0,0,.35-.58c0-.08.05-.14.14-.12s.08.07.11.09a1.09,1.09,0,0,1-.25.6" transform="translate(-1.3 0)"/><path class="cls-6" d="M59.24,32.85a.87.87,0,0,0-.72-.65.92.92,0,0,1-.75-.71.88.88,0,0,0-.93-.78.91.91,0,0,0-.86.92c0,.11,0,.22.05.33a2.56,2.56,0,0,0,2,2,1,1,0,0,0,.88-.16.86.86,0,0,0,.32-.94m-.83-.21a1.09,1.09,0,0,1-.6-.25,2,2,0,0,1-.59-.87c0-.08,0-.15.06-.18s.13,0,.17.09a6,6,0,0,0,.35.61.85.85,0,0,0,.58.35c.08,0,.15,0,.12.14s-.06.08-.09.11" transform="translate(-1.3 0)"/><path class="cls-6" d="M178.78,104.52a.61.61,0,0,0-.69-.23.59.59,0,0,0-.47.52.68.68,0,0,1-.53.55.65.65,0,0,0-.57.68.67.67,0,0,0,.68.63l.24,0a1.88,1.88,0,0,0,1.46-1.48.77.77,0,0,0-.12-.64m-1,.81a1.54,1.54,0,0,1-.64.43c-.06,0-.11,0-.13,0a.09.09,0,0,1,.06-.12c.15-.09.31-.16.45-.26a.62.62,0,0,0,.25-.43s0-.1.11-.09.06.05.08.07a.88.88,0,0,1-.18.44" transform="translate(-1.3 0)"/><path class="cls-6" d="M57.82,105.84a.62.62,0,0,0-.53-.48.67.67,0,0,1-.54-.52.66.66,0,0,0-1.31.1l0,.24a1.86,1.86,0,0,0,1.47,1.46.79.79,0,0,0,.65-.11.64.64,0,0,0,.23-.69m-.6-.16a.77.77,0,0,1-.44-.18,1.4,1.4,0,0,1-.43-.64c0-.06,0-.11,0-.13s.09,0,.12.07a3.91,3.91,0,0,0,.26.44.65.65,0,0,0,.42.26c.06,0,.11,0,.1.1s-.06.06-.07.08" transform="translate(-1.3 0)"/><path class="cls-7" d="M177.56,32.34a2.61,2.61,0,1,1-2.61-2.6A2.61,2.61,0,0,1,177.56,32.34Z" transform="translate(-1.3 0)"/><path class="cls-7" d="M57.63,35a2.61,2.61,0,1,1,2.6-2.61A2.61,2.61,0,0,1,57.63,35Z" transform="translate(-1.3 0)"/><circle class="cls-7" cx="176.42" cy="105.46" r="1.91"/><circle class="cls-7" cx="55.34" cy="105.46" r="1.91"/></g><text class="cls-8" transform="matrix(0.85, 0.53, -0.53, 0.85, 69.45, 118)">F</text><text class="cls-9" transform="translate(74.78 121.2) rotate(28.61)">E</text><text class="cls-8" transform="matrix(0.9, 0.43, -0.43, 0.9, 80.58, 124.3)">I</text><text class="cls-10" transform="translate(84.76 126.23) rotate(22.37)">J</text><text class="cls-8" transform="translate(90.33 128.4) rotate(18.26)">Ã</text><text class="cls-9" transform="translate(97.34 130.59) rotate(13.32)">O</text><text class="cls-8" transform="translate(104.63 132.2) rotate(9.12)"> </text><text class="cls-10" transform="translate(108.93 132.88) rotate(5.05)">E</text><text class="cls-8" transform="matrix(1, 0.01, -0.01, 1, 115.52, 133.34)"> </text><text class="cls-9" transform="translate(119.95 133.29) rotate(-3.47)">F</text><text class="cls-8" transform="translate(126.39 132.79) rotate(-8.72)">E</text><text class="cls-8" transform="translate(132.96 131.65) rotate(-13.24)">I</text><text class="cls-9" transform="translate(137.6 130.49) rotate(-17.43)">J</text><text class="cls-11" transform="matrix(0.92, -0.38, 0.38, 0.92, 143.31, 128.64)">O</text><text class="cls-10" transform="matrix(0.89, -0.46, 0.46, 0.89, 149.92, 125.8)">A</text><text class="cls-8" transform="matrix(0.85, -0.53, 0.53, 0.85, 156.39, 122.22)">D</text><text class="cls-10" transform="matrix(0.81, -0.59, 0.59, 0.81, 162.28, 118.45)">A</text><text class="cls-10" transform="matrix(0.85, -0.53, 0.53, 0.85, 65.49, 33.02)">S</text><text class="cls-10" transform="matrix(0.88, -0.48, 0.48, 0.88, 70.82, 29.78)">A</text><text class="cls-8" transform="translate(77.12 26.45) rotate(-25)">B</text><text class="cls-8" transform="translate(83.32 23.59) rotate(-21.34)">O</text><text class="cls-8" transform="translate(90.17 21.04) rotate(-17.43)">R</text><text class="cls-8" transform="translate(96.79 19.04) rotate(-14.13)"> </text><text class="cls-10" transform="translate(100.98 18.07) rotate(-10.77)">E</text><text class="cls-8" transform="translate(107.23 16.97) rotate(-7.22)"> </text><text class="cls-8" transform="matrix(1, -0.06, 0.06, 1, 111.55, 16.49)">Q</text><text class="cls-10" transform="translate(118.78 16.2) rotate(2.06)">U</text><text class="cls-10" transform="matrix(0.99, 0.13, -0.13, 0.99, 125.36, 16.5)">A</text><text class="cls-8" transform="translate(132.28 17.56) rotate(12.48)">L</text><text class="cls-10" transform="translate(138.37 18.98) rotate(16.76)">I</text><text class="cls-8" transform="matrix(0.93, 0.36, -0.36, 0.93, 142.66, 20.39)">D</text><text class="cls-10" transform="translate(148.94 22.91) rotate(26.52)">A</text><text class="cls-9" transform="translate(155.28 26.23) rotate(31.62)">D</text><text class="cls-11" transform="translate(161.25 30.04) rotate(36.14)">E</text><path class="cls-6" d="M119.24,98.67v1.67a1.11,1.11,0,0,1-1.16-1.11v-.4a.35.35,0,0,0-.34-.34h-.9a.34.34,0,0,0-.33.34v3.36a.34.34,0,0,0,.33.35h.09a.35.35,0,0,0,.32-.35h0a.7.7,0,0,1,.77-.65v2.58a.69.69,0,0,1-.77-.63v0a.36.36,0,0,0-.32-.35h-.09a.36.36,0,0,0-.33.35v3.4c0,.59.27.47.27.76h-.65a.2.2,0,0,1-.2-.2.21.21,0,0,1-.2.2h-.66c0-.29.26-.17.27-.73v-3.48a.71.71,0,0,0-.35-.56.82.82,0,0,1,.35-.09V98.64c0-.56-.27-.44-.27-.73h.66a.22.22,0,0,1,.2.21.21.21,0,0,1,.2-.21h3.38c0,.3-.27.17-.27.76M116,102.76v-.67c0-.11,0-.21,0-.32v-.33c0-.41,0-.81,0-1.15,0-.16,0-.32,0-.46s0-.25,0-.35,0-.17,0-.22v-.09a.24.24,0,0,0,0,.09s0,.12,0,.22,0,.21,0,.35,0,.3,0,.46c0,.34,0,.74,0,1.15v.33c0,.11,0,.21,0,.32v1.35s0,.11,0,.16v.49c0,.21,0,.41,0,.6s0,.37,0,.55a1.85,1.85,0,0,1,0,.23c0,.08,0,.15,0,.23s0,.25,0,.35,0,.17,0,.22a.24.24,0,0,0,0,.09v-.09s0-.12,0-.22,0-.21,0-.35a1.77,1.77,0,0,0,0-.23c0-.07,0-.15,0-.23s0-.35,0-.55,0-.39,0-.6v-.33a.86.86,0,0,1,0-.16v-.84Z" transform="translate(-1.3 0)"/><path class="cls-6" d="M120.11,106.05a.65.65,0,0,0-.32.52v3.94a1.79,1.79,0,0,1-1.8,1.75c-1.72,0-1.56-1.65-.57-1.65a.63.63,0,0,1,.63.63.63.63,0,0,1-.44.59.79.79,0,0,0,.93-.41,2.09,2.09,0,0,0,.16-1v-3.89a.64.64,0,0,0-.31-.52.84.84,0,0,1,.31-.08v-3.78c0-.54-.24-.43-.24-.7h.6a.19.19,0,1,0,.37,0H120c0,.27-.25.16-.25.7V106a.84.84,0,0,1,.32.08m-.78.33v-1.33c0-.41,0-.81,0-1.15,0-.16,0-.33,0-.46s0-.26,0-.35a2.11,2.11,0,0,1,0-.23.6.6,0,0,1,0-.08v.08c0,.06,0,.13,0,.23a3.06,3.06,0,0,0,0,.35c0,.13,0,.3,0,.46,0,.34,0,.74,0,1.15,0,.1,0,.22,0,.32v2c0,.12,0,.22,0,.32s0,.42,0,.61,0,.37,0,.55a1.93,1.93,0,0,0,0,.24v.22a3.48,3.48,0,0,0,0,.36c0,.09,0,.17,0,.21V110a.62.62,0,0,1,0-.09,1.87,1.87,0,0,1,0-.21c0-.11,0-.22,0-.36a1.7,1.7,0,0,1,0-.22v-.24c0-.18,0-.35,0-.55s0-.4,0-.61v-1.31Z" transform="translate(-1.3 0)"/></g></g></svg>