<svg xmlns="http://www.w3.org/2000/svg" xmlns:xlink="http://www.w3.org/1999/xlink" viewBox="0 0 177.98 107.69"><defs><style>.cls-1{fill:none;}.cls-2{clip-path:url(#clip-path);}.cls-3{fill:#db9703;}.cls-4{fill:#db9806;}.cls-5{fill:#db9805;}.cls-6{fill:#db9704;}.cls-7{fill:#3e3d3e;}.cls-8{fill:#474647;}.cls-9{fill:#be8625;}.cls-10{fill:#fdfbf7;}.cls-11{fill:#cececf;}.cls-12{fill:#ebe3d3;}.cls-13{fill:#faf2e1;}</style><clipPath id="clip-path" transform="translate(-15.19 -21.45)"><rect class="cls-1" width="240.95" height="155.91"/></clipPath></defs><title>Asset 1</title><g id="Layer_2" data-name="Layer 2"><g id="Layer_1-2" data-name="Layer 1"><g class="cls-2"><path class="cls-3" d="M186,77.09a2,2,0,0,1-2.15,1.11c-1.32,0-2.63,0-4,0-.47,0-.57-.15-.47-.59a2.39,2.39,0,0,1,.69-1.18,4.7,4.7,0,0,0,1.35-3.35,21,21,0,0,0-.62-6.89c-.62-2.07-1.72-3.74-4-4.28a5.32,5.32,0,0,0-6.49,3.24,15.75,15.75,0,0,0-1,6.12q0,4.37.07,8.73a12.29,12.29,0,0,0,.93,4.51,5.18,5.18,0,0,0,5.11,3.41,15.22,15.22,0,0,1,10.36,4.13c.4.36.58.44,1,0a5.44,5.44,0,0,1,6.34-.76c-.37.32-.77.6-1.09.94A5.35,5.35,0,0,0,190.55,96c0,4.55.06,9.11,0,13.67a14.82,14.82,0,0,1-8.11,13.6c-9.1,5-20.86-1.14-22-11.42-.13-1.14-.17-2.3-.29-3.45A4,4,0,0,0,159,106a4.51,4.51,0,0,1-.4-.47c-.3-.4-.62-.88-.41-1.33s.71-.14,1.08-.14c1.21,0,2.42,0,3.63,0a1.79,1.79,0,0,1,1.83,1.14c.58-1.25,1.63-1.16,2.66-1.15s2.27,0,3.4,0c.63,0,.7.25.57.74a1.78,1.78,0,0,1-.5.86,5,5,0,0,0-1.54,3.82,20.89,20.89,0,0,0,.7,6.72c.65,2,1.78,3.58,4,4.09a5.32,5.32,0,0,0,6.39-3.16,15.47,15.47,0,0,0,1-6.35c0-3.24,0-6.49,0-9.73a13.11,13.11,0,0,0-1-5.27,5,5,0,0,0-4.88-3.24,15.13,15.13,0,0,1-15.25-15.41,60.29,60.29,0,0,1,.13-6.72,15.12,15.12,0,0,1,29.77-1.28,15,15,0,0,1,.37,3.53A5,5,0,0,0,192,76.5a3.29,3.29,0,0,1,.34.42,1.22,1.22,0,0,1,.28,1.15c-.13.28-.61.11-.93.11-1.21,0-2.42,0-3.63,0A2,2,0,0,1,186,77.09m-2,40.66a12.6,12.6,0,0,0,2.13-5.21,30.3,30.3,0,0,0,0-11.39,5.7,5.7,0,0,0-.78-2.09c.06,1,0,2,0,3,0,1.92,0,3.85-.09,5.77a52.06,52.06,0,0,1-.77,7.58,8.48,8.48,0,0,0-.49,2.38c-.09,0-.13,0-.1.09l.09-.1M168.44,87c0,.07.09.14.15.07s0-.1-.09-.13a15.47,15.47,0,0,1-2.76-6.53,38.09,38.09,0,0,1-.61-6.21c-.07-3.38.09-6.73,1.58-9.87,0-.07.1-.15,0-.22s-.08.07-.13.11a6.81,6.81,0,0,0-1.65,2.83,23.09,23.09,0,0,0-1,10,18.16,18.16,0,0,0,2,6.92,7.18,7.18,0,0,0,2.58,3" transform="translate(-15.19 -21.45)"/><path class="cls-3" d="M21.68,124a1.67,1.67,0,0,1-1.7,1c-1.23,0-2.47,0-3.71,0-.66,0-.68-.3-.5-.74a2.33,2.33,0,0,1,.54-.84,4.3,4.3,0,0,0,1.24-3.22q0-12.25,0-24.49a4.61,4.61,0,0,0-1.74-3.49c-.18-.17-.38-.32-.62-.52a3.68,3.68,0,0,1,1.72-.54c.56,0,.67-.23.66-.74q0-6.15,0-12.29,0-7.8,0-15.6a5,5,0,0,0-1.38-3.88,1.92,1.92,0,0,1-.32-.43c-.4-.76-.26-1,.6-1,1.13,0,2.27,0,3.4,0a1.73,1.73,0,0,1,1.82,1.11c.39-1.06,1.19-1.11,2.08-1.11,7.37,0,14.74,0,22.11,0,.92,0,1,.21.61,1a1.83,1.83,0,0,1-.36.5,4.64,4.64,0,0,0-1.33,3.65c0,3.69,0,7.37,0,11,0,.74-.23.81-.89.77-5.27-.35-7.24-4.52-7.28-8.12,0-.75,0-1.49,0-2.24a2.37,2.37,0,0,0-2.54-2.5c-2,0-3.91,0-5.87,0a2.35,2.35,0,0,0-2.5,2.52q0,11.46,0,22.94a2.43,2.43,0,0,0,2.43,2.69,2.43,2.43,0,0,0,2.72-2.48,4.77,4.77,0,0,1,4.84-4.55c.46,0,.55.13.55.55q0,8.46,0,16.92c0,.45-.08.63-.59.59a4.75,4.75,0,0,1-4.81-4.74,2.4,2.4,0,0,0-2.74-2.2,2.37,2.37,0,0,0-2.4,2.32c0,2.29,0,4.58,0,6.87,0,5.62,0,11.23,0,16.84a5,5,0,0,0,1.38,3.95,1.52,1.52,0,0,1,.31.44c.4.75.27,1-.58,1-1.14,0-2.27,0-3.4,0a1.68,1.68,0,0,1-1.76-1m0-8.91a460.58,460.58,0,0,0,0-48,457.84,457.84,0,0,0,0,48" transform="translate(-15.19 -21.45)"/><path class="cls-4" d="M134.51,75.2c-1.44.91-1.46,2.28-1.44,3.71,0,3.58,0,7.16,0,10.74a3.18,3.18,0,0,0,.82,2.48.69.69,0,0,1,.26.69c-.1.26-.42.16-.63.13-.91-.12-1.91.36-2.74-.38h-.19c-.94.78-2,.25-3.06.39-.49.07-.43-.35-.48-.62-.5-2.65-1-5.31-1.48-8q-1.71-9.28-3.43-18.58a1.32,1.32,0,0,0-.26-.57c0,3.06,0,6.12,0,9.18,0,.3.11.39.39.44a1.72,1.72,0,0,1,1,.38c-1.32.86-1.42,2.18-1.41,3.6,0,3.52,0,7.05,0,10.58a3.48,3.48,0,0,0,.89,2.77.62.62,0,0,1,.2.63c-.1.27-.4.15-.62.16a5.73,5.73,0,0,1-2,0,2.82,2.82,0,0,0-1.77,0,11.8,11.8,0,0,1-2.15,0c-.48,0-.61-.28-.34-.56,1.35-1.36,1-3.06,1-4.67,0-3.14,0-6.29,0-9.43a3.31,3.31,0,0,0-1.39-3.1l.21-.15c.34-.23,1,0,1.1-.4a3.65,3.65,0,0,0,.06-1.37c0-4.27,0-8.55,0-12.82a3,3,0,0,0-.77-2.34c-.2-.2-.41-.48-.29-.75s.48-.16.7-.13c.92.12,1.91-.37,2.76.38.05,0,.4-.32.63-.33.87,0,1.74,0,2.62,0,.37,0,.33.32.38.57.6,3.26,1.22,6.51,1.82,9.77q1.55,8.26,3.08,16.53a.37.37,0,0,0,.24.37v-2c0-1.31,0-2.62,0-3.93a3.32,3.32,0,0,0-1.41-3.34c.2-.12.3-.23.4-.23,1,0,1-.56,1-1.36,0-4.27,0-8.55,0-12.82A3.44,3.44,0,0,0,127.4,58a.62.62,0,0,1-.22-.62c.1-.27.4-.13.62-.16a.75.75,0,0,1,.15,0c.92.11,1.92-.3,2.74.41.83-.72,1.82-.31,2.73-.4.24,0,.59-.14.71.12s-.08.55-.29.75a2.94,2.94,0,0,0-.76,2.27c0,4.45,0,8.9,0,13.36,0,.71.07,1.19.91,1.21.14,0,.27.11.54.24m-15.1,11.73a183.82,183.82,0,0,0,0-23.82,205.75,205.75,0,0,0,0,23.82m11-22c-.2,6.91-.23,13.59,0,20.33.64-.93.69-19.12,0-20.33m-.15-1.74a1.1,1.1,0,0,0,0,1.43Zm0,24.31V85.62c-.33.69-.33.87,0,1.45" transform="translate(-15.19 -21.45)"/><path class="cls-5" d="M138.17,75.2l.25-.14c.34-.24.93,0,1.1-.4a3.49,3.49,0,0,0,.06-1.3c0-4.25,0-8.49,0-12.74a3.24,3.24,0,0,0-.84-2.56.62.62,0,0,1-.23-.69c.12-.25.42-.12.63-.12a6.54,6.54,0,0,1,1.77,0,8.15,8.15,0,0,0,2.15,0c4.33-.08,8.66,0,13,0,.2,0,.46-.11.56.13a.57.57,0,0,1-.19.63,3.29,3.29,0,0,0-.85,2.7c0,1.95,0,3.91,0,5.87,0,.53-.15.64-.66.58a4.47,4.47,0,0,1-4.16-4.63c0-.51,0-1,0-1.54a1.36,1.36,0,0,0-1.42-1.33q-1.74,0-3.48,0a1.37,1.37,0,0,0-1.45,1.46q0,5.64,0,11.28a1.38,1.38,0,0,0,1.45,1.46,1.43,1.43,0,0,0,1.58-1.42A2.74,2.74,0,0,1,150,69.8c.45,0,.5.11.5.49q0,4.78,0,9.57c0,.43-.15.52-.54.49a2.73,2.73,0,0,1-2.58-2.44c-.14-1-.5-1.47-1.2-1.58a1.48,1.48,0,0,0-1.85,1.59c0,3.66,0,7.31,0,11a1.42,1.42,0,0,0,1.6,1.63c1.08,0,2.16,0,3.25,0A1.39,1.39,0,0,0,150.75,89a9.78,9.78,0,0,1,.27-2.9A4.33,4.33,0,0,1,154.87,83c.52,0,.73.07.72.64,0,2,0,4,0,6a3.13,3.13,0,0,0,.81,2.48.65.65,0,0,1,.23.69c-.12.26-.42.13-.64.14-4.25,0-8.5,0-12.75,0a1.86,1.86,0,0,1-1.29-.5,1.25,1.25,0,0,1-1.22.49c-.6,0-1.19,0-1.78,0s-.61-.27-.33-.55c1.38-1.41,1-3.17,1-4.83,0-3,0-6.07,0-9.11a3.4,3.4,0,0,0-1.42-3.27M142,63.13a203.66,203.66,0,0,0,0,23.44,187.07,187.07,0,0,0,0-23.44" transform="translate(-15.19 -21.45)"/><path class="cls-6" d="M51.76,75.2a1.15,1.15,0,0,1,.19-.12c.39-.13,1-.15,1.11-.4a3.54,3.54,0,0,0,.09-1.43c0-4.17,0-8.35,0-12.52a3.39,3.39,0,0,0-.87-2.7.61.61,0,0,1-.22-.63c.11-.28.4-.14.61-.15a7.3,7.3,0,0,1,1.62,0,11.27,11.27,0,0,0,2.53,0c4.22-.09,8.45,0,12.68,0,.22,0,.51-.12.64.12a.56.56,0,0,1-.2.68,3.37,3.37,0,0,0-.87,2.63c0,1.93,0,3.87,0,5.8,0,.67-.21.74-.79.65a4.43,4.43,0,0,1-4-4.55c0-.52,0-1,0-1.55a1.37,1.37,0,0,0-1.46-1.37q-1.74,0-3.48,0A1.37,1.37,0,0,0,58,61.08c0,3.78,0,7.57,0,11.35a1.36,1.36,0,0,0,1.33,1.43,1.42,1.42,0,0,0,1.65-1.16c0-.2,0-.41.08-.61a2.59,2.59,0,0,1,1.44-2c1.32-.66,1.66-.46,1.66,1,0,2.86,0,5.72,0,8.58,0,.7-.25.76-.81.65A2.71,2.71,0,0,1,61,77.88c-.15-1.16-.66-1.63-1.68-1.56S58,77,58,78.1c0,3.56,0,7.11,0,10.66,0,1.29.47,1.76,1.78,1.76q1.47,0,2.94,0c1.13,0,1.63-.51,1.65-1.66a9.44,9.44,0,0,1,.25-2.75A4.32,4.32,0,0,1,68.47,83c.46,0,.63.07.62.57,0,1.91,0,3.81,0,5.72A3.63,3.63,0,0,0,70,92.19a.55.55,0,0,1,.17.63c-.11.23-.37.14-.56.14-4.3,0-8.61,0-12.91,0a1.49,1.49,0,0,1-1.16-.5,1.36,1.36,0,0,1-1.14.5c-.61,0-1.23,0-1.85,0s-.68-.25-.36-.58c1.25-1.27,1-2.85,1-4.37,0-3.27,0-6.54,0-9.81a3.3,3.3,0,0,0-1.4-3m3.8-11a167.62,167.62,0,0,0,0,21.73,169.42,169.42,0,0,0,0-21.73" transform="translate(-15.19 -21.45)"/><path class="cls-3" d="M95.28,75.19c.19-.11.28-.2.37-.2,1,0,1.09-.61,1.07-1.45,0-2.8,0-5.61,0-8.41a8,8,0,0,1,15.93,0c0,2.88,0,5.76,0,8.64,0,.65,0,1.16.86,1.15.16,0,.33.12.6.22-1.38.94-1.5,2.28-1.46,3.72,0,2,0,4,0,6a8,8,0,0,1-15.85,1.35A20.45,20.45,0,0,1,96.71,83c0-1.52,0-3,0-4.56a3.5,3.5,0,0,0-1.43-3.29m15.31,1.32c0-.84,0-1.67,0-2.5a26.18,26.18,0,0,0-.11-3.54,21.31,21.31,0,0,0-.25-4.72,40.94,40.94,0,0,0-.32,5.64c0,.82,0,1.65,0,2.47a21.8,21.8,0,0,0,0,2.8c0,.87,0,1.74,0,2.61a45.47,45.47,0,0,0,.32,5.83c.08-.76.16-1.52.18-2.28,0-.93,0-1.85,0-2.77,0-1.18.07-2.36.1-3.54M99.26,79.28s0,0,0,0,0-.07,0-.11l0-2.45a12.65,12.65,0,0,0,.07-2.13l-.12-2.71a59.73,59.73,0,0,0-.27-7,42.26,42.26,0,0,0-.28,6.26l-.08,3a7.25,7.25,0,0,0,0,2.37c0,1.18,0,2.36.05,3.54A37.19,37.19,0,0,0,99,85.2c.09-1.93.3-3.85.24-5.78a.22.22,0,0,0,0-.14m2.22-8.84c-.17,1.07,0,2.14-.09,3.21-.07.8.07,1.35,1,1.34.1,0,.21.1.39.19a3.29,3.29,0,0,0-1.35,2.28,12.64,12.64,0,0,0,0,2.75c0,1.57,0,3.14,0,4.71a9.57,9.57,0,0,0,.52,3.79,2.86,2.86,0,0,0,5.36-.08,5.43,5.43,0,0,0,.37-1.49,64.25,64.25,0,0,0,.12-6.94c0-.59,0-1.18,0-1.76a3.22,3.22,0,0,0-1.37-3.22,1.08,1.08,0,0,1,.73-.31c.5,0,.67-.26.65-.78-.06-1.22,0-2.45,0-3.68,0-2.19,0-4.38,0-6.56a6.75,6.75,0,0,0-.45-2.34,2.72,2.72,0,0,0-2.55-1.9c-1.72,0-2.85.93-3.14,2.86a52.46,52.46,0,0,0-.2,7.93" transform="translate(-15.19 -21.45)"/><path class="cls-6" d="M73.88,75.15l.2-.12c.35-.2.94,0,1.1-.37a3.66,3.66,0,0,0,0-1.37c0-4.12,0-8.24,0-12.35A3.69,3.69,0,0,0,74.33,58a.54.54,0,0,1-.16-.63c.12-.23.37-.13.56-.13a7.21,7.21,0,0,1,2.08,0,2.64,2.64,0,0,0,1.62,0,9.86,9.86,0,0,1,2.31,0c.49,0,.47.34.26.55-1.36,1.35-1,3.06-1,4.67,0,3.81,0,7.62,0,11.43,0,.62.07,1,.8,1a.79.79,0,0,1,.58.29C80.16,76,80,77.25,80,78.6c.05,3.68,0,7.36,0,11a3.18,3.18,0,0,0,.83,2.48c.18.18.36.44.25.69s-.47.17-.7.14c-.91-.12-1.92.37-2.73-.42a.13.13,0,0,0-.13,0c-.88.77-1.93.28-2.89.4-.59.08-.66-.34-.36-.65,1.12-1.13,1-2.53,1-3.91,0-3.19,0-6.39,0-9.58,0-2.09,0-2.19-1.36-3.66M77.6,63.28a190.11,190.11,0,0,0,0,23.63,207,207,0,0,0,0-23.63" transform="translate(-15.19 -21.45)"/><path class="cls-4" d="M84.82,91.45A3.11,3.11,0,0,0,88.37,89a9.25,9.25,0,0,0,.18-2.23c0-4.06,0-8.13,0-12.2a2.42,2.42,0,0,0-1-2.19s0-.13.07-.13c.9-.09,1-.65,1-1.43,0-3.56,0-7.11,0-10.66a3.05,3.05,0,0,0-.68-2.37c-.36-.36-.16-.62.32-.57.76.07,1.51,0,2.27.16s1.42-.18,2.15-.16c.27,0,.64-.16.78.13s-.18.5-.37.7a1.77,1.77,0,0,0-.48,1.27c0,4.07,0,8.14,0,12.21,0,.36.15.49.47.55a.76.76,0,0,1,.61.27A2.72,2.72,0,0,0,92.52,75c0,3.81-.08,7.63,0,11.43a6.26,6.26,0,0,1-6.11,6.37,6.19,6.19,0,0,1-4-.88,2.47,2.47,0,0,1-1.19-2.5,2.24,2.24,0,0,1,1.51-1.88,2.67,2.67,0,0,1,2.18,0A2,2,0,0,1,85.4,91c-.16.13-.32.23-.58.42m5.73-9.12a141.1,141.1,0,0,0,0-17.69,143,143,0,0,0,0,17.69M90.66,62a2.06,2.06,0,0,0-.13,1.68A3.67,3.67,0,0,0,90.66,62m0,23a4.75,4.75,0,0,0-.16-2,2.69,2.69,0,0,0,.16,2" transform="translate(-15.19 -21.45)"/><path class="cls-7" d="M104.32,53A9.71,9.71,0,0,1,98,50.77,3.39,3.39,0,0,1,96.76,47a3.09,3.09,0,0,1,2.71-2.32,3.42,3.42,0,0,1,2.42.58,3.42,3.42,0,0,0,4.1-.07,3.57,3.57,0,0,1,4.31,5.67,9.07,9.07,0,0,1-6,2.11M104,47.76A4.48,4.48,0,0,0,106.6,47c.29-.21.47-.43.23-.76s-.5-.18-.73,0a3.36,3.36,0,0,1-2.94.49c-.68-.16-1.35-.35-2-.52-.3-.08-.64-.19-.77.23s.21.48.47.59a8.88,8.88,0,0,0,3.19.73" transform="translate(-15.19 -21.45)"/><path class="cls-8" d="M58,38.56C72.59,25.18,96.85,17.64,121,23.41a68,68,0,0,1,29.42,14.9c.16.14.15.15.3.7-13.62-10.78-29-16.65-46.32-16.69S71.71,28,58,38.56" transform="translate(-15.19 -21.45)"/><path class="cls-8" d="M150.44,112.29a70.11,70.11,0,0,1-42,16.71c-23,1.41-41.66-8.44-50.79-17.16a1.64,1.64,0,0,1,1,.53,79.41,79.41,0,0,0,19.3,11,71.5,71.5,0,0,0,29.4,4.82,72.72,72.72,0,0,0,40.36-14.41l2.51-1.83c.07.11.13.22.19.33" transform="translate(-15.19 -21.45)"/><path class="cls-8" d="M108.3,106.14c.38.39.82.09,1.23.09s.71-.19.75.24-.4.29-.65.35l-.42.09c.06.39.4.53.6.77s.32.41.11.6-.39,0-.53-.16l-.64-.76c-.34.48-.07,1.27-.56,1.2-.65-.09-.11-.77-.2-1.17s.17-.57-.15-.78c-.07-.12-.16-.31-.3-.24s0,.18.11.25c0,.58-.49.24-.75.33-.08.33.39.74-.06.9s-.41-.4-.63-.62c-.24.15-.35.47-.67.46-.1-.22-.18-.44,0-.65.62-.74.11-1.33-.27-2.14v2.81c0,.54.57.6.84.91s.57.37.35.66-.49,0-.71-.16-.23-.23-.43-.17c-.15.32,0,.68-.08,1a.34.34,0,0,1-.26.33.32.32,0,0,1-.35-.33c0-.35,0-.7,0-1.06-.39,0-.53.31-.78.42a.34.34,0,0,1-.43,0,.3.3,0,0,1,.07-.41c.31-.28.63-.54,1-.79a.45.45,0,0,0,.17-.55c-.18-.34-.15.16-.33.11a.9.9,0,0,1-.53-.46c-.31.2-.26.82-.7.64s0-.58,0-.89c-.27-.1-.59.15-.82-.25-.12-.21-.36,0-.34.26s.08.71.12,1.07,0,.53-.24.56-.34-.25-.37-.49,0-.34-.08-.6c-.41.14-.59.46-.85.68s-.33.21-.48.07-.08-.35,0-.48.49-.52.74-.78a1.25,1.25,0,0,0-.77-.21c-.2,0-.38-.11-.38-.3s.24-.31.44-.3.67.08,1,.12.43.07.56-.15-.23-.14-.28-.32a1.16,1.16,0,0,1,0-.58c-.34-.18-.81.36-.95-.16-.1-.36.41-.38.63-.58-.07-.26-.57-.35-.33-.68s.53,0,.73.1c.71.5,1.18-.17,1.75-.4-.88,0-1.75,0-2.63,0-.44,0-.51.47-.77.69s-.39.82-.79.48.19-.58.33-.88l.15-.3H98.18a.34.34,0,0,1-.35-.24c0-.21.14-.33.34-.34s.72,0,1.11,0c0-.36-.28-.5-.41-.73s-.18-.35,0-.48a.31.31,0,0,1,.47.08c.82,1.72,2.36,1,3.64,1.07-.49-.28-.91-.79-1.59-.38-.24.15-.54.48-.8.13s.26-.42.33-.67c-.2-.24-.79-.23-.59-.66s.55,0,.85,0c.11-.26-.11-.66.32-.77.08,0,.2.2.26,0s-.12-.22-.25-.28c-.38-.32-.78,0-1.17,0s-.71.21-.76-.23.37-.34.65-.37.31,0,.44-.15c-.1-.33-.42-.48-.63-.73s-.26-.36-.1-.54.37,0,.53.11.4.52.75.63c.2-.2.11-.45.14-.67s.13-.44.36-.43.27.26.25.47-.08.61-.1.92-.09.79.46.34c.21-.17.45,0,.7-.13a3.4,3.4,0,0,1-.12-.34c0-.2-.12-.43.14-.53s.35.1.41.26c.14.39.28.45.52.08,0,0,.1,0,.12-.08.15-.32.4.45.51,0s-.28-.49-.48-.71-1-.46-.66-.93.65.29,1,.4c0,0,0,0,.14,0,0-.33,0-.69,0-1a.34.34,0,0,1,.32-.37c.19,0,.29.19.29.39s0,.66,0,1c.36.08.48-.17.66-.29s.37-.27.54-.06,0,.4-.18.57c-.33.34-.88.45-1,1v2.82c.39-.79.89-1.39.27-2.14-.18-.21-.07-.43,0-.64a1,1,0,0,1,.59.46c.32-.13.24-.81.71-.6s0,.54,0,.83c.22.18.66-.14.78.4,0,.17.33-.1.33-.27a8.77,8.77,0,0,0-.1-1.14c0-.25,0-.53.22-.58s.34.24.37.47a2,2,0,0,0,.32.8c.22-.29.42-.58.65-.85s.31-.24.46-.08a.37.37,0,0,1,0,.5c-.21.27-.55.44-.68.8.23.2.5.11.74.17s.36.14.34.35-.21.27-.4.25l-1.07-.14c-.18,0-.37,0-.49.15s.16.22.24.33a.78.78,0,0,1,.06.52,1.09,1.09,0,0,1,0,.18l.16-.06c.26,0,.63-.28.76.06s-.42.41-.6.66c.09.25.57.36.33.67s-.53,0-.75-.11c-.69-.5-1.15.11-1.7.39.84,0,1.67,0,2.5,0a.65.65,0,0,0,.56-.34l.63-.78a.34.34,0,0,1,.47-.11.37.37,0,0,1,0,.49c-.15.2-.3.4-.54.74h1.17c.2,0,.38.09.37.31s-.18.28-.38.28h-1.07c0,.34.28.48.41.69s.21.39,0,.54-.34,0-.47-.13l-.89-1.06s-.15,0-.22,0c-.86,0-1.72,0-2.58.06.58.25,1.08.83,1.78.29.2-.15.49-.34.68-.08s-.2.44-.37.7c.21.22.82.23.65.64s-.58,0-.89,0c-.17.23.23.75-.38.74l-.15-.07a1.58,1.58,0,0,0-1.66-1.53l1.58,1.62.23.21m-6.32.32a.16.16,0,0,0,.2-.11c.95,0,1.24-.61,1.38-1.51a7.58,7.58,0,0,0-1.44,1.45c-.1,0-.16.07-.13.18l-.15.09,0,0,.09-.15m5.71-5.73a8.1,8.1,0,0,0-1.42,1.39c1.25-.24,1.3-.29,1.5-1.31,0-.06.06-.17,0-.17s-.11,0-.13.09m-5,3.68a1.2,1.2,0,0,0-1.17,1.39l1.34-1.25.15-.22c-.13-.08-.22,0-.32.08m3.24-2.93a8.3,8.3,0,0,0,1.29-1.35,1.22,1.22,0,0,0-1.42,1.21c-.11.08-.16.17-.08.3l.21-.16m-2.87.65s0,.07,0,.1l.09,0-.09-.07a14,14,0,0,0-1.53-1.57c.12,1.23.34,1.43,1.54,1.56m.37-.53c.06,0,.09.19.19.11s0-.17-.07-.23c-.19-.76-.44-1.44-1.51-1.33a9.6,9.6,0,0,0,1.39,1.45m.69,1.17s0-.07,0-.11l-.06,0,.09.07c0,.08,0,.18,0,.23-.38.58.08.83.46.93s.59-.18.71-.55-.25-.42-.12-.67a1.21,1.21,0,0,0-1,.08m1.58,2c.27,1.33.45,1.51,1.47,1.51a9.53,9.53,0,0,0-1.47-1.51m-1.46.37c-.71,1.18-.7,1.27,0,2.06Zm0-6c-.69,1-.68,1.32,0,2.1Zm-2.3.73,0-.06a.54.54,0,0,0,0,.11l0,0a.93.93,0,0,0,0-.1" transform="translate(-15.19 -21.45)"/><path class="cls-8" d="M69,101q35.22,24.94,70.32.06c-1.52,3.06-13.91,9.62-22.37,11.66a53.81,53.81,0,0,1-25.45,0C82.72,110.63,72,105,69,101" transform="translate(-15.19 -21.45)"/><path class="cls-8" d="M139.55,52.51Q104.15,27.39,69,52.44a3.89,3.89,0,0,1,.29-.39,4.47,4.47,0,0,1,.45-.42A50.93,50.93,0,0,1,90.93,40.8a51.67,51.67,0,0,1,12.91-1.62,53.16,53.16,0,0,1,33.49,11.29,13.2,13.2,0,0,1,2.22,2" transform="translate(-15.19 -21.45)"/><path class="cls-9" d="M103.08,34.32c.32.14.6.27.88.38s.36,0,.3.23a.44.44,0,0,1-.25.27.88.88,0,0,1-.87-.1,4.69,4.69,0,0,1-2.35-4.72,4.61,4.61,0,0,1,.42-1.94,1.27,1.27,0,0,1,2.17-.2,6.32,6.32,0,0,1,.33,5.39,6.08,6.08,0,0,1-.63.69m0-2.79a8.43,8.43,0,0,0-.25-2.83c-.07-.22-.16-.45-.44-.46s-.41.2-.44.44a13.57,13.57,0,0,0,.22,4.67c.06.25.19.52.51.47s.38-.34.39-.6c0-.56,0-1.13,0-1.69" transform="translate(-15.19 -21.45)"/><path class="cls-9" d="M84.55,34.56c.45.93.4,1.85,1.06,2.52.19.19.07.32-.14.39a7.53,7.53,0,0,1-.81.24c-.29.07-.33,0-.38-.35a16.82,16.82,0,0,0-1.68-5.27c-.15-.29-.15-.42.15-.51A11.22,11.22,0,0,1,84,31.23a1.37,1.37,0,0,1,1.56.57,1.64,1.64,0,0,1,.07,1.95c-.18.26-.34.44.09.61s.44.42.61.68c.25.42.5.84.77,1.24.12.19.58.31.22.56s-.72.51-1-.07-.63-1.06-1-1.58a1,1,0,0,0-.78-.63M85,33.27A2.36,2.36,0,0,0,84.58,32a.54.54,0,0,0-.69-.18c-.26.14,0,.37,0,.54a6.88,6.88,0,0,0,.34,1.09c.09.21,0,.62.37.57s.41-.4.39-.73" transform="translate(-15.19 -21.45)"/><path class="cls-9" d="M110.86,120.43c.23,1.26,0,2.59.64,3.76.06.11.1.28,0,.33a3.78,3.78,0,0,1-.83.13c-.16,0-.2-.16-.17-.29.29-1.45-.25-2.82-.37-4.24a2.09,2.09,0,0,0-.38-1.46c-.14-.14-.09-.33.09-.36.37,0,.81-.34,1.1.18l1,1.82a1.3,1.3,0,0,0,.53.68,7.75,7.75,0,0,0-.53-2.58c-.06-.1-.19-.23,0-.33a1.44,1.44,0,0,1,.82-.16c.14,0,.28.1.24.23-.36,1.17.16,2.28.22,3.42,0,.74.2,1.48.29,2.22,0,.18.13.44-.14.53s-.34-.19-.43-.35c-.61-1.1-1.2-2.21-1.8-3.32a1.9,1.9,0,0,0-.19-.21" transform="translate(-15.19 -21.45)"/><path class="cls-9" d="M129.85,33.92a6.23,6.23,0,0,1-1.5,3.42,2.42,2.42,0,0,1-3,0c-.11-.11-.13-.22,0-.33,1-1.14,1.18-2.64,1.77-3.95.2-.45.56-.88.36-1.45,0-.15.09-.26.29-.25a2.43,2.43,0,0,1,2.15,2.53m-.82-.77c0-.36-.09-.73-.42-.81s-.33.33-.41.53c-.51,1.24-1,2.48-1.46,3.74-.08.22-.42.52,0,.73s.61-.06.8-.32A10.1,10.1,0,0,0,129,33.15" transform="translate(-15.19 -21.45)"/><path class="cls-9" d="M74.64,38.11c1.13.19,1.67.65,1.8,1.5a2.49,2.49,0,0,1-2.19,2.28.22.22,0,0,1-.23-.24c0-1.18-.79-2.08-1.24-3.1-.32-.73-.46-1.58-1.19-2.1-.2-.15-.07-.33.12-.41a8.6,8.6,0,0,1,1.48-.62,1.59,1.59,0,0,1,1.74,2.07,5.75,5.75,0,0,1-.29.62m.92,2a1.92,1.92,0,0,0-.87-1.38.57.57,0,0,0-.59,0c-.21.15,0,.33.05.47a13,13,0,0,0,.59,1.25c.11.19.07.6.44.5s.41-.37.38-.84m-1.31-2.54a2.3,2.3,0,0,0-.74-1.39.5.5,0,0,0-.63,0c-.21.15,0,.32.06.46.17.4.35.79.55,1.18.09.17.08.53.41.43s.32-.38.35-.64" transform="translate(-15.19 -21.45)"/><path class="cls-9" d="M137.27,115a2.59,2.59,0,0,1-1.92,2.28c-.22,0-.23-.12-.29-.27a16.52,16.52,0,0,0-2.73-5c-.15-.18-.18-.26,0-.42a2.34,2.34,0,0,1,3.39.11,5.87,5.87,0,0,1,1.55,3.27m-.76.5a7.64,7.64,0,0,0-1-2.31,5.17,5.17,0,0,0-1.16-1.51c-.23-.19-.51-.33-.76-.1s0,.42.14.6c.66,1.21,1.32,2.42,2,3.63.1.18.15.52.41.46s.4-.37.37-.77" transform="translate(-15.19 -21.45)"/><path class="cls-9" d="M140.33,39.08a5.54,5.54,0,0,1-2.6,3.73,2.91,2.91,0,0,1-2.58-.81c-.08-.16,0-.22.12-.31a17.34,17.34,0,0,0,3-4.84c.09-.22.15-.27.38-.2a2.46,2.46,0,0,1,1.68,2.43m-.77-.63c0-.41,0-.64-.27-.75s-.26.09-.34.22c-.81,1.3-1.61,2.61-2.42,3.92-.24.38,0,.5.32.5a1,1,0,0,0,.76-.46,10.29,10.29,0,0,0,1.8-2.93,3.59,3.59,0,0,0,.15-.5" transform="translate(-15.19 -21.45)"/><path class="cls-9" d="M81.47,37.5c0,.86-.12,1.49-.86,1.76a1.44,1.44,0,0,1-1.7-.59,7,7,0,0,1-1.54-3.94,1.42,1.42,0,0,1,.81-1.6,1.47,1.47,0,0,1,1.76.61,7.63,7.63,0,0,1,1.53,3.76m-.77.79a15.47,15.47,0,0,0-1.77-4.5.42.42,0,0,0-.52-.22c-.27.1-.28.35-.25.58a12.09,12.09,0,0,0,.69,2.29,8.63,8.63,0,0,0,1,2.09c.15.19.33.36.59.28s.26-.3.29-.52" transform="translate(-15.19 -21.45)"/><path class="cls-9" d="M108,122.34a3.88,3.88,0,0,1-.42,2.09,1.24,1.24,0,0,1-2.2.1,5.92,5.92,0,0,1-.35-5.19,1.17,1.17,0,0,1,1.14-.79,1.38,1.38,0,0,1,1.23.8,6.29,6.29,0,0,1,.6,3m-1.07,0a8.85,8.85,0,0,0-.26-2.62c-.08-.29-.15-.67-.55-.61s-.41.43-.42.74c0,.66,0,1.33,0,2a20.24,20.24,0,0,0,.21,2.06c0,.34.12.82.57.79s.44-.49.45-.85,0-.87,0-1.5" transform="translate(-15.19 -21.45)"/><path class="cls-9" d="M90.54,121.49a7.12,7.12,0,0,1,1.07-3.65,1.4,1.4,0,0,1,1.5-.72,1.29,1.29,0,0,1,1,1.27,6.71,6.71,0,0,1-1,4.35,1.37,1.37,0,0,1-1.53.79,1.47,1.47,0,0,1-1.1-1.5,4.87,4.87,0,0,1,0-.54m2.82-2.95c-.06-.36.14-.79-.35-.94-.26-.09-.43.13-.52.35a16,16,0,0,0-1.12,4.46c0,.27,0,.61.39.65s.45-.22.54-.47a18,18,0,0,0,1.06-4" transform="translate(-15.19 -21.45)"/><path class="cls-9" d="M142.06,113a1.23,1.23,0,0,1-1.88,1.2,5.77,5.77,0,0,1-2.84-4.35,1.22,1.22,0,0,1,1.81-1.23,6.33,6.33,0,0,1,2.91,4.38m-3.66-4c-.35,0-.53.32-.33.76a16.1,16.1,0,0,0,2.41,3.75c.19.2.43.42.74.24s.19-.51.07-.76a16.22,16.22,0,0,0-2.28-3.56,1.27,1.27,0,0,0-.61-.43" transform="translate(-15.19 -21.45)"/><path class="cls-9" d="M92.94,35.48c-.19.06-.3,0-.28-.28.17-1.62-.48-3.12-.68-4.68a1.22,1.22,0,0,0-.23-.81c-.42-.4-.18-.53.24-.61s1-.16,1.44-.26a.81.81,0,0,1,1,1.07.31.31,0,0,1-.12.17c-.12.06-.19,0-.24-.12s-.15-.27-.24-.39c-.22-.28-.5-.22-.78-.12s-.18.33-.15.52c.08.45.17.91.27,1.36,0,.14,0,.33.2.36s.29-.14.33-.33,0-.34.23-.34.21.24.26.4a1.71,1.71,0,0,1,.09.45c0,.27.29.61,0,.8s-.35-.27-.56-.37-.41-.09-.36.23c.12.66.26,1.31.38,2,0,.22.15.31.37.25s.58-.12.69-.51-.1-.78.31-.76.23.55.33.85.07.72-.49.77-1.31.24-2,.38" transform="translate(-15.19 -21.45)"/><path class="cls-9" d="M108.25,27.89a27.24,27.24,0,0,0-.37,5.1c0,.34.09.69.54.71s.57-.33.6-.67c.07-1.15.11-2.31.14-3.47,0-.44.21-.92-.13-1.34a.19.19,0,0,1,.06-.32,1.24,1.24,0,0,1,.83,0c.14.05.16.19.1.32-.48,1.21-.2,2.49-.32,3.73,0,.41,0,.83-.1,1.23a1.28,1.28,0,0,1-1.42,1.13A1.3,1.3,0,0,1,106.94,33c0-1.13,0-2.26.08-3.39,0-.26,0-.51,0-.77,0-1.16,0-1.16,1.19-.93" transform="translate(-15.19 -21.45)"/><path class="cls-9" d="M141.82,45.66l.44-.24c.18-.1.36-.4.58-.14s-.12.4-.23.57c-.55.81-.56.8-1.35.22-.48-.35-1.19-.62-1.36-1.08s.66-.75.95-1.22c.62-1,1.37-1.93,2.07-2.88.06-.08.1-.21.18-.25.35-.16-.07-.86.49-.78.32,0,.59.38.89.59l.5.36c.78.56.78.6.15,1.31-.1.12-.18.3-.36.22s-.1-.26-.06-.4a1.81,1.81,0,0,0,.09-.37c0-.31-.24-.44-.45-.58s-.36.08-.48.24c-.28.37-.55.73-.82,1.12-.08.13-.3.26-.12.45a.33.33,0,0,0,.43,0c.15-.08.33-.25.47,0s-.07.33-.16.47a4.62,4.62,0,0,1-.37.5c-.14.15-.19.49-.48.4s-.11-.34-.08-.53a.28.28,0,0,0-.15-.32c-.16-.07-.24.06-.31.15-.34.46-.68.91-1,1.37-.11.15-.36.3-.17.52a1,1,0,0,0,.71.36" transform="translate(-15.19 -21.45)"/><path class="cls-9" d="M121.17,122a12.59,12.59,0,0,0-.41-1.47c-.44-1.22-.44-2.58-1.24-3.68-.16-.22,0-.31.23-.37.67-.19,1.34-.36,2-.57.29-.09.4,0,.43.28s.38.69.12,1c-.13.17-.3-.09-.38-.24a.62.62,0,0,0-.92-.27c-.38.17-.12.49-.07.74a7.62,7.62,0,0,0,.22.82c.08.23,0,.61.29.65s.31-.31.35-.54a.2.2,0,0,1,.21-.18.21.21,0,0,1,.22.18c.08.27.16.54.23.81s.23.49,0,.65-.32-.14-.45-.28a.29.29,0,0,0-.35-.09c-.19.09-.09.27,0,.4.13.52.28,1,.43,1.56.06.24.06.55.45.47a.72.72,0,0,0,.66-.56c.06-.27-.17-.77.24-.77s.26.54.41.82c.26.52,0,.72-.48.82s-1.08.3-1.63.44-.55.14-.52-.63" transform="translate(-15.19 -21.45)"/><path class="cls-9" d="M116.72,117.3c.17.06.46-.27.58,0a7.66,7.66,0,0,1,.28,1.26c0,.05-.09.14-.14.15s-.23-.08-.29-.19c-.24-.38-.39-1-1-.74s-.32.81-.27,1.25a12,12,0,0,0,.9,3.64c.13.3.28.69.71.53s.22-.52.15-.81a7.32,7.32,0,0,0-.26-.88c-.07-.18-.57-.21-.33-.46s.61-.22.93-.26.29.29.34.5a4.6,4.6,0,0,0,.28,1.19c.34.57,0,.78-.39,1a1.62,1.62,0,0,1-2.3-.53,5.83,5.83,0,0,1-.77-4.51c.19-.74.59-1.33,1.56-1.18" transform="translate(-15.19 -21.45)"/><path class="cls-9" d="M77.06,112.09c.11-.43-.18-.6-.5-.76s-.39.22-.51.39a9.53,9.53,0,0,0-.6,1.08c-.07.14-.28.29-.09.47s.33.06.48-.06.25-.22.4-.08,0,.27,0,.4a6,6,0,0,1-.34.61c-.11.18-.13.52-.42.47s-.14-.33-.15-.53a.29.29,0,0,0-.17-.31c-.21-.06-.26.13-.33.25-.26.48-.52,1-.77,1.43-.09.18-.36.39-.07.59s.57.39.91.12c.14-.11.26-.25.4-.37a.27.27,0,0,1,.35,0c.15.1.06.23,0,.33a6,6,0,0,0-.32.61c-.17.48-.42.49-.82.25s-1.12-.62-1.68-.94c-.17-.09-.47-.22-.18-.43.78-.56,1-1.48,1.44-2.23A7.54,7.54,0,0,0,75.25,111c.22-1.15.67-.64,1.17-.37a4.64,4.64,0,0,0,.82.44c.73.23.65.63.28,1.12-.11.15-.13.47-.39.39s-.09-.34-.07-.52" transform="translate(-15.19 -21.45)"/><path class="cls-9" d="M134.71,34.71c-.21.77-.46,1.56-.63,2.36-.24,1.16-.87,2.25-.76,3.49,0,.23-.18.29-.38.18l-.76-.38c-.36-.16-.44-.27,0-.55s.55-1,.13-1.23c-.62-.37-1.07-.1-1.12.69,0,.19,0,.43-.18.43a1.08,1.08,0,0,1-.8-.4c-.17-.24.11-.32.27-.44a2.52,2.52,0,0,0,.53-.55c.92-1.24,2-2.36,2.78-3.69.2-.33.48-.23.74-.23s.29.09.22.32m-1.48,1.86-.14-.1c-.27.36-.55.71-.82,1.06-.09.12-.25.25-.08.39a.89.89,0,0,0,.47.22c.17,0,.2-.19.24-.33l.33-1.24" transform="translate(-15.19 -21.45)"/><path class="cls-9" d="M113.25,32.9c-.48,0-.74.45-.57,1,0,.17.23.36,0,.46a1.06,1.06,0,0,1-.89-.09c-.26-.15,0-.33.1-.5a33.47,33.47,0,0,0,1.69-4.94.69.69,0,0,1,.72-.61c.4,0,.25.37.27.59.13,1.54.23,3.07.35,4.61,0,.13,0,.26,0,.39.14,1,.14.95-.84.8-.43-.07-.62-.1-.25-.59a.7.7,0,0,0-.6-1.15m.48-2.3h-.11c-.16.45-.3.9-.47,1.35s0,.41.31.46.44,0,.41-.35c0-.49-.09-1-.14-1.45" transform="translate(-15.19 -21.45)"/><path class="cls-9" d="M70.18,44c-.15.28-.47.34-.73.47a.22.22,0,0,1-.32-.22,6,6,0,0,0-.55-2.36,18.49,18.49,0,0,0-1-3c-.2-.4.11-.6.3-.78s.38.14.5.28c1,1.18,2,2.37,3,3.55.1.12.19.25.3.36.69.7.69.69-.27,1.15-.35.17-.53.2-.48-.28a.83.83,0,0,0-.61-.88.71.71,0,0,0-.81.45.79.79,0,0,0,.45,1,.36.36,0,0,1,.24.3M68.69,40.4l.43,1.44c.06.22.15.38.41.2s.49-.18.24-.49a5.18,5.18,0,0,0-1.08-1.15" transform="translate(-15.19 -21.45)"/><path class="cls-9" d="M130.19,119.06c-.28-1.28-.55-2.55-.84-3.83A5.25,5.25,0,0,0,129,114c-.23-.46.11-.64.34-.81s.37.15.48.31c.91,1.27,1.81,2.56,2.71,3.84a3.09,3.09,0,0,1,.26.37c.12.27.68.26.53.56s-.73.44-1.13.57-.27-.11-.26-.37c0-.67-.42-1.07-.91-.87a.71.71,0,0,0-.22,1.25c.13.13.47.19.3.43a1,1,0,0,1-.81.37c-.35,0-.15-.36-.11-.57m-.1-3.61-.13.07c.11.46.23.92.3,1.4s.22.33.47.22.44-.16.21-.47-.57-.81-.85-1.22" transform="translate(-15.19 -21.45)"/><path class="cls-9" d="M85.47,121.08c.1.21.21.43,0,.49a1,1,0,0,1-.85-.25c-.23-.19,0-.33.18-.47a3.57,3.57,0,0,0,.7-1.09,36.46,36.46,0,0,0,2-3.63c.15-.37.48-.27.73-.25s.19.36.17.54c-.16,1.46-.35,2.91-.52,4.36a3.23,3.23,0,0,1-.1.76c-.09.28.41.7,0,.78a2,2,0,0,1-1.22-.36c-.29-.16,0-.3.14-.44.37-.39.33-1-.06-1.2-.22-.09-.49-.3-.71-.07a1,1,0,0,0-.38.83m1.67-3a7.37,7.37,0,0,0-.77,1.22c-.16.24-.15.39.17.49s.46.1.51-.28a5.34,5.34,0,0,0,.08-1.44l.05,0,0,0" transform="translate(-15.19 -21.45)"/><path class="cls-9" d="M73,110.1a2.63,2.63,0,0,0,.06-.34c0-.35-.21-.51-.48-.63s-.37.17-.49.33c-.26.39-.5.78-.73,1.18-.09.14-.28.28-.08.46a.33.33,0,0,0,.43,0c.15-.08.31-.24.47,0s0,.32-.13.47a4,4,0,0,1-.32.52c-.1.14-.15.38-.36.34s-.19-.26-.18-.44,0-.37-.27-.4-.26.15-.32.28c-.31.66-1,1.13-1,2,0,.23-.18.3-.38.18s-.52-.33-.79-.49-.17-.24,0-.41a15.18,15.18,0,0,0,3-4.88c.09-.25.24-.22.41-.11.62.37,1.22.77,1.84,1.13.28.16.18.34.06.5s-.26.72-.67.78c-.18,0-.2-.19-.11-.39" transform="translate(-15.19 -21.45)"/><path class="cls-9" d="M66.93,45.28c0,.74-1,1.72-1.63,1.66a3.46,3.46,0,0,1-.9-1.46c.08-.2.21-.2.35-.06l.38.38c.3.28.66.49,1,.15s.2-.71,0-1.05A2.32,2.32,0,0,0,64.57,44a2.87,2.87,0,0,1-1.8-1c-.88-1.31-.53-2,.9-2.53.32-.11.37.21.47.39s.47.5.4.87c0,.1-.16.11-.26.05s-.16-.13-.24-.18c-.34-.23-.71-.76-1.07-.17s.15.89.57,1.08,1.17.37,1.75.58a2.39,2.39,0,0,1,1.64,2.12" transform="translate(-15.19 -21.45)"/><path class="cls-9" d="M100.55,122.43c0,.44,0,.87.08,1.3,0,.27.12.59.46.65s.51-.25.66-.52,0-.65.44-.45.08.46,0,.69a1.18,1.18,0,0,1-1.07.87,1.33,1.33,0,0,1-1.18-.74,6.16,6.16,0,0,1,.51-5.37,1.69,1.69,0,0,1,2.09-.2,2.31,2.31,0,0,1-.09,1.47c-.26.14-.3-.08-.36-.25-.15-.38-.07-1-.66-.95s-.51.7-.6,1.13a13.44,13.44,0,0,0-.27,2.37" transform="translate(-15.19 -21.45)"/><path class="cls-9" d="M120.05,34.5c0,.23-.11.43-.14.63,0,.46-.23.61-.71.46s-1.15-.26-1.73-.39c-.2-.05-.47-.11-.28-.39.83-1.24.75-2.74,1.15-4.1a2.14,2.14,0,0,0,.14-1.5c-.1-.22.08-.33.3-.29l.9.2c.23.06.27.17.15.39-.84,1.57-.85,3.35-1.32,5,0,.13-.11.31.1.39a.65.65,0,0,0,.66-.07,2.15,2.15,0,0,0,.35-.5c.07-.12.15-.22.3-.19s.13.23.13.34" transform="translate(-15.19 -21.45)"/><path class="cls-9" d="M126.12,121.19c-.24,0-.37-.12-.3-.27.28-.56-.1-1-.24-1.46-.32-1.06-.69-2.1-1-3.14a1.24,1.24,0,0,0-.24-.56c-.71-.61-.12-.66.31-.82s.69-.3.75.47a12.05,12.05,0,0,0,.84,2.79c.18.56.36,1.13.57,1.68.07.17,0,.54.39.44a.64.64,0,0,0,.53-.58c0-.25-.2-.68.16-.73s.3.46.44.71c.31.51.12.77-.43.91s-1.18.38-1.73.56" transform="translate(-15.19 -21.45)"/><path class="cls-9" d="M81.11,119.65c.5-.12.55-.45.67-.72.5-1.21,1-2.42,1.49-3.63,0-.12.09-.24.15-.36s-.21-.65.16-.73.72.23,1.07.36c.19.07.2.23.06.37-.88.92-1,2.19-1.59,3.27a14.44,14.44,0,0,1-.64,1.31,1.27,1.27,0,0,1-1.69.44.76.76,0,0,1-.45-.95.42.42,0,0,1,.55-.3c.53.14.25.56.22.94" transform="translate(-15.19 -21.45)"/><path class="cls-9" d="M125,30.68a1.33,1.33,0,0,1-.06.23c-1,1.38-1,3.07-1.62,4.59a5,5,0,0,0-.14.52c-.08.23.32.65-.15.68a3.06,3.06,0,0,1-1.16-.36c-.08,0-.06-.17,0-.27.87-1.22,1-2.72,1.46-4.09.16-.44.44-.88.22-1.4a.2.2,0,0,1,0-.2c.26-.21.49,0,.72.06a6.8,6.8,0,0,1,.68.24" transform="translate(-15.19 -21.45)"/><path class="cls-9" d="M81,113a1.65,1.65,0,0,1-.15.26c-1.18,1.35-1.61,3.11-2.45,4.65a1,1,0,0,0,0,.45c0,.27-.1.4-.37.28s-.55-.27-.83-.4-.2-.24-.06-.42a15,15,0,0,0,2.46-5.09c.09-.26.15-.36.41-.24l1,.51" transform="translate(-15.19 -21.45)"/><path class="cls-9" d="M87.81,115.1c-.16,0-.31.37-.47,0,0-.09.08-.29.17-.4a.46.46,0,0,1,.55-.16c.39.16.59.84,1.21.44.08,0,.11.18.06.3s-.29.47-.59.38a1.55,1.55,0,0,1-.49-.34c-.13-.12-.22-.3-.44-.26" transform="translate(-15.19 -21.45)"/><path class="cls-10" d="M183.94,117.75l-.09.1c0-.11,0-.12.1-.09Z" transform="translate(-15.19 -21.45)"/><path class="cls-10" d="M168.5,87c.06,0,.15,0,.09.13s-.12,0-.15-.07Z" transform="translate(-15.19 -21.45)"/><path class="cls-10" d="M166.58,64.25s.12-.12.13-.11,0,.15,0,.22l-.13-.11" transform="translate(-15.19 -21.45)"/><path class="cls-9" d="M130.26,63.5v1.12a1.09,1.09,0,0,1,0-1.43" transform="translate(-15.19 -21.45)"/><path class="cls-9" d="M130.26,87.07c-.33-.58-.33-.76,0-1.45Z" transform="translate(-15.19 -21.45)"/><path class="cls-11" d="M101.47,80.21a12.64,12.64,0,0,1,0-2.75,3.29,3.29,0,0,1,1.35-2.28c-.18-.09-.28-.19-.39-.19-1,0-1.09-.54-1-1.34.1-1.07-.08-2.15.09-3.21a2,2,0,0,1,.5.18c.66.46,1,.32,1.26-.47.41-1.31.92-2.59,1.43-4,.44,1.23.82,2.3,1.19,3.38.51,1.51.51,1.51,2,1,0,1.23,0,2.46,0,3.68,0,.52-.15.75-.65.78a1.1,1.1,0,0,0-.73.31,3.22,3.22,0,0,1,1.37,3.22c0,.58,0,1.17,0,1.76-.19-.09-.37-.19-.56-.27-.87-.37-.87-.36-1.2.57-.44,1.26-.89,2.5-1.38,3.87-.13-.26-.21-.37-.25-.48-.34-.94-.69-1.88-1-2.82-.53-1.53-.53-1.53-2-.86" transform="translate(-15.19 -21.45)"/><path class="cls-11" d="M98.74,76.49a7.26,7.26,0,0,1,0-2.46l.66-.17a11.49,11.49,0,0,1,0,2.81l-.67-.18" transform="translate(-15.19 -21.45)"/><path class="cls-12" d="M110.59,76.51l-.66.15a21.8,21.8,0,0,1,0-2.8l.7.15c0,.83,0,1.66,0,2.5" transform="translate(-15.19 -21.45)"/><path class="cls-11" d="M99.26,79.5v-.38s0,.07,0,.11,0,0,0,0" transform="translate(-15.19 -21.45)"/><path class="cls-9" d="M90.66,62a3.81,3.81,0,0,1-.13,1.68A2.06,2.06,0,0,1,90.66,62" transform="translate(-15.19 -21.45)"/><path class="cls-9" d="M90.68,85a2.69,2.69,0,0,1-.16-2,4.75,4.75,0,0,1,.16,2" transform="translate(-15.19 -21.45)"/><path class="cls-13" d="M87.14,118.05l0,0-.05,0h0" transform="translate(-15.19 -21.45)"/></g></g></g></svg>